<svg width="900" height="700" viewBox="0 0 900 700" fill="none" xmlns="http://www.w3.org/2000/svg">
<path d="M449.755 699.949C300.571 699.949 151.435 699.949 2.25005 700C0.440265 700 0 699.594 0 697.667C0.048913 465.906 0.048913 234.094 0 2.33332C0 0.456509 0.391352 0 2.25005 0C300.766 0.0507246 599.234 0.0507246 897.75 0C899.56 0 900 0.405785 900 2.33332C899.951 234.094 899.951 465.906 900 697.667C900 699.543 899.609 700 897.75 700C748.419 699.949 599.087 699.949 449.755 699.949Z" fill="#FCFCFC"/>
<path d="M183.815 498.877C178.288 498.268 174.375 494.261 173.739 488.377C173.641 487.362 173.641 486.348 173.641 485.333C173.641 361.971 173.641 238.659 173.593 115.297C173.593 108.855 175.891 104.239 181.859 101.906C183.082 100.891 184.5 101.196 185.87 101.196C213.065 101.196 240.212 101.196 267.408 101.196C268.973 101.196 270.489 101.196 272.006 100.739C274.305 100.536 276.603 100.587 278.951 100.638C279.391 100.638 279.881 100.638 280.321 100.638C282.62 100.587 284.919 100.486 287.266 100.739C288.783 101.196 290.299 101.196 291.864 101.196C319.989 101.145 348.163 101.297 376.288 101.094C376.728 101.094 377.071 101.145 377.413 101.449C378.489 101.5 379.516 101.551 380.593 101.551C497.201 101.551 613.859 101.551 730.468 101.551C739.027 101.551 743.43 106.116 743.43 114.891C743.43 238.609 743.43 362.326 743.43 485.993C743.43 493.348 739.663 498.116 733.304 498.826C732.913 498.978 732.522 498.928 732.082 498.978C713.103 499.587 694.174 499.435 675.196 499.435C637.093 499.435 598.94 499.841 560.837 499.333C499.5 498.572 438.212 499.08 376.875 499.08C363.522 499.08 350.217 499.232 336.864 499.435C335.984 499.435 335.054 499.435 334.174 499.384C332.56 499.333 331.777 498.37 331.924 496.746C332.462 490.609 333.147 484.471 333.978 478.384C334.223 476.507 335.348 475.645 337.207 475.696C338.43 475.746 339.652 475.696 340.875 475.696C462.326 475.696 583.777 475.696 705.228 475.696C706.549 475.696 708.016 476.152 709.141 474.884C709.68 473.768 709.533 472.551 709.533 471.384C709.533 357.457 709.533 243.529 709.533 129.601C709.533 128.841 709.533 128.08 709.484 127.319C709.435 126.203 708.848 125.645 707.772 125.594C706.891 125.543 705.962 125.543 705.082 125.543C537.701 125.543 370.321 125.543 202.94 125.543C198.392 125.543 198.391 125.543 198.391 130.261C198.391 243.833 198.391 357.457 198.391 471.029C198.391 472.297 198.294 473.565 198.636 474.833C199.272 475.899 200.299 475.746 201.228 475.746C204.555 475.746 207.881 475.696 211.207 475.797C213.946 475.848 214.679 476.761 213.848 479.399C212.087 485.181 210.326 490.964 208.614 496.797C208.076 498.674 206.902 499.485 204.995 499.485C197.951 499.485 190.859 499.638 183.815 498.877Z" fill="black"/>
<path d="M183.815 498.877C190.81 498.826 197.805 498.725 204.799 498.775C206.707 498.775 207.489 498.167 208.027 496.29C209.642 490.456 211.451 484.674 213.261 478.942C213.848 477.065 213.652 476.355 211.598 476.406C207.685 476.507 203.772 476.456 199.859 476.406C199.125 476.406 198.196 476.812 197.609 475.949C198.538 474.985 199.712 475.188 200.837 475.138C204.261 475.087 207.685 475.087 211.109 475.138C212.821 475.138 213.848 474.427 214.337 472.754C216.881 464.283 219.62 455.913 221.919 447.391C222.701 444.449 222.457 441.355 222.603 438.362C222.897 431.362 223.386 424.413 223.826 417.413C224.315 409.855 224.218 402.246 225.538 394.79C226.468 393.572 226.761 394.688 227.006 395.297C227.593 396.87 228.082 398.493 228.522 400.116C229.696 404.427 231.065 408.688 232.582 412.848C234.245 417.464 238.109 419.848 242.756 419.29C243.44 419.138 244.125 418.935 244.81 418.833C246.326 418.478 247.745 417.87 249.163 417.261C249.75 416.956 249.995 416.196 250.582 415.942C252.93 414.725 253.957 412.543 253.565 409.145C253.272 406.558 252.832 403.971 252.489 401.384C252.391 400.623 252.196 399.862 252.44 399.152C253.614 397.377 251.951 395.855 252.049 394.181C252.93 390.022 252.734 385.964 251.169 382.007C250.239 379.623 249.848 379.471 247.5 380.384C240.799 383.022 234.098 385.609 227.397 388.246C226.321 388.652 225.294 389.159 224.12 389.159C223.044 388.906 222.848 387.942 222.603 387.08C217.859 372.065 213.212 357.051 208.663 341.985C207.734 338.891 207.783 335.696 208.321 332.449C211.5 313.225 214.777 294.051 217.957 274.826C218.593 270.971 219.228 267.217 221.234 263.768C224.56 258.138 229.402 255.094 235.663 254.841C242.658 254.587 249.652 254.79 256.647 254.79C261.881 254.688 267.065 254.688 272.299 254.79C276.359 254.688 280.468 254.688 284.527 254.79C294.897 255.043 303.555 263.971 303.946 274.725C304.435 288.319 305.12 301.862 305.511 315.406C305.609 319.464 305.853 323.471 305.951 327.529C306 329.812 306.392 332.094 307.125 334.225C316.223 360.196 325.321 386.116 334.517 412.036C339.163 425.174 340.141 438.667 338.478 452.464C337.696 459.007 337.011 465.551 336.277 472.094C335.935 474.985 336.131 475.138 338.919 475.188C339.799 475.188 340.728 475.188 341.609 475.188C462.864 475.188 584.169 475.188 705.424 475.188C707.087 475.188 708.897 474.681 710.364 476C709.484 476.862 708.359 476.456 707.332 476.456C584.413 476.456 461.544 476.456 338.625 476.456C334.712 476.456 334.859 476.456 334.468 480.667C334.027 485.79 333.587 490.913 332.756 495.935C332.364 498.37 332.951 498.775 335.103 498.775C359.756 498.725 384.457 498.725 409.109 498.725C457.093 498.725 505.076 498.725 553.011 498.725C606.669 498.725 660.375 498.725 714.033 498.725C720.44 498.725 726.897 498.826 733.304 498.877C729.196 499.587 725.087 499.029 720.978 499.181C720 499.232 719.022 499.232 718.044 499.232C717.554 499.79 716.919 499.891 716.283 499.942C710.658 500.196 705.082 499.942 699.457 499.942C658.125 499.891 616.794 499.891 575.462 499.942C569.837 499.942 564.261 500.246 558.636 499.891C558.147 499.79 557.707 499.587 557.315 499.283C556.484 499.232 555.701 499.13 554.87 499.13C495.245 499.13 435.62 499.13 375.995 499.13C375.163 499.13 374.381 499.232 373.549 499.232C373.207 499.536 372.815 499.739 372.375 499.79C370.37 499.993 368.315 499.891 366.31 499.891C365.723 499.942 365.136 499.891 364.549 499.891C355.256 499.993 346.011 499.891 336.718 499.942C333.245 499.942 333.147 500.145 332.707 503.746C332.413 506.485 332.169 509.275 331.631 512.014C331.239 513.13 331.337 514.399 330.652 515.464C329.136 528.601 327.62 541.739 326.055 554.927C325.272 555.739 324.294 555.688 323.315 555.688C313.435 555.79 303.506 556.551 293.625 556.196C292.353 556.145 291.033 556.297 289.81 555.536C278.364 555.688 266.919 555.841 255.473 556.043C253.517 556.449 253.321 555.485 254.006 553.964C254.886 551.985 256.06 550.109 257.087 548.232C261.098 540.674 265.696 533.471 268.68 525.406C272.103 516.275 273.864 506.79 272.739 496.898C272.544 495.326 272.006 493.551 273.18 492.029C274.256 490.964 273.669 489.594 273.522 488.427C272.054 475.391 270.538 462.355 268.973 449.319C267.604 437.804 266.332 426.239 264.864 414.725C264.815 414.217 265.451 412.848 263.886 413.203C256.207 422.587 248.185 431.667 240.261 440.848C239.136 442.167 238.109 443.587 236.935 444.855C236.25 445.616 235.908 446.58 235.859 447.594C235.859 448 235.81 448.456 235.859 448.862C236.152 469.761 235.027 490.659 235.37 511.609C235.419 513.993 234.783 516.022 233.56 518.051C226.516 529.717 219.669 541.485 212.723 553.152C211.794 554.725 211.109 556.5 209.348 557.413C205.337 557.971 201.326 557.616 197.267 557.667C196.68 557.667 196.093 557.717 195.506 557.667C193.647 557.616 191.739 557.971 189.881 557.261C189 556.601 189.392 555.688 189.489 554.877C191.25 548.79 192.913 542.652 195.016 536.667C195.555 534.688 195.995 532.659 196.777 530.783C198.245 525.659 199.859 520.536 201.326 515.413C201.424 514.906 201.669 514.398 201.766 513.891C202.989 509.985 204.261 506.08 205.386 502.123C205.875 500.449 205.484 499.79 203.772 499.841C201.522 499.891 199.223 499.841 196.973 499.841C196.435 499.891 195.897 499.841 195.359 499.841C193.5 499.891 191.69 499.942 189.832 499.79C189.245 499.739 188.707 499.587 188.218 499.13C186.799 498.978 185.283 499.536 183.815 498.877Z" fill="#202B6D"/>
<path d="M209.641 557.007C217.761 543.362 225.832 529.717 233.951 516.123C234.587 515.058 234.685 513.942 234.685 512.775C234.783 491.775 234.929 470.725 234.978 449.725C234.978 447.138 235.614 445.159 237.375 443.232C245.886 433.493 254.299 423.601 262.712 413.761C262.908 413.507 263.201 413.355 263.446 413.101C264.522 414.014 264.522 415.333 264.668 416.551C267.456 439.783 270.098 463.065 272.886 486.297C273.13 488.326 273.815 490.406 273.228 492.536C273.277 497.406 273.913 502.225 273.571 507.145C272.788 518 269.119 527.739 264.033 537.072C260.853 542.855 257.723 548.638 254.495 554.37C253.614 555.891 254.201 556.145 255.522 556.196C253.516 556.196 252.685 557.616 251.853 559.188C247.402 567.659 242.951 576.13 238.304 584.449C237.277 586.326 236.837 588.71 234.832 589.978C233.658 590.435 232.777 589.623 231.897 589.116C221.967 583.181 212.038 577.145 202.06 571.362C201.864 571.261 201.668 571.058 201.522 570.855C201.473 570.754 201.424 570.652 201.473 570.601C203.674 565.833 206.12 561.065 209.641 557.007Z" fill="#FD9993"/>
<path d="M289.761 555.739C295.19 555.638 300.619 555.587 306.049 555.486C312.701 555.384 319.353 555.232 326.005 555.08C325.956 570.196 325.956 585.261 325.761 600.377C325.761 602.507 326.446 603.674 328.06 604.891C337.06 611.384 346.011 617.978 354.864 624.674C359.657 628.326 361.467 633.652 361.956 639.587C362.054 640.703 361.565 641.109 360.538 641.058C360.147 641.007 359.706 641.058 359.315 641.058C335.397 641.058 311.478 641.007 287.511 641.109C285.31 641.109 284.772 640.551 284.967 638.319C285.995 627.058 287.022 615.797 287.706 604.536C288.342 593.783 288.489 582.978 288.929 572.174C289.174 566.645 289.467 561.167 289.761 555.739Z" fill="#8F3600"/>
<path d="M201.571 570.754C206.364 572.732 210.522 575.826 214.973 578.413C221.576 582.217 228.13 586.123 234.685 589.978C234.147 592.971 232.19 595.203 230.918 597.841C230.283 599.159 230.087 599.87 231.505 600.884C244.321 610.065 251.56 622.848 254.054 638.674C254.348 640.449 253.81 640.754 252.244 640.754C234.978 640.703 217.712 640.703 200.446 640.754C199.174 640.754 198.391 640.399 197.56 639.384C191.103 630.913 184.598 622.442 178.044 614.123C176.87 612.652 177.017 611.688 177.897 610.217C181.468 604.384 184.892 598.449 188.413 592.616C188.462 591.399 189.245 590.536 189.783 589.572C191.495 586.428 193.451 583.485 195.163 580.341C195.701 579.326 196.484 578.464 197.022 577.449C198.44 575.116 199.321 572.428 201.571 570.754Z" fill="#8F3600"/>
<path d="M716.674 499.333C717.114 499.333 717.554 499.333 718.044 499.283C717.995 500.297 717.946 501.312 717.946 502.326C717.946 540.471 717.946 578.667 717.946 616.812C717.946 620.312 717.946 620.312 714.473 620.312C710.658 620.312 706.794 620.21 702.978 620.362C701.071 620.413 700.484 619.906 700.484 617.826C700.582 606.87 700.484 595.862 700.582 584.906C700.631 582.572 699.897 582.167 697.842 582.167C657.587 582.217 617.381 582.217 577.125 582.167C574.924 582.167 574.435 582.826 574.435 585.007C574.533 595.913 574.435 606.768 574.533 617.674C574.533 619.804 573.946 620.413 571.94 620.362C567.88 620.21 563.772 620.21 559.712 620.362C557.609 620.464 557.168 619.652 557.168 617.623C557.217 578.21 557.217 538.746 557.217 499.333C557.56 499.333 557.951 499.333 558.293 499.333C559.321 500.652 559.027 502.225 559.027 503.696C559.027 527.587 559.027 551.478 559.027 575.37C559.027 579.986 559.027 579.985 563.429 579.985C612.783 579.985 662.136 579.985 711.44 579.985C715.745 579.985 715.794 579.986 715.794 575.572C715.794 551.681 715.794 527.79 715.794 503.899C715.843 502.326 715.5 500.703 716.674 499.333Z" fill="#5C85B1"/>
<path d="M377.364 101.449C376.141 101.551 374.967 101.804 373.745 101.804C346.06 101.804 318.375 101.804 290.641 101.804C289.418 101.804 288.245 101.601 287.022 101.449C286.092 100.435 286.19 99.1159 286.19 97.8478C286.141 92.5217 286.19 87.2464 286.19 81.9203C286.19 79.2319 285.701 78.8768 283.207 78.8768C281.299 78.8768 280.908 79.942 280.908 81.6159C280.908 86.9927 280.908 92.4203 280.908 97.7971C280.908 99.0652 281.054 100.333 280.174 101.399C279.832 101.399 279.489 101.399 279.147 101.399C278.266 100.333 278.413 99.0145 278.413 97.7971C278.364 92.4203 278.413 87.0435 278.413 81.6667C278.413 79.9927 277.924 78.9782 276.065 78.9275C273.717 78.8768 273.179 79.2826 273.131 81.7681C273.082 87.1449 273.13 92.5217 273.082 97.8985C273.082 99.1667 273.228 100.435 272.299 101.5C271.027 101.855 269.707 101.855 268.435 101.855C243.489 101.855 218.593 101.855 193.647 101.855C189.734 101.855 185.821 101.906 181.908 101.957C181.908 94.6014 182.006 87.2464 181.859 79.942C181.81 77.6594 182.446 77.1522 184.598 77.1522C227.446 77.2029 270.294 77.2029 313.092 77.2029C333.636 77.2029 354.13 77.2536 374.674 77.1522C376.875 77.1522 377.413 77.8116 377.413 79.9927C377.266 87.0942 377.364 94.2971 377.364 101.449Z" fill="#5E86B1"/>
<path d="M330.603 515.616C330.554 514.551 330.163 513.435 330.897 512.42C332.119 513.384 333.489 513.688 335.005 513.688C343.614 513.638 352.272 513.688 360.881 513.688C363.717 513.688 363.913 513.486 363.913 510.493C363.962 507.804 363.913 505.116 363.913 502.377C363.913 501.261 363.913 500.145 364.745 499.283C365.185 499.283 365.674 499.283 366.114 499.283C366.946 500.145 366.897 501.261 366.897 502.377C366.946 505.217 366.946 508.109 366.897 510.949C366.848 512.775 367.435 513.739 369.391 513.688C371.25 513.688 371.739 512.725 371.739 511C371.69 508.159 371.69 505.268 371.739 502.428C371.739 501.362 371.641 500.196 372.424 499.333C372.766 499.333 373.109 499.333 373.451 499.283C373.451 530.681 373.451 562.08 373.402 593.529C373.402 595.304 373.402 596.116 375.701 595.761C381.815 594.848 387.489 599.87 388.419 606.667C389.201 612.399 384.897 618.638 379.272 619.855C372.864 621.225 366.75 617.37 365.136 610.928C364.794 609.558 364.696 608.138 364.696 606.667C364.696 577.348 364.696 548.08 364.696 518.761C364.696 515.565 364.696 515.565 361.516 515.565C351.245 515.616 340.924 515.616 330.603 515.616Z" fill="#5B84B0"/>
<path d="M189.978 590.08C189.44 590.891 188.902 591.703 188.413 592.515C188.364 591.399 188.315 590.333 188.315 589.217C188.315 559.239 188.266 529.261 188.266 499.283C188.707 499.283 189.196 499.283 189.636 499.232C190.565 500.145 190.419 501.413 190.467 502.58C190.516 505.471 190.516 508.312 190.467 511.203C190.467 512.877 191.054 513.688 192.766 513.688C194.43 513.638 194.821 512.674 194.821 511.203C194.821 508.312 194.821 505.471 194.821 502.58C194.821 501.413 194.723 500.196 195.652 499.232C196.093 499.232 196.582 499.232 197.022 499.283C197.902 500.246 197.756 501.464 197.756 502.63C197.805 505.319 197.805 508.007 197.756 510.696C197.707 512.623 198.245 513.79 200.299 513.688C201.033 513.638 201.767 513.841 202.305 514.399C202.109 514.804 201.962 515.159 201.767 515.565C201.571 515.717 201.375 515.87 201.18 515.971C197.707 516.935 197.658 516.935 197.756 520.638C197.805 524.138 197.56 527.587 197.364 531.087C196.777 532.964 196.141 534.891 195.555 536.768C194.527 535.754 194.772 534.435 194.723 533.217C194.674 528.5 194.723 523.783 194.674 519.015C194.674 517.949 194.87 516.732 193.353 516.377C191.593 515.92 190.516 516.63 190.37 518.558C190.272 519.572 190.321 520.587 190.321 521.601C190.321 529.362 190.272 537.123 190.321 544.884C190.321 548.232 190.223 551.58 189.978 554.928C189.832 555.638 189.685 556.348 189.538 557.058C190.419 558.022 190.321 559.239 190.321 560.406C190.37 568.978 190.321 577.5 190.37 586.073C190.516 587.493 190.125 588.761 189.978 590.08Z" fill="#658BB5"/>
<path d="M435.766 557.109C435.522 556.906 435.131 556.703 434.886 556.399C432.587 553.71 430.288 550.971 428.038 548.283C427.696 547.877 427.011 547.42 427.598 546.812C428.234 546.203 428.576 547.065 428.919 547.42C431.217 550.109 433.516 552.848 435.766 555.536C436.06 555.891 436.5 556.246 436.256 556.804C436.256 556.957 436.011 557.007 435.766 557.109Z" fill="#658BB4"/>
<path d="M517.891 501.312C514.614 504.254 511.386 507.196 508.109 510.138C507.864 509.833 507.62 509.58 507.375 509.275C510.603 506.333 513.88 503.391 517.109 500.449C517.353 500.754 517.647 501.058 517.891 501.312Z" fill="#648BB4"/>
<path d="M256.109 255.399C249.603 255.449 243.098 255.652 236.592 255.449C228.277 255.196 220.696 261.638 219.082 271.275C216.587 286.645 213.995 302.014 211.451 317.384C210.571 322.609 209.69 327.833 208.81 333.109C208.272 336.507 208.565 339.804 209.592 343.101C214.141 357.659 218.592 372.268 223.141 386.877C223.337 387.587 223.19 388.703 224.364 388.804C226.076 390.377 226.565 392.304 225.929 394.587C225.147 407.37 223.924 420.152 223.679 432.985C223.484 444.145 220.94 454.594 217.467 464.993C216.44 468.036 215.462 471.029 214.679 474.123C214.239 475.797 213.457 476.152 211.94 476.101C207.147 476 202.353 476.051 197.511 476.051C197.462 475.138 197.462 474.174 197.462 473.261C197.462 358.065 197.462 242.87 197.413 127.674C197.413 125.036 198.098 124.58 200.446 124.58C369.391 124.63 538.337 124.63 707.283 124.58C709.679 124.58 710.315 125.087 710.315 127.674C710.217 242.87 710.266 358.065 710.266 473.261C710.266 474.174 710.217 475.138 710.168 476.051C586.272 476.051 462.375 476.051 338.429 476.051C337.794 476.051 337.109 476 336.473 476.051C335.152 476.152 334.859 475.746 335.054 474.326C336.033 466.21 336.864 458.043 337.794 449.927C339.408 436.08 337.402 422.739 332.706 409.703C323.609 384.29 314.755 358.775 305.755 333.312C305.217 331.841 305.168 330.319 305.12 328.848C304.435 310.942 303.701 293.087 303.065 275.181C302.674 264.225 294.554 255.804 283.94 255.551C280.027 255.449 276.114 255.5 272.201 255.449C270.978 252.101 271.565 248.652 271.761 245.254C271.859 244.036 272.984 243.833 273.962 243.63C276.261 243.123 278.56 242.565 280.81 241.754C287.951 239.065 291.082 234.449 291.082 226.638C291.082 223.949 291.228 221.21 290.788 218.572C290.886 217.254 290.739 215.985 290.299 214.768C290.201 213.956 290.201 213.145 290.641 212.384C292.598 210.913 294.799 209.696 294.554 206.551C294.261 202.949 292.647 200.261 289.81 198.384C284.576 194.935 278.755 193.971 272.69 194.58C268.924 194.935 268.826 194.732 268.582 190.775C268.19 184.536 268.043 178.297 267.554 172.109C267.212 167.341 263.397 162.674 258.652 161.457C254.935 160.493 251.169 160.645 247.696 162.522C243.636 164.754 241.288 168.304 241.141 173.072C240.995 178.957 241.582 184.841 241.875 190.775C241.973 192.601 241.924 194.478 242.169 196.355C242.462 198.232 243.098 200.007 244.272 201.428C245.886 203.355 245.495 204.928 244.272 206.855C241.533 211.065 240.016 215.783 240.114 220.906C240.212 228.768 243.685 234.551 250.239 238.456C252.147 239.572 254.397 240.029 256.06 241.551C257.429 244.696 256.549 247.993 256.745 251.239C256.989 252.558 257.283 254.181 256.109 255.399Z" fill="#ECE9E9"/>
<path d="M280.174 101.449C280.174 94.5507 280.223 87.6014 280.174 80.7029C280.174 78.8768 280.517 78.2174 282.424 78.2174C287.071 78.3188 287.071 78.2174 287.071 82.9855C287.071 89.1232 287.071 95.3116 287.071 101.449C284.723 101.652 282.424 101.703 280.174 101.449Z" fill="#FEFEFE"/>
<path d="M272.25 101.449C272.25 94.4493 272.299 87.4493 272.201 80.5C272.201 78.7246 272.69 78.2174 274.402 78.2174C279.098 78.2681 279.049 78.1666 279.098 82.9855C279.098 89.1232 279.147 95.2609 279.147 101.449C276.848 101.703 274.549 101.652 272.25 101.449Z" fill="#FDFEFE"/>
<path d="M716.674 499.333C716.674 525.862 716.674 552.391 716.771 578.87C716.771 581.203 715.598 580.949 714.179 580.949C673.875 580.949 633.522 580.949 593.217 580.949C582.456 580.949 571.696 580.898 560.984 581C558.734 581.051 558.342 580.341 558.342 578.159C558.391 551.884 558.391 525.609 558.342 499.384C564.359 499.333 570.375 499.283 576.391 499.283C622.174 499.283 667.956 499.232 713.739 499.232C714.717 499.232 715.695 499.283 716.674 499.333Z" fill="#FEFEFE"/>
<path d="M291.326 217.812C292.304 221.87 292.207 226.08 291.717 230.138C290.984 236.225 287.217 240.08 281.788 242.159C279.44 243.072 276.995 243.884 274.5 244.138C272.397 244.341 272.201 245.304 272.25 247.029C272.348 249.819 272.299 252.609 272.25 255.399C266.87 255.399 261.489 255.399 256.06 255.399C255.913 250.732 256.5 246.065 255.718 241.449C256.451 239.775 257.919 238.761 259.044 237.442C264.179 231.152 265.989 223.645 266.772 215.732C267.701 206.804 273.179 201.072 279.978 196.406C280.957 195.746 281.935 195.797 283.011 196.254C284.967 197.065 286.533 198.435 287.804 200.058C290.592 203.659 291.326 207.87 290.886 212.384C290.886 213.246 290.886 214.109 290.886 215.022C289.076 216.696 289.076 216.696 291.326 217.812Z" fill="#FD9993"/>
<path d="M225.93 394.536C225.636 392.558 225.098 390.63 224.364 388.754C232.533 385.507 240.701 382.312 248.87 379.065C249.848 378.659 250.337 378.812 250.777 379.775C253.125 384.493 253.859 389.413 252.294 394.587C250.533 392.761 250.386 390.225 249.408 388.044C248.674 386.37 248.43 384.493 247.305 382.971C248.723 388.5 250.777 393.826 252.587 399.203C253.076 402.449 253.565 405.696 254.006 408.891C254.397 411.529 253.908 413.913 252.147 415.942C251.658 416.5 251.169 417.413 250.288 416.348C249.163 415.688 249.065 414.42 248.723 413.355C247.353 409.399 246.082 405.442 244.272 401.587C244.272 402.855 244.712 404.022 245.152 405.188C246.424 408.486 247.402 411.884 248.625 415.13C248.968 415.993 249.359 416.855 249.114 417.819C247.696 418.478 246.326 419.341 244.712 419.341C243.636 418.63 243.489 417.413 243.147 416.297C241.777 412.087 240.212 407.928 238.598 403.768C238.402 404.884 238.794 405.899 239.185 406.913C240.408 410.312 241.631 413.71 242.756 417.109C243.049 417.971 243.489 418.833 243.147 419.797C238.696 421.37 233.609 418.529 231.75 413.152C230.087 408.435 228.767 403.616 227.25 398.848C226.908 397.326 226.419 395.957 225.93 394.536Z" fill="#FD9993"/>
<path d="M364.744 499.283C364.744 503.746 364.745 508.21 364.842 512.674C364.891 514.094 364.402 514.551 363.033 514.551C352.908 514.5 342.783 514.449 332.609 514.601C330.799 514.601 330.897 513.688 330.848 512.471C331.288 508.616 331.679 504.812 332.12 500.957C332.217 499.891 332.462 499.181 333.88 499.181C344.152 499.283 354.473 499.283 364.744 499.283Z" fill="#FEFEFE"/>
<path d="M190.125 554.978C189.196 554.42 189.587 553.456 189.587 552.696C189.538 541.13 189.636 529.616 189.538 518.051C189.538 515.971 190.223 515.514 192.033 515.565C196.288 515.717 195.701 515.159 195.701 519.319C195.701 525.152 195.652 530.935 195.604 536.768C193.794 542.855 191.984 548.891 190.125 554.978Z" fill="#FEFEFE"/>
<path d="M189.978 590.08C189.832 589.674 189.587 589.319 189.587 588.913C189.587 578.311 189.685 567.71 189.685 557.109C191.641 557.109 193.549 557.109 195.505 557.058C196.288 557.87 196.288 558.884 196.288 559.898C196.288 565.529 196.239 571.159 196.337 576.79C196.337 578.007 195.799 579.072 195.848 580.239C193.891 583.536 191.935 586.833 189.978 590.08Z" fill="#FDFDFD"/>
<path d="M273.179 492.536C271.858 488.326 271.907 483.913 271.32 479.601C270.147 470.522 269.119 461.442 268.043 452.362C266.967 443.333 265.989 434.355 264.913 425.326C264.424 421.217 263.886 417.159 263.397 413.101C263.592 412.391 262.957 411.174 264.179 411.072C265.304 410.971 265.255 412.087 265.353 412.899C267.848 434.203 270.293 455.507 272.788 476.812C273.326 481.326 273.864 485.841 274.402 490.355C274.598 491.42 274.989 492.638 273.179 492.536Z" fill="#FDFDFD"/>
<path d="M201.571 570.754C200.152 573.138 198.685 575.572 197.267 577.957C196.337 577.297 196.337 576.232 196.337 575.268C196.337 570.043 196.337 564.87 196.337 559.645C196.337 558.681 196.386 557.768 197.12 557.109C201.326 557.058 205.484 557.058 209.69 557.007C206.951 561.623 204.261 566.188 201.571 570.754Z" fill="#FCFDFD"/>
<path d="M202.353 514.449C197.022 514.652 197.022 514.652 197.022 509.123C197.022 505.877 197.022 502.58 197.022 499.333C199.859 499.283 202.696 499.283 205.484 499.181C206.853 499.13 206.902 499.688 206.56 500.804C205.141 505.37 203.772 509.884 202.353 514.449Z" fill="#FEFEFE"/>
<path d="M236.641 333.92C237.571 329.456 238.5 325.094 239.429 320.783C240.603 315.254 241.728 309.775 242.853 304.246C243 303.435 243 302.319 244.125 302.522C245.299 302.725 244.81 303.79 244.663 304.601C242.755 313.833 240.897 323.065 238.94 332.246C238.647 333.565 238.793 334.681 239.185 335.899C240.995 341.123 242.755 346.348 244.516 351.623C244.81 352.435 245.543 353.551 244.321 354.007C243.098 354.464 243.049 353.043 242.804 352.232C240.946 346.855 239.087 341.478 237.228 336.101C237.033 335.29 236.837 334.58 236.641 333.92Z" fill="#FCFCFD"/>
<path d="M372.473 499.384C372.473 503.696 372.375 507.957 372.473 512.268C372.522 513.993 372.082 514.601 370.321 514.551C366.065 514.5 366.065 514.601 366.065 510.188C366.065 506.587 366.065 502.935 366.114 499.333C368.217 499.181 370.37 499.08 372.473 499.384Z" fill="#FDFDFE"/>
<path d="M195.653 499.283C195.653 503.696 195.604 508.058 195.75 512.471C195.799 514.246 195.114 514.601 193.598 514.551C188.707 514.399 189.636 515.109 189.538 510.442C189.489 506.739 189.587 503.036 189.587 499.283C191.642 499.283 193.647 499.283 195.653 499.283Z" fill="#FEFEFE"/>
<path d="M197.413 531.087C196.532 528.196 197.217 525.254 197.022 522.362C196.973 521.855 197.022 521.348 197.022 520.841C197.022 515.667 197.022 515.667 201.864 515.565C200.788 520.891 198.734 525.862 197.413 531.087Z" fill="#FBFCFC"/>
<path d="M252.685 399.101C251.756 399 251.658 398.087 251.413 397.428C249.799 392.862 248.234 388.246 246.669 383.63C246.375 382.819 245.739 381.703 246.962 381.297C248.087 380.891 248.136 382.159 248.381 382.869C249.701 386.725 251.022 390.63 252.391 394.536C252.783 395.5 253.125 396.514 253.516 397.478C253.859 398.341 253.516 398.848 252.685 399.101Z" fill="#050303"/>
<path d="M243.244 419.696C241.435 414.572 239.625 409.449 237.864 404.275C237.619 403.515 237.081 402.5 238.059 402.094C239.136 401.638 239.331 402.804 239.576 403.565C241.337 408.79 243.098 414.014 244.859 419.239C244.37 419.594 243.831 419.797 243.244 419.696Z" fill="#060403"/>
<path d="M249.212 417.768C246.913 412.594 245.446 407.116 243.489 401.79C243.245 401.13 242.902 400.217 243.978 399.913C244.859 399.659 245.055 400.471 245.25 401.08C246.962 406.152 248.674 411.174 250.386 416.246C250.337 417.058 250.19 417.768 249.212 417.768Z" fill="#060303"/>
<path d="M197.119 557.109C197.022 564.058 196.777 571.007 197.266 577.956C196.777 578.717 196.337 579.478 195.848 580.239C195.799 573.493 195.799 566.797 195.75 560.101C195.75 559.087 195.603 558.123 195.554 557.109C196.043 557.109 196.581 557.109 197.119 557.109Z" fill="#5881AD"/>
<path d="M701.609 600.58C701.609 595.203 701.658 589.775 701.56 584.399C701.56 582.826 701.951 582.167 703.614 582.217C707.283 582.319 710.951 582.319 714.571 582.217C716.087 582.167 716.723 582.572 716.723 584.297C716.674 595.152 716.674 606.058 716.723 616.913C716.723 618.486 716.38 619.145 714.717 619.094C711.049 618.993 707.38 618.993 703.761 619.094C702 619.145 701.56 618.435 701.609 616.761C701.658 611.333 701.609 605.957 701.609 600.58Z" fill="#FEFEFE"/>
<path d="M573.407 600.833C573.407 606.21 573.359 611.638 573.456 617.015C573.456 618.486 573.114 619.094 571.549 619.043C567.831 618.942 564.065 618.942 560.348 619.043C558.929 619.094 558.342 618.739 558.342 617.065C558.391 606.109 558.391 595.152 558.342 584.196C558.342 582.674 558.783 582.116 560.25 582.167C563.967 582.268 567.734 582.268 571.451 582.167C573.163 582.116 573.456 582.877 573.407 584.399C573.359 589.877 573.407 595.355 573.407 600.833Z" fill="#FEFEFE"/>
<path d="M227.054 101.399C213.212 101.399 199.37 101.348 185.527 101.449C183.62 101.449 182.837 101.094 182.935 98.8623C183.082 92.7754 183.033 86.6884 182.935 80.6522C182.886 78.7246 183.473 78.2174 185.283 78.2174C213.114 78.2681 240.946 78.2681 268.777 78.2174C270.44 78.2174 271.027 78.6739 271.027 80.5C270.929 86.7391 270.929 92.9783 271.027 99.2174C271.076 101.094 270.391 101.399 268.777 101.399C254.886 101.348 240.946 101.399 227.054 101.399Z" fill="#FEFEFE"/>
<path d="M332.217 101.399C318.375 101.399 304.532 101.348 290.69 101.449C288.782 101.449 288.195 100.993 288.244 98.9638C288.391 92.8768 288.342 86.7899 288.244 80.7536C288.195 78.9276 288.636 78.2681 290.543 78.2681C318.326 78.3189 346.06 78.3189 373.842 78.2681C375.701 78.2681 376.19 78.8261 376.141 80.7029C376.043 86.7899 376.043 92.8768 376.141 98.913C376.19 100.841 375.701 101.449 373.744 101.449C359.902 101.348 346.06 101.399 332.217 101.399Z" fill="#FEFEFE"/>
<path d="M366.114 601.594C366.114 600.833 366.114 600.072 366.114 599.362C366.114 572.427 366.163 545.493 366.065 518.558C366.065 515.971 366.848 515.413 369.098 515.565C371.005 515.717 372.571 515.312 372.522 518.406C372.375 543.667 372.424 568.877 372.473 594.138C372.473 595.761 372.082 596.725 370.614 597.485C368.853 598.399 367.581 599.971 366.114 601.594Z" fill="#FEFEFE"/>
<path d="M376.728 596.978C382.745 596.978 387.343 601.797 387.294 608.087C387.245 614.225 382.696 618.942 376.777 618.942C370.712 618.942 366.114 614.225 366.114 607.985C366.114 601.746 370.712 596.978 376.728 596.978Z" fill="#FEFEFE"/>
<path d="M388.272 327.529C360.538 315.964 343.81 295.015 340.337 264.174C335.837 224.203 360.88 188.746 398.984 180.783C441.489 171.906 479.201 201.935 486 242.21C488.152 254.841 487.321 267.217 483.554 279.442C483.261 280.304 482.919 281.167 482.576 282.029C481.451 282.587 480.522 281.928 479.592 281.471C474.897 279.087 470.005 278.022 464.772 278.072C456.408 278.174 448.044 277.971 439.728 278.529C438.701 278.225 437.674 278.58 436.647 278.63C434.201 278.326 431.658 279.087 429.261 278.022C428.478 277.109 428.576 275.993 428.576 274.928C428.527 269.399 428.625 263.819 428.527 258.29C428.478 256.007 429.114 254.384 431.315 253.623C432.245 253.319 433.027 252.71 433.761 252C436.402 249.565 436.5 246.217 434.054 243.58C433.419 242.92 432.685 242.362 432.098 241.652C431.364 240.638 431.462 239.42 431.511 238.254C431.658 235.058 431.169 231.862 430.826 228.667C429.946 220.652 422.413 214.87 414.636 216.442C411.408 217.101 409.304 216.442 407.299 213.855C404.364 210.101 400.304 208.225 395.756 208.275C388.272 208.326 383.772 217.051 387.147 224.507C387.832 226.029 388.859 227.348 389.592 228.87C389.788 229.732 390.375 229.986 391.158 230.188C391.696 230.341 392.332 230.493 392.136 231.304C391.402 231.964 390.473 231.862 389.592 231.862C386.56 231.913 384.506 233.536 383.527 236.428C382.5 239.319 382.598 242.159 384.75 244.696C385.875 246.015 387.636 246.572 388.565 248.094C389.006 249.616 389.152 251.239 389.446 252.812C390.424 258.341 393.603 262.043 398.593 264.022C401.429 265.138 404.364 265.645 407.397 266C410.038 266.304 410.429 266.659 410.429 269.5C410.381 272.239 410.87 275.029 410.038 277.768C409.696 278.275 409.207 278.377 408.669 278.377C407.641 278.123 406.761 278.732 405.734 278.681C402.408 278.529 399.033 278.681 395.707 278.63C389.005 280 386.902 283.348 387.343 290.449C387.881 299.174 388.614 307.899 389.006 316.674C389.152 319.717 389.641 322.71 389.446 325.754C389.299 326.413 389.886 327.681 388.272 327.529Z" fill="#202B6D"/>
<path d="M544.744 316.014C528.848 302.775 519.456 285.681 516.815 264.732C511.826 225.065 539.119 187.072 577.272 180.428C617.869 173.377 655.581 200.616 662.625 242.768C666.685 266.812 660.326 288.167 645.016 306.681C644.821 306.935 644.527 307.138 644.283 307.341C643.353 307.138 643.549 306.326 643.598 305.717C643.696 302.928 643.549 300.188 643.94 297.399C645.212 288.065 639.929 279.493 630.636 275.688C627.897 274.572 625.06 273.913 622.076 273.964C617.38 274.014 612.636 274.116 607.94 273.913C607.06 273.71 606.13 273.609 605.25 273.862C603.489 273.964 601.63 274.522 600.114 272.949C599.332 270.971 599.674 268.79 599.234 266.761C599.576 266.355 600.065 266.254 600.554 266.304C605.739 266.913 610.973 266.152 616.158 266.761C617.429 266.913 618.603 266.659 619.435 265.543C620.315 264.275 619.777 263.109 619.092 262.043C614.348 254.435 612.978 245.964 612.783 237.138C612.685 233.384 612.098 229.732 611.12 226.13C609.065 218.42 604.516 214.565 596.886 213.703C592.141 213.196 587.348 212.942 582.554 212.283C576.88 211.522 571.353 212.942 566.462 216.188C563.283 218.268 561.62 221.21 561.815 225.319C562.011 228.717 561.522 229.022 558.196 228.819C557.511 228.768 556.63 228.21 556.141 228.971C555.701 229.732 556.484 230.391 556.875 231C558.391 233.485 559.712 236.123 561.766 238.254C562.793 239.319 564.603 239.268 565.239 240.841C563.772 249.971 567.88 256.87 575.658 259.558C577.663 260.268 579.717 260.775 581.821 261.08C583.826 261.384 584.951 262.449 584.804 264.63C584.609 267.42 585.489 270.362 584.168 273.101C582.359 274.014 580.304 273.355 578.397 273.964C576.587 274.167 574.777 274.217 573.016 273.71C572.478 273.609 571.94 273.609 571.451 273.659C569.788 274.167 568.076 274.014 566.364 274.065C557.658 274.116 550.369 280.761 549.147 289.79C548.119 297.551 546.652 305.21 546.065 313.022C546.016 314.087 545.772 315.254 544.744 316.014Z" fill="#202B6D"/>
<path d="M290.935 212.384C290.592 210.203 290.299 208.072 289.859 205.942C289.467 203.862 288.685 201.935 287.364 200.261C283.989 196.051 281.641 195.797 277.484 199.043C270.978 204.167 267.408 210.761 266.87 219.384C266.283 228.312 262.614 235.819 255.766 241.5C247.5 238.812 241.484 233.79 239.821 224.558C238.598 217.659 240.505 211.37 244.223 205.638C245.103 204.268 245.348 203.406 244.076 202.036C242.462 200.312 241.679 198.029 241.533 195.594C241.141 188.341 240.701 181.087 240.505 173.833C240.31 166.833 245.25 161.101 251.804 160.239C260.217 159.174 266.576 163.13 268.092 170.536C268.582 172.971 268.582 175.558 268.679 178.094C268.924 182.71 269.217 187.377 269.266 191.993C269.315 193.92 269.658 194.326 271.565 193.971C277.924 192.804 284.038 193.92 289.663 197.217C292.891 199.094 294.946 201.833 295.19 205.891C295.484 209.848 294.652 211.116 290.935 212.384Z" fill="black"/>
<path d="M600.261 273.051C602.022 273.051 603.782 273.101 605.543 273.101C606.522 273.913 606.375 275.08 606.375 276.145C606.424 285.072 606.375 294.051 606.424 302.978C606.424 305.159 605.886 306.63 603.587 307.239C600.946 308 599.723 310.029 599.576 312.92C599.087 321.493 602.755 322.304 610.092 321.341C610.826 321.239 611.462 320.783 612 320.275C615.326 317.232 614.103 308.761 609.946 307.341C607.5 306.529 606.864 305.058 606.913 302.674C606.962 293.899 606.913 285.123 606.962 276.348C606.962 275.283 606.815 274.116 607.647 273.203C614.299 273.203 621.049 272.036 627.505 273.862C636.163 276.297 642.717 281.572 644.625 291.21C645.554 296.029 644.136 300.949 644.282 305.819C644.282 306.326 644.331 306.783 644.38 307.29C631.223 322.152 614.837 330.217 595.516 331.942C594.587 329.659 595.223 327.275 595.418 324.993C596.152 315.456 596.886 305.87 597.717 296.333C598.402 288.826 598.5 281.217 599.821 273.761C599.869 273.507 600.016 273.254 600.261 273.051Z" fill="#6DB5DE"/>
<path d="M413.56 358.42C422.12 358.42 430.68 358.42 439.19 358.42C446.772 358.42 452.544 364.051 452.592 371.457C452.69 378.964 446.821 384.696 439.141 384.696C421.728 384.696 404.266 384.746 386.853 384.696C380.739 384.696 375.457 380.08 374.429 374.196C373.304 367.551 376.631 361.515 382.598 359.232C384.163 358.623 385.728 358.42 387.391 358.42C396.147 358.42 404.853 358.42 413.56 358.42Z" fill="#459257"/>
<path d="M590.283 358.42C598.842 358.42 607.402 358.42 615.962 358.42C623.593 358.42 629.218 364 629.218 371.558C629.218 379.116 623.642 384.696 616.011 384.696C598.647 384.696 581.332 384.696 563.967 384.696C556.581 384.696 550.957 378.964 550.957 371.558C550.957 364.152 556.581 358.42 563.967 358.42C572.674 358.42 581.478 358.42 590.283 358.42Z" fill="#459257"/>
<path d="M438.995 277.819C449.804 277.312 460.614 276.754 471.375 277.768C475.386 278.174 478.956 280.203 482.527 281.978C480.326 289.232 476.658 295.674 472.304 301.659C464.527 312.413 454.647 320.377 442.81 325.804C442.614 325.906 442.321 325.906 442.125 325.957C441.734 325.754 441.489 325.399 441.44 324.993C440.902 320.783 439.924 316.623 440.315 312.312C440.56 311.957 440.902 311.754 441.245 311.551C445.5 309.167 446.967 303.891 444.522 299.529C443.641 297.957 442.272 297.145 440.609 296.79C439.386 296.536 438.408 295.978 438.408 294.558C438.261 289.333 438.212 284.109 438.457 278.935C438.457 278.478 438.652 278.123 438.995 277.819Z" fill="#6DB5DE"/>
<path d="M440.462 312.362C441 316.877 441.538 321.442 442.076 325.956C435.082 329.456 427.549 330.978 419.87 331.891C418.402 332.043 418.842 330.927 418.842 330.217C418.794 326.514 418.842 322.812 418.793 319.109C418.793 318.297 419.038 317.435 418.5 316.674C417.913 316.319 417.669 315.659 417.375 315.051C416.103 312.159 413.902 310.79 410.87 310.536C407.788 310.283 407.397 309.826 407.397 306.681C407.348 298.007 407.348 289.384 407.397 280.71C407.397 279.696 407.299 278.681 408.13 277.87C408.62 277.819 409.158 277.819 409.647 277.768C410.38 277.109 411.261 277.007 412.141 277.007C416.984 276.956 421.777 276.956 426.62 277.007C427.5 277.007 428.38 277.058 429.114 277.768C431.755 278.174 434.495 277.312 437.087 278.326C437.625 278.935 437.674 279.696 437.674 280.456C437.723 284.92 437.723 289.384 437.674 293.797C437.674 295.42 436.94 296.333 435.424 296.942C430.973 298.667 429.212 305.058 431.951 309.116C433.027 310.739 434.592 311.5 436.5 311.551C437.919 311.551 439.386 311.094 440.462 312.362Z" fill="black"/>
<path d="M600.261 273C598.647 292.63 597.033 312.312 595.419 331.942C592.043 331.942 588.669 331.891 585.294 332.043C583.679 332.094 583.386 331.333 583.582 330.014C582.701 328.949 582.946 327.63 582.946 326.362C582.897 319.464 582.946 312.565 582.946 305.667C582.946 298.667 581.332 296.739 574.679 295.725C574.288 295.674 573.897 295.572 573.505 295.319C571.989 292.884 572.429 290.145 572.967 287.761C573.995 283.246 575.804 278.986 577.223 274.572C577.418 274.014 577.908 273.609 578.299 273.203C580.158 272.341 582.163 273 584.071 272.746C589.549 272.341 594.929 271.986 600.261 273Z" fill="black"/>
<path d="M544.745 316.014C545.527 310.638 546.261 305.21 547.044 299.833C547.582 295.928 548.071 291.971 548.707 288.065C549.978 280.507 557.266 273.812 564.701 273.203C566.951 273 569.25 273 571.5 272.899C572.234 273.609 572.185 274.572 572.185 275.486C572.185 281.065 572.234 286.645 572.185 292.225C572.185 295.116 571.744 295.522 568.956 295.826C564.016 296.384 561.571 299.174 561.473 304.348C561.424 309.674 561.522 315 561.424 320.326C561.424 321.391 561.571 322.558 560.788 323.471C560.886 325.348 560.299 325.804 558.538 324.891C553.647 322.406 549.049 319.464 544.745 316.014Z" fill="#6DB5DE"/>
<path d="M505.907 443.333C557.706 443.333 609.505 443.333 661.304 443.384C662.429 443.384 664.532 442.522 664.483 444.348C664.434 446.123 662.331 445.261 661.206 445.261C557.755 445.312 454.353 445.312 350.902 445.261C349.728 445.261 347.625 446.022 347.625 444.399C347.625 442.37 349.826 443.384 351 443.384C402.652 443.333 454.304 443.333 505.907 443.333Z" fill="#0C0C0C"/>
<path d="M581.576 331.435C575.364 331.13 569.495 329.254 563.674 327.072C562.598 326.667 562.647 325.957 562.647 325.145C562.647 322.862 562.598 320.58 562.598 318.348C562.451 318.094 562.402 317.841 562.451 317.587C564.456 310.891 567.196 304.449 569.397 297.855C569.592 297.297 569.935 296.841 570.522 296.587C571.011 296.384 571.451 296.384 571.94 296.333C579.179 295.623 582.946 298.362 582.603 306.58C582.261 313.681 582.554 320.833 582.506 327.985C582.457 329.203 582.701 330.522 581.576 331.435Z" fill="black"/>
<path d="M395.413 277.819C398.299 277.819 401.185 277.819 404.071 277.819C404.853 277.819 405.685 277.565 406.321 278.275C407.103 279.188 407.005 280.304 407.005 281.42C407.005 289.79 407.054 298.109 407.005 306.478C407.005 309.826 406.663 310.181 403.435 310.587C399.228 311.094 396.734 313.985 396.734 318.398C396.734 321.29 396.734 324.13 396.734 327.022C396.734 328.087 396.88 329.254 395.853 330.014C395.511 329.862 395.217 329.71 394.875 329.609C394.141 328.594 394.239 327.377 394.239 326.21C394.239 315.254 394.141 304.348 394.288 293.391C394.337 289.029 394.826 284.667 394.777 280.304C394.728 279.341 394.826 278.478 395.413 277.819Z" fill="black"/>
<path d="M395.413 277.819C395.217 295.065 395.022 312.261 394.826 329.507C392.527 329.254 390.375 328.341 388.223 327.529C389.25 325.196 388.565 322.812 388.419 320.478C387.88 310.79 387.196 301.152 386.56 291.514C386.462 289.942 386.12 288.319 386.315 286.746C387 281.522 389.886 278.732 395.413 277.819Z" fill="#6DB5DE"/>
<path d="M416.935 331.993C411.163 332.348 405.391 331.891 399.668 330.826C398.25 330.572 397.614 330.065 397.663 328.442C397.81 324.384 397.761 320.326 397.81 316.319C397.712 313.884 399.13 311.906 401.918 311.348C405.44 310.638 409.109 310.638 412.581 311.297C415.467 311.855 417.179 314.341 417.473 317.283C417.913 321.645 417.668 326.058 417.57 330.42C417.619 331.029 417.375 331.587 416.935 331.993Z" fill="black"/>
<path d="M562.696 317.841C562.647 317.993 562.598 318.196 562.598 318.348C561.571 320.833 562.598 323.42 562.011 326.058C560.69 325.601 561.668 324.029 560.837 323.42C560.837 316.572 560.69 309.775 560.788 302.928C560.837 298.464 564.261 294.964 568.761 295.116C571.109 295.167 571.5 294.304 571.451 292.123C571.353 285.732 571.5 279.29 571.5 272.899C571.989 272.645 572.429 272.594 572.918 272.899C573.799 274.065 573.652 275.435 573.701 276.754C574.092 282.841 572.723 288.826 573.261 294.913C574.239 294.964 575.217 295.014 576.147 295.065C580.304 295.319 583.63 298.616 583.63 302.826C583.679 311.906 583.63 320.935 583.581 330.014C582.946 330.522 583.337 332.703 581.527 331.485C582.016 321.848 581.772 312.159 581.674 302.522C581.625 299.58 579.081 297.246 576.245 297.094C574.239 296.993 572.185 297.145 570.179 297.196C569.886 297.348 570.277 297.196 569.984 297.297C563.429 299.884 563.429 299.884 563.429 307.341C563.38 310.79 563.625 314.391 562.696 317.841Z" fill="#FCFDFD"/>
<path d="M590.283 413.355C602.56 413.355 614.837 413.355 627.163 413.355C627.75 413.355 628.288 413.355 628.875 413.355C629.462 413.406 630.049 413.456 630.098 414.268C630.147 415.283 629.364 415.232 628.777 415.333C628.288 415.384 627.799 415.333 627.31 415.333C602.511 415.333 577.663 415.333 552.864 415.333C552.62 415.333 552.375 415.384 552.131 415.333C551.348 415.181 550.027 415.688 550.076 414.319C550.125 413 551.446 413.406 552.228 413.406C564.897 413.355 577.614 413.355 590.283 413.355Z" fill="#0D0D0D"/>
<path d="M413.315 415.333C401.038 415.333 388.712 415.333 376.435 415.333C375.701 415.333 374.968 415.333 374.234 415.283C373.794 415.232 373.451 415.029 373.402 414.522C373.353 413.964 373.598 413.507 374.185 413.456C374.821 413.406 375.506 413.355 376.141 413.355C400.989 413.355 425.837 413.355 450.685 413.355C451.174 413.355 451.663 413.355 452.152 413.355C452.837 413.355 453.571 413.558 453.473 414.471C453.424 415.181 452.788 415.333 452.152 415.333C451.516 415.333 450.832 415.333 450.196 415.333C437.919 415.333 425.641 415.333 413.315 415.333Z" fill="#0E0E0E"/>
<path d="M416.935 331.993C416.935 327.529 416.984 323.065 416.935 318.601C416.886 314.036 414.587 311.703 410.136 311.652C408.277 311.652 406.418 311.703 404.511 311.652C401.136 311.5 398.935 313.022 397.81 316.319C396.831 319.362 397.565 322.457 397.37 325.5C397.272 326.565 397.272 327.681 397.37 328.797C397.516 330.37 396.734 330.167 395.755 329.964C395.804 326.058 395.804 322.203 395.853 318.297C395.902 313.072 399.033 309.623 404.022 309.775C406.125 309.826 406.321 308.964 406.321 307.188C406.272 297.551 406.272 287.964 406.272 278.326C406.761 277.717 407.397 277.464 408.13 277.87C408.13 287.71 408.228 297.551 408.13 307.442C408.13 309.319 408.571 309.826 410.38 309.826C414.978 309.775 417.864 312.362 418.5 316.725C418.451 321.138 418.402 325.551 418.353 329.964C418.402 330.978 418.647 332.196 416.935 331.993Z" fill="#FBFBFB"/>
<path d="M413.315 405.188C408.033 405.188 402.75 405.188 397.468 405.188C396.636 405.188 395.364 405.645 395.315 404.326C395.266 403.007 396.538 403.261 397.37 403.261C408.082 403.261 418.842 403.261 429.554 403.261C430.386 403.261 431.658 402.956 431.609 404.326C431.511 405.645 430.239 405.188 429.456 405.188C424.027 405.188 418.647 405.188 413.315 405.188Z" fill="#0F0F0F"/>
<path d="M589.843 405.188C584.56 405.188 579.277 405.188 573.946 405.188C573.163 405.188 571.891 405.645 571.94 404.174C571.989 402.957 573.114 403.261 573.848 403.261C584.609 403.261 595.321 403.261 606.082 403.261C606.913 403.261 608.136 402.957 608.136 404.377C608.087 405.594 606.913 405.239 606.18 405.239C600.75 405.188 595.321 405.188 589.843 405.188Z" fill="#0F0F0F"/>
<path d="M644.429 157.703C640.859 157.703 637.288 157.703 633.668 157.703C632.886 157.703 631.614 158.159 631.614 156.688C631.663 155.522 632.739 155.725 633.522 155.725C640.761 155.725 648 155.725 655.239 155.725C656.022 155.725 657.147 155.522 657.147 156.688C657.147 158.109 655.924 157.703 655.092 157.703C651.571 157.703 648 157.703 644.429 157.703Z" fill="#040404"/>
<path d="M570.228 157.703C566.56 157.703 562.891 157.703 559.223 157.703C558.489 157.703 557.56 157.855 557.511 156.841C557.462 155.623 558.44 155.725 559.272 155.725C566.609 155.725 573.897 155.725 581.234 155.725C582.016 155.725 583.092 155.572 583.092 156.79C583.092 158.058 581.967 157.703 581.185 157.703C577.565 157.703 573.897 157.703 570.228 157.703Z" fill="#040404"/>
<path d="M606.668 157.703C603 157.703 599.38 157.703 595.712 157.703C594.929 157.703 593.902 157.957 593.951 156.638C594 155.572 594.929 155.725 595.663 155.725C602.951 155.725 610.288 155.725 617.576 155.725C618.359 155.725 619.435 155.471 619.435 156.688C619.484 158.007 618.358 157.703 617.625 157.703C614.005 157.703 610.337 157.703 606.668 157.703Z" fill="#050505"/>
<path d="M291.326 217.812C290.103 218.268 288.88 218.268 288.685 216.746C288.489 215.225 289.663 214.819 290.935 214.971C291.766 215.833 291.962 216.746 291.326 217.812Z" fill="#120D0D"/>
<path d="M637.435 572.275C616.989 572.275 596.544 572.225 576.098 572.326C573.995 572.326 573.359 571.87 573.359 569.536C573.457 547.167 573.457 524.746 573.359 502.377C573.359 500.043 574.044 499.638 576.098 499.638C617.087 499.688 658.076 499.688 699.016 499.638C701.022 499.638 701.609 500.145 701.609 502.275C701.511 524.746 701.511 547.217 701.609 569.688C701.609 571.87 700.973 572.326 699.016 572.326C678.522 572.275 657.978 572.275 637.435 572.275Z" fill="#5882AE"/>
<path d="M275.234 216.848C275.185 218.014 274.696 218.572 273.718 218.623C272.886 218.623 272.299 218.217 272.25 217.304C272.152 216.29 272.641 215.63 273.571 215.529C274.549 215.377 274.989 216.087 275.234 216.848Z" fill="#0D0807"/>
<path d="M429.163 277.768C422.658 277.768 416.201 277.768 409.696 277.768C409.696 274.725 409.598 271.681 409.696 268.688C409.745 267.167 409.353 266.659 407.837 266.609C404.315 266.507 400.891 265.797 397.663 264.377C390.669 261.333 388.272 255.348 388.223 247.942C388.712 247.283 389.397 247.536 390.033 247.485C392.674 247.435 395.022 246.623 396.636 244.341C397.81 242.667 398.837 243.072 399.913 244.442C401.625 246.623 403.875 247.587 406.565 247.384C410.185 247.08 412.68 244.746 413.609 240.739C414.245 238 412.631 234.246 410.185 232.674C407.201 230.746 403.826 230.949 401.087 233.181C400.891 233.333 400.696 233.485 400.549 233.688C398.25 235.971 398.152 236.022 396 233.739C394.826 232.522 393.065 232.319 392.038 230.899C391.5 230.442 390.815 230.543 390.228 230.594C388.957 230.696 389.054 229.884 389.201 229.022C390.131 228.109 391.304 228.312 392.429 228.413C398.788 229.022 405.196 229.225 411.603 229.275C420.652 229.326 426.962 234.094 432.196 241.145C434.837 242.362 436.598 244.29 436.647 247.435C436.647 250.58 434.886 252.812 432.245 253.725C429.554 254.688 429.065 256.261 429.163 258.899C429.261 265.29 429.163 271.529 429.163 277.768Z" fill="#FD9993"/>
<path d="M432.147 241.246C430.582 240.536 429.75 238.964 428.576 237.848C423.293 232.725 417.326 229.681 409.794 229.833C402.897 229.985 396 229.377 389.152 229.123C385.777 224.812 384.261 220.094 386.169 214.565C387.978 209.391 392.43 206.804 397.712 207.667C402.603 208.478 406.321 211.065 409.255 214.971C410.185 216.188 410.87 216.341 412.288 216.036C419.772 214.413 425.984 216.848 429.603 222.681C430.875 224.71 431.511 226.993 431.609 229.377C431.902 233.333 432 237.29 432.147 241.246Z" fill="black"/>
<path d="M392.038 231C394.826 231.457 396.685 233.181 398.201 235.819C400.06 232.725 402.554 230.797 406.076 230.797C408.375 230.797 410.38 231.71 411.995 233.384C415.467 236.986 415.125 242.92 411.359 246.167C407.299 249.667 402.163 248.551 398.25 243.275C396 247.333 392.576 248.754 388.272 247.993C382.451 244.949 380.641 240.283 383.381 235.109C384.75 232.572 386.756 231.101 389.641 231.152C390.424 231.101 391.207 231.051 392.038 231Z" fill="#010101"/>
<path d="M440.462 312.362C438.995 312.362 437.527 312.362 436.109 312.312C433.174 312.159 431.071 310.333 430.484 307.341C430.092 305.362 430.141 303.283 430.386 301.304C430.728 298.413 432.783 296.435 435.766 296.08C436.94 295.928 437.234 295.572 437.185 294.406C437.136 289.029 437.136 283.652 437.087 278.275C437.527 277.362 438.114 277.007 438.946 277.768C438.946 283.094 438.995 288.37 438.995 293.696C438.995 295.116 439.044 295.978 440.853 296.08C443.69 296.333 445.451 298.312 445.892 301.355C446.087 302.775 446.234 304.196 446.136 305.616C445.94 309.674 444.277 311.551 440.462 312.362Z" fill="#FCFCFC"/>
<path d="M564.995 240.688C562.109 239.978 560.25 238 558.831 235.413C557.706 233.384 556.484 231.355 555.212 229.428C554.234 228.007 554.821 227.652 556.141 227.703C557.511 227.754 558.88 228.007 560.25 228.109C560.935 228.159 561.473 228.21 561.277 227.043C560.005 218.928 564.554 215.478 570.864 213.145C575.804 211.319 580.94 210.761 586.174 212.13C589.06 212.891 592.141 212.587 595.125 212.841C605.641 213.652 610.582 218.167 612.538 228.971C613.37 233.486 613.614 238 613.81 242.514C614.152 249.565 616.255 255.855 619.777 261.739C620.56 263.058 621.098 264.225 620.266 265.696C619.435 267.116 618.114 267.623 616.745 267.471C612.049 266.862 607.304 267.319 602.609 267.065C601.581 267.015 600.554 266.862 599.478 266.71C598.451 266.203 598.598 265.138 598.647 264.275C598.891 259.71 598.304 255.297 596.739 250.935C595.174 246.522 595.027 241.754 594.342 236.732C591.897 240.181 588.962 242.312 584.658 241.957C580.158 241.601 578.25 238.203 576.245 234.804C575.071 235.413 574.777 236.58 574.19 237.391C572.478 239.725 570.326 241.196 567.44 241.348C566.56 241.449 565.63 241.601 564.995 240.688Z" fill="black"/>
<path d="M564.994 240.688C570.913 241.855 573.603 237.696 576.147 232.877C578.201 236.985 579.962 240.993 584.902 241.449C589.793 241.906 592.239 238.406 595.027 234.449C595.614 239.623 595.859 244.138 596.788 248.601C597.228 250.833 597.668 253.065 598.842 255.043C599.625 256.312 599.185 257.681 599.282 259C599.429 261.587 599.038 264.225 599.478 266.812C601.141 268.739 599.967 271.022 600.212 273.101V273.051C594.831 272.949 589.451 273.355 584.071 272.848C584.071 269.906 583.973 266.964 584.119 264.022C584.217 262.449 583.581 261.993 582.261 261.841C579.033 261.435 575.902 260.623 572.967 259.152C565.435 255.399 563.821 248.855 564.163 241.652C564.31 241.043 564.603 240.841 564.994 240.688Z" fill="#FD9993"/>
<path d="M607.598 273.203C607.598 283.348 607.647 293.442 607.598 303.587C607.598 305.109 607.598 306.123 609.603 306.377C612.538 306.732 614.348 309.268 614.494 312.413C614.494 312.514 614.494 312.565 614.494 312.667C615.228 323.065 610.337 322.761 603.636 322.406C602.462 322.355 601.435 321.696 600.603 320.884C597.815 317.942 598.549 314.239 599.038 310.841C599.429 308.152 601.582 306.58 604.272 306.326C605.543 306.225 605.69 305.616 605.69 304.551C605.641 294.101 605.592 283.652 605.592 273.203C606.277 272.341 606.962 272.696 607.598 273.203Z" fill="#FDFDFE"/>
<path d="M573.261 294.913C572.527 292.833 573.016 290.652 572.967 288.522C572.918 283.297 572.918 278.123 572.918 272.899C574.728 273 576.538 273.152 578.348 273.254C577.467 276.043 576.685 278.884 575.609 281.623C573.946 285.884 572.869 290.246 573.261 294.913Z" fill="#70B5DC"/>
<path d="M254.201 217.71C254.201 222.681 254.152 227.399 254.25 232.116C254.25 233.536 253.663 233.435 252.783 233.08C252.489 232.978 252.196 232.826 251.902 232.674C247.402 230.899 245.299 228.413 245.446 225.167C245.592 221.87 248.038 219.485 252.489 218.116C252.881 217.964 253.37 217.913 254.201 217.71Z" fill="#FC9993"/>
<path d="M562.696 317.841C562.696 313.377 562.647 308.913 562.647 304.449C562.647 299.072 565.043 296.79 570.179 297.145C567.929 304.145 565.435 311.044 562.696 317.841Z" fill="#6CB5DE"/>
<path d="M637.337 571.21C617.282 571.21 597.277 571.159 577.223 571.261C575.168 571.261 574.435 570.855 574.483 568.522C574.581 546.812 574.581 525.101 574.483 503.391C574.483 501.312 575.021 500.703 577.027 500.703C617.331 500.754 657.685 500.754 697.989 500.703C700.288 500.703 700.582 501.464 700.582 503.544C700.533 525.152 700.533 546.812 700.582 568.42C700.582 570.601 700.141 571.261 697.94 571.261C677.739 571.159 657.538 571.21 637.337 571.21Z" fill="#FEFEFE"/>
<path d="M405.831 232.725C409.353 232.674 412.435 235.717 412.483 239.37C412.581 242.971 409.598 246.217 406.076 246.319C402.603 246.42 399.473 243.326 399.424 239.674C399.375 235.92 402.31 232.775 405.831 232.725Z" fill="#FC9993"/>
<path d="M388.663 233.181C391.353 232.319 393.946 233.08 395.609 235.261C397.272 237.442 397.468 240.384 396.147 242.819C394.826 245.254 392.136 246.623 389.592 246.167C389.103 246.065 388.663 245.913 388.174 245.761C387.147 244.036 387.294 242.261 387.929 240.486C388.516 239.572 390.179 240.638 390.326 239.42C390.522 238.051 388.37 238.964 388.174 237.645C387.929 236.123 387.636 234.551 388.663 233.181Z" fill="#FC9993"/>
<path d="M388.614 240.283C387.88 242.058 388.37 243.935 388.174 245.761C384.946 244.29 383.821 241.652 384.212 238.203C384.554 235.514 386.12 233.841 388.663 233.181C388.663 234.855 388.663 236.529 388.663 238.203C389.005 238.913 388.956 239.623 388.614 240.283Z" fill="#202B6C"/>
<path d="M440.413 310.232C440.071 310.283 439.777 310.384 439.435 310.384C432.929 310.587 431.119 308.507 432.195 301.761C432.538 299.529 433.858 298.159 436.157 298.058C437.185 298.007 438.261 298.109 439.337 298.159C440.853 300.239 440.364 302.775 440.658 305.109C440.804 306.783 441.587 308.558 440.413 310.232Z" fill="#010101"/>
<path d="M440.413 310.232C440.022 306.225 439.679 302.167 439.288 298.159C442.418 298.109 444.081 299.529 444.228 302.623C444.326 304.601 444.619 306.681 443.397 308.457C442.712 309.471 441.88 310.435 440.413 310.232Z" fill="#6EB6DE"/>
<path d="M583.826 229.275C578.446 229.427 573.114 228.667 567.734 228.565C566.266 228.514 565.63 228.413 565.924 226.435C567.342 216.391 574.435 211.014 584.119 212.79C589.304 213.703 594.195 219.435 594.538 224.913C594.782 229.275 594.782 229.275 590.674 229.275C588.375 229.275 586.076 229.275 583.826 229.275Z" fill="#FD9993"/>
<path d="M602.168 251.036C602.168 246.015 602.168 241.196 602.168 236.428C602.168 235.362 602.511 235.109 603.489 235.514C604.076 235.768 604.761 235.87 605.348 236.072C608.772 237.341 611.071 240.029 610.973 242.92C610.826 246.522 608.576 248.449 605.641 249.768C604.663 250.225 603.636 250.529 602.168 251.036Z" fill="#FC9993"/>
<path d="M577.516 231.254C583.386 231.254 589.011 231.254 595.174 231.254C592.043 234.652 590.723 239.674 585.489 239.572C580.549 239.471 579.473 235.007 577.516 231.254Z" fill="#FB9892"/>
<path d="M565.63 230.341C565.826 230.341 566.022 230.341 566.217 230.29C567.098 230.594 568.027 230.239 568.908 230.493C570.815 230.594 572.772 230.746 574.728 230.848C573.163 236.884 569.739 239.471 564.701 238.558C563.918 237.442 563.87 236.326 564.652 235.159C564.799 235.058 564.897 235.007 565.043 234.957C565.581 234.754 566.511 235.058 566.658 234.246C566.853 233.283 565.777 233.333 565.239 232.877C565.141 232.775 564.995 232.674 564.897 232.522C564.554 231.609 564.457 230.746 565.63 230.341Z" fill="#FB9892"/>
<path d="M565.63 230.341C565.239 231.051 565.141 231.862 565.19 232.674C565.435 233.536 565.532 234.399 565.092 235.261C564.407 236.326 564.75 237.493 564.652 238.609C561.179 237.341 560.152 233.739 558.196 231.101C557.462 230.138 558.538 230.087 559.125 230.087C561.277 230.138 563.429 230.239 565.63 230.341Z" fill="#202B6C"/>
<path d="M568.859 230.543C567.929 230.696 567.049 230.696 566.168 230.341C567.098 230.138 568.027 229.985 568.859 230.543Z" fill="#202B6C"/>
<path d="M606.864 320.478C601.728 320.478 600.75 319.565 600.701 314.746C600.701 309.37 601.679 308.152 606.033 308.152C611.511 308.152 612.538 309.116 612.538 314.036C612.587 319.464 611.706 320.478 606.864 320.478Z" fill="#6DB5DE"/>
<path d="M637.728 511.457C631.223 511.457 624.717 511.355 618.212 511.507C615.619 511.558 616.06 509.986 616.011 508.413C616.011 506.79 615.717 505.319 618.212 505.319C631.076 505.42 643.891 505.42 656.755 505.319C658.663 505.319 659.103 505.978 659.005 507.804C658.859 512.065 659.397 511.406 655.484 511.406C649.565 511.457 643.647 511.457 637.728 511.457Z" fill="#5F87B2"/>
<path d="M405.831 237.848C406.908 237.899 407.494 238.507 407.543 239.42C407.592 240.384 407.005 240.993 406.076 241.043C405.147 241.094 404.511 240.486 404.462 239.522C404.413 238.558 405.049 238.051 405.831 237.848Z" fill="#180E0E"/>
<path d="M388.614 240.283C388.272 239.572 388.321 238.913 388.663 238.254C389.543 237.645 390.424 237.442 391.158 238.457C391.549 239.065 391.598 239.674 391.109 240.283C390.277 241.196 389.446 241.043 388.614 240.283Z" fill="#0C0708"/>
<path d="M582.603 236.225C581.625 236.072 581.087 235.514 581.136 234.551C581.136 233.638 581.674 233.13 582.505 233.13C583.435 233.13 584.119 233.587 584.071 234.601C584.071 235.514 583.532 236.123 582.603 236.225Z" fill="#080505"/>
<path d="M565.043 235.21C564.505 234.297 564.603 233.486 565.141 232.623C566.022 232.522 566.951 232.217 567.44 233.333C567.734 233.942 567.734 234.601 567.196 235.159C566.511 235.92 565.777 235.717 565.043 235.21Z" fill="#080505"/>
<path d="M637.826 506.688C643.843 506.688 649.859 506.688 655.875 506.688C657.147 506.688 657.978 506.79 657.978 508.515C657.978 510.29 657.147 510.341 655.875 510.341C643.696 510.29 631.468 510.341 619.288 510.341C618.114 510.341 617.283 510.29 617.283 508.667C617.283 507.043 617.87 506.688 619.288 506.688C625.451 506.739 631.614 506.688 637.826 506.688Z" fill="#FCFDFD"/>
</svg>
