<svg width="900" height="700" viewBox="0 0 900 700" fill="none" xmlns="http://www.w3.org/2000/svg">
<path d="M449.755 699.949C300.571 699.949 151.435 699.949 2.25005 700C0.440265 700 0 699.594 0 697.667C0.048913 465.906 0.048913 234.094 0 2.33334C0 0.456525 0.391352 0 2.25005 0C300.766 0.0507246 599.234 0.0507246 897.75 0C899.56 0 900 0.4058 900 2.33334C899.951 234.094 899.951 465.906 900 697.667C900 699.544 899.609 700 897.75 700C748.419 699.949 599.087 699.949 449.755 699.949Z" fill="#FCFCFC"/>
<path d="M310.5 426.696C311.087 426.341 312.652 427.203 312.163 425.427C309.326 415.536 312.31 406.406 315.489 397.326C318.228 389.565 322.973 382.92 326.739 375.717C331.435 366.638 335.788 357.406 339.701 347.92C344.788 335.493 356.283 327.529 369.245 327.681C380.739 327.833 392.185 328.087 403.679 328.29C403.043 329.862 401.674 329.355 400.598 329.406C397.761 329.609 397.516 329.862 397.272 332.855C395.951 348.58 394.337 364.254 392.625 379.927C391.647 388.804 390.717 397.732 389.592 406.558C389.299 409.043 389.69 409.551 391.94 409.5C396.734 409.398 401.527 410.312 406.321 410.058C407.984 410.312 410.087 409.246 411.114 411.58C410.772 418.123 409.451 424.565 408.717 431.058C408.473 432.985 408.228 434.862 407.935 436.79C407.837 438.21 407.592 439.63 407.348 441C406.908 443.942 406.321 444.398 403.337 444.5C402.701 444.5 402.065 444.5 401.38 444.449C396.832 444.5 392.332 444.551 387.783 444.449C385.777 444.398 384.848 445.21 384.603 447.29C384.261 450.181 383.967 453.123 383.478 456.014C382.598 464.587 381.424 473.109 380.348 481.63C377.364 505.775 374.429 529.87 371.641 554.014C369.391 573.696 367.435 593.427 365.478 613.159C365.332 614.529 365.38 615.848 365.185 617.217C364.696 620.413 364.207 620.92 361.076 620.971C358.973 621.022 356.821 621.022 354.717 620.971C346.255 620.87 337.842 621.275 329.38 620.616C328.158 620.514 326.984 620.312 325.761 620.312C314.706 620.312 303.652 620.261 292.647 620.362C290.592 620.362 290.348 619.754 290.935 617.927C291.668 615.696 292.598 613.514 292.842 611.181C292.5 609.862 293.087 608.696 293.429 607.478C297.44 594.29 301.451 581.101 305.364 567.862C307.908 559.594 310.5 551.377 312.799 543.058C312.946 542.5 313.141 541.993 313.092 541.435C313.044 540.674 312.505 540.471 311.918 540.42C311.038 540.319 310.109 540.369 309.228 540.369C271.81 540.369 234.391 540.369 196.973 540.369C195.457 540.369 193.842 540.725 192.522 539.609C192.473 539.101 192.717 538.848 193.206 538.848C193.94 538.797 194.674 538.848 195.408 538.848C234 538.848 272.641 538.848 311.234 538.848C312.016 538.848 312.848 538.696 313.582 539C313.63 539 313.679 539.152 313.728 539.203C313.728 539.152 313.728 539.051 313.679 538.797C313.092 538.848 312.505 538.848 311.918 538.848C272.984 538.848 234.049 538.848 195.114 538.848C194.185 538.848 193.158 539.355 192.375 538.391C193.207 537.072 194.527 537.377 195.701 537.377C200.495 537.326 205.288 537.377 210.081 537.377C243.098 537.377 276.163 537.377 309.179 537.377C310.011 537.377 310.794 537.326 311.625 537.377C313.777 537.58 314.853 536.565 315.44 534.435C318.082 525.152 321.065 515.92 323.755 506.638C323.951 505.927 324.196 505.167 324.489 504.507C324.685 504.101 324.734 503.696 324.88 503.29C326.495 498.014 328.207 492.79 329.625 487.464C329.674 487.058 329.772 486.703 329.918 486.348C331.728 481.427 333 476.355 334.565 471.333C334.712 470.877 334.908 470.42 335.054 469.913C335.495 468.645 335.886 467.326 336.179 466.007C336.326 465.5 336.473 464.993 336.571 464.485C338.283 458.956 339.995 453.377 341.56 447.797C342.245 445.413 342 445.058 339.652 445.109C334.859 445.261 330.212 444.855 325.81 442.674C324.098 441.862 324.098 443.13 324.098 444.297C324.098 450.13 324.147 455.964 324.049 461.797C324.049 462.964 324.44 464.384 323.12 465.246C321.897 464.485 322.239 463.167 322.19 462.051C322.141 456.065 322.19 450.08 322.141 444.094C322.141 443.029 322.288 441.913 321.848 440.848C318.815 437.703 315.489 434.761 313.288 430.855C312.799 430.297 313.092 428.877 311.723 429.384C311.283 430.601 311.38 431.87 311.38 433.138C311.38 442.522 311.38 451.855 311.38 461.239C311.38 462.558 311.576 463.978 310.745 465.145C308.935 464.79 309.522 463.268 309.473 462.203C309.375 455.355 309.424 448.507 309.424 441.659C309.424 438.464 309.571 435.217 309.375 432.022C309.62 430.094 310.255 428.42 310.5 426.696Z" fill="#6DB5DE"/>
<path d="M329.527 620.768C330.359 620.21 331.288 620.514 332.169 620.514C342.098 620.514 352.027 620.464 362.006 620.565C363.718 620.565 364.353 620.159 364.549 618.283C365.527 607.377 366.555 596.42 367.68 585.514C369.196 571.058 370.81 556.652 372.473 542.246C374.234 526.928 376.093 511.609 378 496.239C379.663 482.848 381.375 469.457 383.038 456.065C384.016 455.051 385.288 455.304 386.511 455.254C391.402 455.152 396.245 455.355 401.136 455.101C413.902 458.957 427.207 459.819 440.218 462.406C442.761 462.913 445.353 463.319 447.946 463.674C451.321 464.13 453.131 462.761 453.913 459.312C454.353 457.384 454.011 455.203 455.723 453.681C456.31 453.377 456.995 453.275 457.631 453.275C463.5 453.58 469.321 452.667 475.19 452.717C480.326 452.768 485.413 452.058 490.549 452.21C497.935 452.413 504.587 457.333 507.033 464.638C507.18 465.297 507.277 466.007 507.473 466.667C507.718 467.884 507.669 469.101 507.962 470.319C508.011 470.725 508.06 471.181 508.011 471.587C507.571 476.507 507.033 481.377 506.739 486.297C506.739 486.754 506.69 487.159 506.641 487.616C506.006 492.739 505.957 497.913 505.321 503.087C505.321 503.543 505.321 504 505.321 504.457C504.93 511.051 504.489 517.645 504.098 524.29C503.853 528.804 503.56 533.319 503.315 537.833C503.266 538.442 503.266 539.051 503.12 539.659C502.68 541.13 502.826 542.601 502.875 544.072C502.728 553.507 501.995 562.942 501.555 572.377C501.359 576.587 501.016 580.797 500.919 585.007C500.87 586.428 500.968 587.899 500.527 589.268C500.381 589.877 500.381 590.486 500.43 591.094C500.234 593.884 501.016 596.826 499.06 599.312C497.935 599.92 496.712 599.819 495.489 599.819C483.799 599.819 472.158 599.819 460.468 599.819C459.245 599.819 458.022 599.92 456.897 599.362C455.723 598.348 455.919 596.978 456.065 595.659C456.212 593.986 456.408 592.362 456.555 590.688C456.603 589.928 456.995 589.217 456.897 588.457C457.337 581.152 458.364 573.899 459.049 566.594C459.783 558.986 460.663 551.377 461.446 543.768C461.495 543.21 461.641 542.703 461.837 542.145C461.935 541.384 461.984 540.623 461.984 539.812C461.984 539.558 461.984 539.254 461.984 539C461.984 538.746 461.984 538.442 462.033 538.188C462.033 537.884 462.082 537.63 462.131 537.326C463.158 527.283 464.332 517.188 465.31 507.145C465.408 506.13 465.603 505.167 465.75 504.152C465.75 503.696 465.799 503.239 465.799 502.833C466.093 500.754 466.19 498.623 466.484 496.543C466.679 495.072 466.141 494.261 464.674 494.261C457.777 494.362 450.832 493.804 443.935 494.565C436.843 494.87 429.799 494.667 422.707 494.717C417.913 494.768 413.12 495.529 408.326 495.225C406.614 495.123 406.174 496.138 405.978 497.71C404.511 510.442 403.093 523.174 401.625 535.957C400.109 549.196 398.641 562.435 397.076 575.674C395.853 585.92 394.826 596.116 393.506 606.362C393.359 607.377 393.31 608.391 392.674 609.203C392.185 612.855 391.598 616.507 391.256 620.21C390.375 628.732 383.234 634.362 375.163 632.384C359.853 628.732 344.69 624.674 329.527 620.768Z" fill="#8F3600"/>
<path d="M626.723 543.362C626.771 551.123 627.505 558.833 627.945 566.594C628.777 581.812 629.706 597.08 630.587 612.297C629.706 613.109 628.63 613.058 627.603 613.058C620.315 613.058 612.978 613.058 605.69 613.058C604.712 613.058 603.733 613.058 602.853 612.5C601.581 610.319 601.679 607.783 601.581 605.399C601.043 593.022 600.31 580.645 599.723 568.268C599.331 560.254 598.793 552.29 598.647 544.275C598.695 543.667 598.744 543.058 598.744 542.5C598.744 541.942 598.744 541.333 598.695 540.775C598.744 539.761 598.304 538.797 598.206 537.783C597.717 527.942 597.375 518.152 596.69 508.362C596.592 507.094 596.641 505.826 596.739 504.558C596.739 504.102 596.739 503.645 596.739 503.189C595.956 498.065 596.396 492.891 595.761 487.768C595.761 487.312 595.761 486.855 595.761 486.449C595.614 481.681 595.174 476.913 595.027 472.145C594.978 471.79 594.88 471.435 594.782 471.08C594.244 470.268 593.755 470.218 593.266 471.131C593.217 471.486 593.266 471.891 593.266 472.247C593.315 476.964 593.364 481.631 593.266 486.348C593.266 486.804 593.266 487.261 593.266 487.718C593.364 492.689 592.532 497.66 592.826 502.631C592.777 503.239 592.777 503.899 592.777 504.507C593.07 515.616 592.728 526.725 592.288 537.783C592.239 538.391 592.337 539 592.239 539.66C592.239 540.573 592.239 541.486 592.239 542.399C592.239 542.855 592.239 543.362 592.288 543.819C591.505 556.957 592.19 570.094 591.456 583.232C591.016 591.551 591.407 599.92 591.358 608.239C591.358 609.66 591.554 611.131 590.723 612.399C589.842 613.109 588.766 613.109 587.69 613.109C580.304 613.16 572.967 613.109 565.581 613.109C564.603 613.109 563.625 613.109 562.744 612.5C561.277 610.015 561.766 607.174 562.06 604.638C562.695 598.855 562.5 593.022 562.744 587.239C563.038 580.544 563.282 573.797 563.478 567.051C563.723 559.29 563.869 551.58 564.407 543.819C564.456 543.362 564.456 542.906 564.456 542.449C564.456 541.536 564.407 540.623 564.456 539.71C564.407 539.102 564.456 538.493 564.505 537.884C565.337 532.203 564.897 526.42 565.239 520.689C565.581 515.312 565.728 509.884 565.924 504.507C565.924 504.051 565.924 503.594 565.924 503.087C565.63 498.725 566.657 494.413 566.413 490.051C566.853 483.406 566.755 476.71 567.195 470.065C567.391 463.978 567.489 457.942 567.88 451.855C568.076 448.812 568.467 448.102 571.304 448.203C583.728 448.609 596.152 448.304 608.576 449.167C612.195 449.42 612.44 449.877 612.098 453.783C611.902 455.761 611.266 457.841 613.125 459.464C613.907 461.138 612.782 462.355 612.146 463.623C610.679 466.565 609.456 469.507 609.945 472.906C610.092 473.971 610.239 475.036 610.826 476C611.462 477.623 610.092 479.5 611.462 481.073C611.804 482.645 611.951 484.218 611.853 485.79C611.657 488.326 612.391 490.406 614.25 492.029C614.739 492.689 615.375 492.942 616.157 492.689C617.038 492.587 617.869 492.638 618.701 492.993C619.483 493.906 620.021 492.739 620.706 492.79C622.076 492.739 623.592 492.131 624.375 493.957C624.668 497 625.059 500.044 625.108 503.138C625.108 503.594 625.108 504.051 625.108 504.507C625.94 514.5 626.136 524.493 627.065 534.486C627.163 535.602 627.163 536.667 627.114 537.783C627.065 538.341 627.114 538.949 627.065 539.507C627.016 540.471 627.407 541.384 627.358 542.348C627.163 542.652 626.967 543.007 626.723 543.362Z" fill="#8F3600"/>
<path d="M613.076 459.971C611.071 459.667 610.337 458.601 611.022 456.573C611.071 456.42 611.071 456.217 611.022 456.065C610.582 454.036 612.636 451.5 610.826 450.181C609.457 449.167 607.06 449.623 605.104 449.573C599.479 449.471 593.854 449.471 588.229 449.37C582.359 449.268 576.538 449.116 570.669 448.913C568.957 448.862 568.468 449.37 568.419 451.145C568.37 456.725 568.076 462.304 567.93 467.833C567.93 468.594 567.93 469.355 567.538 470.065C565.093 470.978 562.843 469.761 560.544 469.406C558.93 469.152 557.12 469.254 555.946 467.681C555.163 466.109 555.848 464.486 556.093 462.964C558.245 448.964 560.348 434.964 562.598 420.964C563.185 417.159 562.843 413.355 563.381 409.551C563.625 407.928 563.625 406.254 564.506 404.783C565.142 396.058 565.631 387.283 566.511 378.558C567.391 369.833 572.087 365.775 580.5 365.725C583.68 365.725 586.859 365.674 589.989 365.623C590.674 365.065 591.457 364.964 592.288 364.964C595.663 364.913 599.038 364.913 602.413 364.964C603.245 364.964 604.027 365.116 604.712 365.623C608.87 365.674 612.978 365.674 617.136 365.725C624.131 365.775 629.022 370.036 630.147 377.138C632.055 389.515 633.962 401.891 635.723 414.319C636.212 417.92 635.136 421.522 634.892 425.123C634.353 426.29 635.332 427.355 635.136 428.471C634.353 437.145 632.984 445.768 632.055 454.442C631.81 456.623 631.517 458.754 631.272 460.935C631.174 461.848 631.174 462.812 630.294 463.42C629.169 463.928 628.044 463.471 626.919 463.319C623.055 462.659 619.239 461.797 615.424 461.036C614.641 460.783 613.712 460.783 613.076 459.971Z" fill="#202B6D"/>
<path d="M462.473 538.239C462.522 538.391 462.522 538.543 462.424 538.696C457.337 539.254 452.299 538.746 448.386 538.899C452.299 539.304 457.386 538.543 462.424 539.152C462.473 539.304 462.473 539.457 462.424 539.609C461.641 540.522 460.516 540.42 459.489 540.42C456.603 540.471 453.668 540.42 450.782 540.471C449.657 540.471 448.435 540.37 448.092 541.942C448.043 542.551 448.19 543.109 448.19 543.667C449.07 556.601 449.853 569.587 450.929 582.522C451.125 584.703 450.929 586.935 451.369 589.065C451.418 589.522 451.418 589.978 451.418 590.435C451.516 594.594 452.005 598.703 452.152 602.812C452.152 603.268 451.956 603.674 451.712 604.08C451.614 609.254 451.614 609.254 446.576 609.254C428.576 609.254 410.576 609.254 392.576 609.304C393.31 602.507 393.945 595.71 394.728 588.964C396.244 575.319 397.859 561.674 399.424 547.978C400.989 534.384 402.554 520.841 404.119 507.246C404.511 503.645 404.951 500.043 405.293 496.442C405.391 495.377 405.391 494.464 406.859 494.464C419.234 494.261 431.608 493.804 443.983 493.957C445.744 496.645 444.864 499.79 445.255 502.681C445.206 503.391 445.402 504.101 445.549 504.761C446.234 514.754 446.967 524.746 447.603 534.739C447.75 536.717 448.484 537.377 450.293 537.377C453.277 537.326 456.31 537.326 459.293 537.377C460.369 537.428 461.543 537.275 462.473 538.239Z" fill="#6DB5DE"/>
<path d="M562.647 612.196C571.941 612.246 581.185 612.246 590.479 612.297C591.31 613.058 591.163 614.123 591.359 615.087C591.897 617.826 591.897 617.826 594.294 616.355C596.299 615.138 598.305 613.819 600.359 612.601C601.093 612.145 601.826 611.435 602.805 612.196C612.098 612.196 621.343 612.246 630.636 612.246C631.614 616.71 631.566 621.275 632.104 625.79C632.446 628.478 632.397 631.217 632.837 633.855C633.229 636.087 632.837 636.848 630.441 636.848C616.843 636.696 603.245 636.797 589.647 636.797C572.136 636.797 554.625 636.797 537.115 636.797C509.576 636.746 482.087 636.696 454.549 636.645C452.837 636.645 452.25 636.543 452.495 634.362C453.669 624.319 454.549 614.225 455.528 604.13C455.332 603.775 455.136 603.42 455.087 603.015C455.185 601.543 454.99 599.971 456.408 598.957C469.174 599.007 481.941 599.007 494.707 599.058C496.174 599.058 497.642 599.058 499.109 599.058C501.75 599.565 503.658 601.543 506.055 602.659C506.886 603.116 507.62 603.674 508.403 604.13C517.207 609.457 526.011 614.681 534.816 620.007C536.332 620.92 537.701 621.935 538.631 623.457C539.511 624.978 540.538 624.877 541.908 624.015C547.533 620.464 553.256 617.015 558.93 613.565C560.055 612.906 561.131 611.841 562.647 612.196Z" fill="black"/>
<path d="M337.304 465.044C337.158 465.399 337.011 465.804 336.815 466.16C335.299 467.326 333.538 466.819 331.826 466.87C329.821 466.971 327.766 466.819 325.712 466.92C324.978 466.971 324.147 466.971 324.098 468.087C324.098 469.102 324.881 469.305 325.614 469.355C327.864 469.558 330.163 469.406 332.462 469.457C333.587 469.507 334.761 469.305 335.739 470.065C335.592 470.471 335.446 470.877 335.299 471.283C334.027 472.348 332.511 472.044 331.044 472.044C307.516 472.044 283.94 472.044 260.413 472.044C226.859 472.044 193.304 472.044 159.75 472.044C159.359 472.044 158.919 472.044 158.527 472.044C154.272 472.044 154.272 472.044 154.272 476.609C154.272 478.638 154.223 480.667 154.272 482.696C154.321 485.283 154.614 485.536 157.158 485.638C158.038 485.689 158.968 485.638 159.848 485.638C215.071 485.638 270.294 485.638 325.516 485.638C327.179 485.638 328.989 485.131 330.408 486.551C330.408 486.906 330.359 487.312 330.359 487.667C328.94 488.58 327.375 488.276 325.81 488.276C283.402 488.276 240.946 488.276 198.538 488.276C192.913 488.276 193.353 487.971 193.304 493.602C193.304 495.377 193.304 497.152 193.304 498.928C193.353 502.123 193.549 502.276 196.679 502.326C197.511 502.326 198.294 502.326 199.125 502.326C239.674 502.326 280.223 502.326 320.772 502.326C322.337 502.326 324.049 501.92 325.467 503.138C325.419 503.544 325.419 503.899 325.37 504.305C323.853 505.167 322.19 504.964 320.576 504.964C279.929 504.964 239.283 504.964 198.636 504.964C192.766 504.964 193.304 504.66 193.304 510.391C193.304 518.355 193.304 526.268 193.304 534.232C193.304 535.551 193.451 536.971 192.571 538.138C193.402 539 194.429 538.594 195.359 538.594C234.147 538.594 272.886 538.594 311.674 538.645C312.554 538.645 313.435 538.391 314.315 538.899C313.435 539.406 312.506 539.152 311.625 539.152C272.935 539.152 234.245 539.152 195.554 539.203C194.527 539.203 193.451 538.797 192.522 539.66C193.598 541.486 195.31 541.435 197.022 541.435C213.946 541.435 230.87 541.435 247.794 541.435C249.163 541.435 250.582 541.232 251.902 541.891C252.489 542.602 252.929 543.261 251.658 543.718C250.924 543.16 250.093 543.413 249.31 543.413C231.212 543.413 213.163 543.464 195.065 543.362C192.913 543.362 192.326 543.92 192.375 546.152C192.522 553.66 192.277 561.218 192.522 568.725C192.62 571.413 191.739 572.225 189.391 571.819C188.658 571.718 187.924 571.819 186.897 571.819C187.728 574.558 188.902 577.044 189.294 579.783C190.761 590.181 183.522 600.783 173.544 602.609C163.516 604.435 154.272 598.957 150.995 589.319C147.718 579.732 151.484 569.435 160.337 564.413C162.294 563.297 162.196 561.826 162.049 560.203C161.853 558.123 162.489 557.413 164.592 557.464C168.408 557.616 172.272 557.464 176.087 557.565C177.457 557.616 177.946 557.21 177.897 555.739C177.799 552.341 177.75 548.993 177.897 545.594C177.995 543.718 177.261 543.413 175.647 543.413C164.348 543.464 153 543.464 141.701 543.464C139.06 543.464 137.886 541.739 138.864 539.203C139.353 537.986 140.381 538.391 141.163 538.391C151.973 538.341 162.832 538.391 173.641 538.391C177.848 538.391 177.848 538.391 177.848 533.978C177.848 519.42 177.799 504.913 177.897 490.355C177.897 488.326 177.457 487.616 175.353 487.667C162.636 487.768 149.919 487.667 137.25 487.768C135.147 487.768 134.364 487.362 134.364 484.877C134.462 449.37 134.462 413.913 134.364 378.406C134.364 376.225 134.853 375.464 137.054 375.515C141.603 375.667 146.201 375.667 150.75 375.515C152.951 375.413 153.44 376.174 153.44 378.355C153.391 407.928 153.44 437.5 153.342 467.073C153.342 469.66 153.978 470.268 156.424 470.268C192.815 470.167 229.256 470.218 265.647 470.218C266.185 470.218 266.723 470.218 267.946 470.218C263.152 466.87 258.946 463.877 254.739 460.935C226.859 441.457 198.929 422.029 171.049 402.551C170.364 402.094 168.946 401.739 169.337 400.725C169.924 399.203 170.951 397.783 172.125 396.616C172.663 396.109 173.495 397.174 174.179 397.58C186.799 406.355 199.468 415.181 212.087 424.007C212.429 424.261 212.772 424.413 213.114 424.616C215.511 425.681 217.468 427.406 219.522 428.978C220.256 429.587 221.087 429.942 221.625 430.449C221.136 430.145 220.598 429.536 219.913 429.283C218.006 427.304 215.315 426.391 213.603 424.109C199.468 413.406 185.381 402.652 171.196 392C169.19 390.529 169.239 389.718 170.756 387.891C181.957 374.5 193.06 361.007 204.065 347.464C205.582 345.638 206.511 345.333 208.516 346.957C224.022 359.283 239.625 371.457 255.228 383.681C255.718 384.087 256.256 384.391 256.794 384.797C257.429 383.986 257.136 383.225 257.136 382.515C257.136 336.964 257.136 291.413 257.234 245.862C257.234 243.377 256.402 243.022 254.348 243.073C226.908 243.123 199.419 243.073 171.978 243.174C169.582 243.174 169.044 242.413 169.044 240.029C169.19 230.899 169.093 221.768 169.093 212.638C169.093 208.58 168.554 209.087 172.419 209.087C221.283 209.087 270.196 209.087 319.06 209.087C327.473 209.087 335.837 209.138 344.25 209.036C346.109 209.036 346.598 209.544 346.549 211.471C346.451 221.109 346.451 230.747 346.549 240.384C346.598 242.718 345.815 243.174 343.761 243.174C316.223 243.123 288.685 243.174 261.147 243.073C258.848 243.073 258.359 243.783 258.408 246.015C258.457 291.92 258.457 337.826 258.408 383.681C258.408 385.457 258.848 386.573 260.266 387.689C276.603 400.42 292.891 413.203 309.179 425.986C309.571 426.29 310.011 426.544 310.402 426.797C310.891 427.507 311.821 426.848 312.506 427.66C310.842 427.507 310.304 428.218 310.353 429.79C310.402 441 310.402 452.16 310.402 463.37C310.402 464.029 310.207 464.739 310.94 465.145C312.31 464.029 312.065 462.406 312.065 460.935C312.114 451.297 312.065 441.71 312.114 432.073C312.114 430.754 311.919 429.333 312.897 428.218C313.679 428.928 313.826 429.891 313.973 430.906C314.609 432.326 314.658 433.848 314.658 435.37C314.658 445.413 314.658 455.457 314.658 465.449C314.658 469.254 316.565 470.573 320.136 469.406C321.554 468.949 321.359 467.783 321.408 466.718C321.457 460.732 321.408 454.747 321.457 448.761C321.457 446.732 321.408 444.703 321.457 442.674C321.506 441.66 321.408 440.645 322.288 439.884C323.413 440.493 323.169 441.609 323.169 442.573C323.169 449.218 323.169 455.913 323.218 462.558C323.218 463.42 322.777 464.435 323.756 465.094C324.391 464.486 325.223 464.435 326.054 464.435C329.087 464.384 332.071 464.384 335.103 464.435C335.837 464.384 336.669 464.435 337.304 465.044Z" fill="#5882AE"/>
<path d="M251.853 543.717C252.244 543.312 252.342 542.804 252.293 542.297C252.049 540.674 252.831 540.37 254.103 540.877C254.69 541.08 255.228 541.485 255.766 541.891C256.5 542.449 257.283 543.007 258.065 543.514C266.038 548.891 273.962 554.37 281.984 559.696C282.962 560.355 284.185 560.862 284.527 562.283C283.744 566.696 282.081 570.855 280.663 575.065C277.532 584.196 274.744 593.478 271.663 602.609C271.321 603.674 271.223 604.993 270 605.551C259.973 614.428 249.897 623.254 239.918 632.13C235.272 636.29 229.891 636.848 224.119 635.884C222.31 635.58 222.212 634.87 222.75 633.196C226.859 620.768 230.869 608.341 234.929 595.913C240.456 578.92 246.032 561.978 251.609 544.986C251.657 544.529 251.755 544.072 251.853 543.717Z" fill="black"/>
<path d="M406.272 410.768C400.891 410.616 395.56 410.413 390.179 410.413C388.614 410.413 388.516 409.754 388.663 408.435C389.446 401.993 390.179 395.551 390.864 389.058C392.429 374.044 393.995 359.029 395.56 344.015C396 339.754 396.391 335.442 396.685 331.13C396.832 329.203 397.321 328.239 399.424 328.493C400.843 328.645 402.31 328.848 403.728 328.29C403.582 324.638 402.016 321.391 401.234 317.942C400.353 314.391 399.277 310.841 398.201 307.341C397.516 305.109 397.223 302.928 398.152 300.696C398.788 297.957 400.696 296.536 403.044 295.573C403.924 295.217 404.902 295.065 405.391 296.13C405.929 297.246 405.147 297.906 404.315 298.312C402.31 299.428 400.598 300.746 400.158 303.232C400.5 307.949 402.359 312.312 403.484 316.826C404.12 319.413 404.902 322 405.685 324.536C406.076 326.616 407.25 327.428 409.304 327.377C414.049 327.275 418.842 327.428 423.587 327.275C425.788 326.413 426.62 324.891 426.277 322.406C426.033 320.833 425.348 319.362 425.397 317.739C425.935 316.37 426.62 315.964 427.598 317.435C428.527 320.935 430.044 324.435 427.353 328.188C430.093 328.188 432.44 328.188 434.788 328.188C439.386 328.594 439.386 328.594 439.386 333.464C439.435 347.058 440.169 360.602 439.875 374.196C439.826 375.616 440.071 377.087 439.386 378.406C438.848 379.065 438.408 378.761 438.065 378.203C437.527 377.341 437.234 376.377 436.843 375.464C431.609 361.92 426.522 348.275 421.239 334.732C420.848 333.768 420.652 332.703 419.772 331.79C419.674 332.957 420.212 333.768 420.506 334.63C425.984 348.63 431.169 362.732 436.647 376.783C437.136 378 437.87 379.217 437.332 380.638C436.353 381.703 435.179 381.145 434.103 380.993C428.625 380.232 423.196 379.116 417.766 378.355C413.951 377.797 412.288 378.964 411.652 382.92C410.332 390.732 409.207 398.544 407.984 406.355C407.641 408.029 407.886 409.804 406.272 410.768Z" fill="black"/>
<path d="M427.549 317.536C426.815 317.08 426.131 316.775 425.641 317.891C424.614 319.007 425.152 320.427 425.005 321.746C424.81 323.877 425.495 326.109 424.37 328.188C418.696 328.239 413.022 328.34 407.348 328.391C404.804 328.391 405.783 325.956 404.951 324.688C404.364 319.362 404.609 313.985 404.56 308.659C404.56 307.239 403.973 306.275 402.701 305.717C401.38 305.109 400.011 304.449 399.473 302.877C399.962 300.442 401.576 299.072 403.679 298.109C404.315 297.804 405.489 297.703 404.902 296.485C404.364 295.369 403.435 296.13 402.799 296.384C400.696 297.196 399.277 298.869 398.006 300.797C397.272 296.283 398.103 294.304 401.821 292.174C405.294 290.703 408.13 288.369 410.821 285.783C411.652 284.971 412.582 284.311 413.755 284.058C420.848 282.485 427.451 279.746 433.614 275.891C434.397 275.384 435.277 274.775 436.109 275.333C438.848 277.159 442.027 278.072 444.717 280C444.913 283.196 445.5 286.34 445.304 289.587C444.913 290.196 443.69 289.993 443.837 291.007C443.984 292.072 445.109 291.413 445.647 291.819C445.598 295.116 445.647 298.362 445.451 301.659C444.962 309.217 439.875 315 431.169 316.522C429.995 316.725 428.674 316.775 427.549 317.536Z" fill="#FD9993"/>
<path d="M634.598 428.116C634.696 427.102 634.255 425.986 634.989 425.073C634.891 426.696 635.87 426.696 637.044 426.696C643.06 426.645 649.076 426.696 655.141 426.696C671.576 426.696 688.06 426.746 704.495 426.645C706.5 426.645 707.136 427.102 707.136 429.283C707.038 440.29 707.185 451.246 707.038 462.254C706.989 464.689 707.772 465.297 709.924 465.145C712.614 464.942 715.304 465.246 717.995 465.044C720.342 464.841 721.565 465.449 721.076 468.189C720.783 469.761 721.565 470.218 723.033 470.167C724.255 470.116 724.549 469.609 724.5 468.442C724.451 466.007 724.5 463.522 724.5 461.087C724.5 433.544 724.549 406 724.451 378.457C724.451 375.971 725.136 375.312 727.435 375.413C731.886 375.616 736.386 375.565 740.886 375.413C742.793 375.362 743.38 375.92 743.38 377.949C743.283 390.884 743.331 403.819 743.331 416.754C743.331 439.377 743.283 462.051 743.38 484.674C743.38 487.007 742.793 487.616 740.543 487.616C726.359 487.515 712.223 487.616 698.038 487.515C696.033 487.515 695.25 487.87 695.25 490.203C695.348 505.319 695.348 520.435 695.25 535.602C695.25 537.732 695.788 538.29 697.794 538.29C712.125 538.189 726.457 538.29 740.788 538.189C742.647 538.189 743.38 538.594 743.331 540.674C743.331 542.754 742.794 543.413 740.739 543.362C726.506 543.261 712.223 543.362 697.989 543.261C695.641 543.261 695.103 543.971 695.201 546.254C695.397 549.297 695.348 552.341 695.201 555.384C695.152 557.109 695.69 557.515 697.304 557.515C701.217 557.413 705.13 557.565 709.044 557.464C710.755 557.413 711.538 558.022 711.245 559.797C710.853 562.333 711.783 563.804 713.984 565.174C722.25 570.297 725.429 581.102 721.712 590.435C717.995 599.667 708.359 604.79 698.919 602.507C689.478 600.225 683.12 591.196 683.756 581.152C683.951 577.957 684.88 575.065 686.25 572.174C685.957 572.022 685.761 571.87 685.565 571.87C680.625 571.667 680.625 571.667 680.625 566.594C680.625 559.645 680.576 552.746 680.674 545.797C680.723 543.87 680.136 543.362 678.326 543.413C661.158 543.464 643.94 543.464 626.772 543.464C626.772 543.109 626.723 542.754 626.723 542.399C627.946 541.283 629.462 541.536 630.929 541.536C645.75 541.536 660.571 541.536 675.342 541.536C676.467 541.536 677.641 541.739 678.864 541.131C677.788 540.42 676.761 540.674 675.734 540.674C660.62 540.674 645.456 540.674 630.342 540.623C628.973 540.623 627.554 540.928 626.429 539.761C626.429 539.304 626.38 538.848 626.38 538.391C627.603 537.174 629.12 537.529 630.538 537.529C645.457 537.478 660.326 537.529 675.245 537.529C676.076 537.529 676.859 537.529 677.69 537.478C679.109 537.478 679.745 536.717 679.745 535.297C679.793 526.015 679.745 516.732 679.745 507.449C679.745 505.573 678.717 505.218 677.201 505.218C673.19 505.218 669.228 505.218 665.217 505.218C652.94 505.218 640.614 505.218 628.337 505.218C626.967 505.218 625.549 505.522 624.375 504.457C624.375 504.102 624.375 503.746 624.375 503.341C625.549 502.275 627.016 502.58 628.337 502.58C643.94 502.58 659.544 502.58 675.196 502.58C676.076 502.58 677.006 502.58 677.886 502.529C679.06 502.478 679.696 501.87 679.696 500.652C679.794 497.254 679.745 493.906 679.696 490.507C679.696 489.138 679.011 488.529 677.69 488.529C676.859 488.529 676.076 488.478 675.245 488.478C660.424 488.478 645.652 488.478 630.831 488.478C629.462 488.478 628.044 488.681 626.772 487.87C626.234 487.16 626.527 486.652 627.212 486.246C628.63 485.689 630.098 485.841 631.565 485.841C660.473 485.841 689.38 485.841 718.288 485.841C719.12 485.841 719.902 485.841 720.734 485.841C723.375 485.739 723.668 485.536 723.668 482.747C723.717 480.058 723.668 477.319 723.668 474.631C723.668 473.058 723.033 472.297 721.467 472.297C720.587 472.297 719.658 472.297 718.777 472.297C690.457 472.297 662.087 472.297 633.766 472.297C632.25 472.297 630.636 472.602 629.217 471.689C628.826 471.232 628.826 470.775 629.12 470.319C630.538 469.355 632.103 469.66 633.62 469.66C660.228 469.66 686.837 469.66 713.446 469.66C714.326 469.66 715.255 469.71 716.136 469.609C717.016 469.507 718.435 469.862 718.337 468.341C718.288 466.92 716.87 467.326 715.989 467.225C715.207 467.123 714.375 467.174 713.543 467.174C687.033 467.174 660.473 467.174 633.962 467.174C632.495 467.174 631.027 467.428 629.658 466.565C629.071 465.855 629.413 465.348 630.049 464.942C631.37 464.384 632.788 464.536 634.158 464.536C656.12 464.536 678.13 464.536 700.092 464.536C700.582 464.536 701.071 464.536 701.56 464.536C704.886 464.486 705.033 464.384 705.033 460.986C705.033 451.602 705.033 442.218 705.033 432.884C705.033 429.333 704.886 429.181 701.462 429.181C680.527 429.181 659.641 429.181 638.707 429.181C637.386 428.928 635.821 429.232 634.598 428.116Z" fill="#5882AF"/>
<path d="M269.951 605.449C274.696 590.942 279.391 576.485 284.136 561.978C285.065 561.217 285.995 561.623 286.924 561.928C292.696 563.601 298.467 565.377 304.239 567.051C304.973 567.254 305.658 567.507 306.049 568.217C303.359 577.348 300.669 586.478 297.929 595.609C296.315 600.884 294.995 606.261 292.989 611.384C285.261 609.355 277.582 607.427 269.951 605.449Z" fill="#8F3600"/>
<path d="M604.761 365.572C599.87 365.572 594.929 365.572 590.038 365.572C590.038 363.138 589.94 360.652 590.087 358.217C590.185 356.645 589.696 355.985 588.131 355.783C584.315 355.275 580.647 354.261 577.419 351.877C573.75 349.188 572.234 345.283 571.94 340.768C571.745 337.725 572.185 334.681 572.478 331.688C574.337 331.181 574.337 330.369 572.919 329.203C572.87 326.768 573.31 324.435 573.799 322.101C575.218 320.884 576.93 321.188 578.446 321.391C583.141 322.051 587.837 321.696 592.533 321.797C593.364 321.797 594.147 321.797 594.978 321.898C596.984 322.152 598.06 323.167 598.011 325.398C598.011 327.58 598.06 329.761 598.011 331.942C597.913 336.913 599.185 341.377 602.266 345.283C603.391 346.754 604.908 348.123 604.663 350.304C604.761 355.478 604.761 360.551 604.761 365.572Z" fill="#FD9993"/>
<path d="M513.245 376.022C515.495 374.348 517.011 372.116 517.892 369.428C518.527 367.5 519.31 365.674 520.044 363.797C521.413 360.399 523.565 357.862 526.794 356.188C529.484 354.819 532.027 353.145 534.669 351.623C536.772 350.406 538.68 350.812 540 352.79C541.37 354.768 542.69 356.797 543.913 358.877C545.234 361.109 544.794 363.036 542.642 364.507C540.734 365.775 538.777 366.942 536.821 368.159C532.076 370.036 530.902 373.891 531.44 378.66C531.587 379.877 531.196 380.942 530.364 381.906C525.62 387.384 520.386 392.254 514.517 396.362C513.832 396.819 513.196 397.377 512.316 397.326C512.022 397.174 511.729 397.022 511.582 396.717C509.381 391.797 506.886 386.978 505.223 381.754C506.593 379.42 509.234 378.964 511.093 377.341C511.239 377.188 511.435 377.087 511.582 376.935C511.924 376.681 512.218 376.428 512.609 376.225C512.854 376.174 513.049 376.073 513.245 376.022Z" fill="#FD9993"/>
<path d="M512.804 376.377C512.658 376.935 512.315 377.189 511.777 377.189C510.75 377.544 509.723 377.594 508.647 377.594C490.549 377.594 472.5 377.594 454.402 377.594C453.326 377.594 452.152 377.797 451.125 376.631C452.054 375.92 452.935 376.174 453.766 376.174C463.304 376.174 472.842 376.174 482.38 376.174C483.261 376.174 484.19 376.377 485.022 375.971L485.071 375.92C485.462 375.007 485.266 374.094 485.266 373.181C485.266 319.413 485.266 265.594 485.266 211.826C485.266 210.913 485.462 209.949 485.071 209.087L485.022 209.036C484.141 208.631 483.261 208.833 482.38 208.833C469.467 208.833 456.506 208.833 443.593 208.833C442.712 208.833 441.783 209.036 440.951 208.631C440.266 207.819 440.609 206.855 440.609 205.942C440.609 170.131 440.609 134.37 440.609 98.5581C440.609 97.645 440.315 96.6813 440.951 95.8697C441.636 95.5653 442.419 95.6668 443.103 95.6668C475.68 95.6668 508.207 95.6668 540.783 95.6668C541.516 95.6668 542.25 95.5653 542.935 95.8189C543.522 96.6813 543.228 97.645 543.228 98.5073C543.228 134.268 543.228 170.08 543.228 205.841C543.228 206.754 543.522 207.717 542.935 208.529C542.054 208.833 541.174 208.681 540.294 208.681C526.5 208.681 512.707 208.681 498.913 208.681C498.033 208.681 497.103 208.428 496.321 208.935C496.321 264.529 496.321 320.174 496.321 375.768C499.696 376.428 503.071 375.87 506.397 376.073C508.451 376.225 510.652 375.87 512.804 376.377Z" fill="#6D91B8"/>
<path d="M444.815 279.949C442.125 279.239 439.533 278.174 437.283 276.449C436.109 275.536 435.228 275.435 433.859 276.348C427.794 280.355 421.141 283.094 414.098 284.616C412.924 284.87 412.044 285.58 411.163 286.341C408.815 288.42 406.614 290.703 403.68 291.92C403.093 292.174 402.555 292.681 401.87 292.174C401.283 288.877 400.891 285.529 401.332 282.13C401.674 279.645 402.701 277.616 405.049 276.601C406.076 276.145 406.565 275.384 407.006 274.522C409.891 269.145 414.343 266.558 420.261 267.116C421.386 267.217 422.071 266.659 422.853 266.101C427.011 263.109 430.875 263.109 435.082 266C435.62 266.355 436.06 266.812 436.794 266.862C443.103 266.964 447.017 273.761 444.815 279.949Z" fill="black"/>
<path d="M604.761 350.406C603.881 348.986 603.098 347.464 602.071 346.246C598.696 342.239 597.277 337.522 597.375 332.297C597.424 329.862 597.277 327.377 597.473 324.993C597.669 323.217 596.984 322.812 595.516 322.812C588.277 322.659 581.087 322.406 573.848 322.203C573.848 317.688 576.881 313.326 580.989 312.007C584.756 310.79 588.62 310.486 592.533 310.486C592.924 310.08 593.413 309.978 593.951 309.978C595.272 310.181 596.641 310.486 597.962 310.79C598.696 310.891 599.381 311.094 600.114 311.297C607.647 313.072 611.217 318.5 612.636 325.855C612.783 326.819 612.685 327.833 613.027 328.797C613.272 330.116 613.223 331.486 613.125 332.804C613.076 333.21 612.929 333.616 612.636 333.92C612.587 334.428 612.489 334.986 612.44 335.493C610.924 335.899 610.141 334.529 609.016 333.92C605.984 332.246 605.397 332.551 605.397 336C605.397 338.181 605.446 340.362 605.397 342.594C605.348 344.471 605.837 345.333 607.794 344.522C608.381 344.268 609.016 344.065 609.652 344.471C608.87 347.21 607.011 348.986 604.761 350.406Z" fill="black"/>
<path d="M484.973 375.92C484.239 376.681 483.261 376.377 482.43 376.377C472.989 376.377 463.549 376.377 454.06 376.428C453.326 376.428 452.495 376.174 451.419 376.935C452.691 376.935 453.571 376.935 454.451 376.935C472.696 376.935 490.94 376.935 509.185 376.935C510.065 376.935 510.995 376.681 511.777 377.239L511.728 377.442C510.212 378.203 508.598 378.254 506.984 378.254C490.207 378.254 473.478 378.254 456.701 378.254C455.87 378.254 455.087 378.254 454.256 378.254C452.837 378.254 452.152 378.862 452.348 380.435C452.495 381.348 452.495 382.312 452.104 383.174C451.663 383.986 450.93 384.036 450.196 383.935C446.723 383.326 443.152 383.073 439.777 381.957C438.848 381.196 438.163 380.384 438.652 379.015C439.386 378.051 439.044 376.884 439.044 375.819C438.897 361.058 438.652 346.246 438.603 331.486C438.603 328.949 437.919 328.138 435.62 328.544C435.326 328.594 434.984 328.391 434.69 328.341C442.321 327.478 446.87 330.978 447.652 338.688C448.777 350 449.805 361.362 450.734 372.674C450.93 375.159 451.566 376.073 454.207 376.022C464.43 375.819 474.701 375.92 484.973 375.92Z" fill="#639CC7"/>
<path d="M612.636 333.87C612.636 333.464 612.636 333.058 612.636 332.703C613.81 332.094 614.69 332.906 615.571 333.362C632.641 341.986 652.402 338.942 666 325.145C673.141 317.942 677.495 309.065 678.815 298.667C680.674 284.058 676.614 271.275 666.929 260.725C653.576 246.116 632.935 242.616 616.158 251.189C601.582 258.645 593.413 271.022 591.31 287.609C590.527 293.848 591.114 300.087 593.12 306.123C593.56 307.493 594.538 308.862 593.853 310.486C593.413 310.486 592.924 310.435 592.484 310.435C590.967 305.464 589.598 300.442 589.402 295.167C588.766 280.862 593.12 268.486 603.049 258.594C616.451 245.254 632.397 241.348 649.908 247.536C667.321 253.674 677.69 266.812 680.478 285.732C684.978 316.573 659.886 343.254 629.853 339.754C623.788 339.044 617.967 337.065 612.636 333.87Z" fill="#5983AF"/>
<path d="M512.364 396.971C519.359 392.812 524.984 386.978 530.511 380.993C531 380.435 530.853 379.928 530.902 379.37C530.951 378.203 530.902 376.986 530.902 375.819C530.902 371 532.272 369.225 536.87 368.159C541.37 369.275 542.739 371 542.739 375.819C542.739 376.63 542.788 377.493 542.788 378.304C542.886 378.913 543.228 379.42 543.277 380.029C543.375 382.515 543.473 385.051 543.179 387.536C542.935 388.5 542.641 389.413 542.152 390.326C540.44 392.507 538.288 393.471 535.549 393.065C531.538 391.493 530.315 389.565 530.315 384.899C525.228 390.529 519.603 395.449 513.294 399.507C503.364 406.101 492.506 409.804 480.864 411.123C474.701 411.783 468.538 412.138 462.424 410.768C461.055 409.855 460.467 408.891 462.326 407.826C465.505 407.775 468.636 408.13 471.815 408.181C485.364 408.384 497.886 404.783 509.674 397.986C510.506 397.478 511.288 396.819 512.364 396.971Z" fill="#010101"/>
<path d="M609.603 344.471C604.859 346.196 604.859 346.196 604.859 340.819C604.859 338.283 604.908 335.797 604.859 333.261C604.81 331.942 605.152 331.841 606.375 332.094C608.821 332.5 610.386 334.428 612.44 335.493C613.565 339.145 612.587 342.138 609.603 344.471Z" fill="#FB9892"/>
<path d="M485.021 208.986C485.755 209.746 485.462 210.761 485.462 211.623C485.462 265.442 485.462 319.312 485.462 373.131C485.462 374.044 485.755 375.007 485.021 375.768C485.021 375.007 485.07 374.246 485.07 373.486C485.07 319.362 485.07 265.29 485.07 211.167C485.07 210.507 485.021 209.746 485.021 208.986Z" fill="#639CC7"/>
<path d="M542.788 379.978C542.788 379.42 542.788 378.913 542.788 378.355C553.794 383.275 560.886 391.645 563.674 403.819C563.821 404.377 563.919 404.783 564.554 404.732C564.114 410.159 563.674 415.587 563.234 421.014C562.353 420.355 562.549 419.391 562.5 418.478C562.451 416.601 562.451 414.775 562.5 412.898C562.794 398.391 556.533 387.891 544.353 381.094C543.815 380.79 543.179 380.485 542.788 379.978Z" fill="#5E86B1"/>
<path d="M542.837 95.8189C531.294 95.8189 519.75 95.8696 508.158 95.8696C485.707 95.8696 463.256 95.8189 440.804 95.8189C441.587 95.2102 442.516 95.4638 443.397 95.4638C475.679 95.4638 507.962 95.4638 540.196 95.4638C541.125 95.4638 542.054 95.2609 542.837 95.8189Z" fill="#639CC7"/>
<path d="M496.223 209.036C496.663 208.377 497.397 208.529 498.033 208.529C513 208.529 527.919 208.58 542.886 208.58C542.006 209.189 540.978 208.935 540.049 208.935C525.424 208.986 510.799 208.986 496.223 209.036Z" fill="#639CC7"/>
<path d="M440.853 208.529C454.94 208.529 469.027 208.478 483.114 208.478C483.75 208.478 484.435 208.326 484.924 208.935C471.179 208.935 457.435 208.935 443.641 208.884C442.761 208.935 441.734 209.239 440.853 208.529Z" fill="#639CC7"/>
<path d="M512.804 376.377C508.109 376.377 503.413 376.377 498.718 376.377C497.886 376.377 496.908 376.732 496.223 375.87C501.897 375.92 507.571 375.971 513.245 376.073C513.098 376.123 512.951 376.275 512.804 376.377Z" fill="#639CC7"/>
<path d="M445.745 291.819C445.011 292.427 444.228 292.783 443.348 292.022C442.761 291.514 442.712 290.804 443.055 290.196C443.593 289.283 444.424 289.08 445.353 289.587C445.94 290.246 445.989 291.007 445.745 291.819Z" fill="#0F0A09"/>
<path d="M572.967 329.254C574.19 329.101 575.217 329.457 574.973 330.928C574.728 332.449 573.603 332.297 572.527 331.688C572.136 330.826 572.332 330.014 572.967 329.254Z" fill="#100A0A"/>
<path d="M213.652 424.058C215.951 425.529 218.152 427.203 220.256 429.029C220.06 429.283 219.815 429.333 219.571 429.08C217.468 427.558 215.364 426.036 213.212 424.515C213.31 424.413 213.506 424.261 213.652 424.058Z" fill="#D9E2EC"/>
<path d="M455.576 603.014C455.576 603.42 455.527 603.775 455.527 604.181C454.255 604.181 453.032 604.13 451.761 604.13C451.761 603.775 451.761 603.42 451.761 603.065C452.984 602.101 454.255 602.152 455.576 603.014Z" fill="#5781AD"/>
<path d="M192.668 538.188C192.619 527.384 192.619 516.58 192.521 505.775C192.521 504.507 193.011 504.101 194.136 504.254C194.478 504.304 194.771 504.254 195.114 504.254C237.864 504.254 280.565 504.254 323.315 504.254C324.049 504.254 324.782 504.304 325.516 504.355C322.434 514.551 319.255 524.746 316.271 534.993C315.587 537.377 314.706 538.239 312.114 538.239C272.348 538.138 232.532 538.188 192.668 538.188Z" fill="#FEFEFE"/>
<path d="M330.505 486.551C329.429 486.551 328.402 486.5 327.326 486.5C270.391 486.5 213.456 486.5 156.571 486.551C154.174 486.551 153.244 486.094 153.489 483.406C153.734 480.058 153.636 476.66 153.538 473.261C153.489 471.536 154.076 470.978 155.641 471.232C155.788 471.232 155.984 471.232 156.13 471.232C215.413 471.232 274.696 471.232 333.978 471.232C334.467 471.232 334.956 471.232 335.446 471.283C333.88 476.406 332.658 481.631 330.505 486.551Z" fill="#FEFEFE"/>
<path d="M325.614 503.188C288.636 503.188 251.658 503.138 214.679 503.138C208.076 503.138 201.473 503.087 194.87 503.188C193.109 503.239 192.424 502.833 192.473 500.855C192.62 497.051 192.571 493.246 192.473 489.442C192.424 488.022 192.913 487.413 194.283 487.565C194.527 487.616 194.772 487.565 195.016 487.565C239.576 487.565 284.087 487.565 328.647 487.565C329.234 487.565 329.772 487.616 330.359 487.616C328.94 492.841 327.522 498.116 325.614 503.188Z" fill="#FEFEFE"/>
<path d="M462.522 408.282C460.565 408.891 461.69 409.601 462.473 410.311C462.571 412.797 462.375 415.232 461.152 417.464C460.859 417.667 460.468 417.717 460.272 417.464C456.946 413.71 452.25 413.862 447.995 412.746C447.359 412.594 446.723 412.594 446.087 412.34C445.06 410.92 443.446 411.123 442.027 410.768C438.603 409.551 435.424 407.674 431.609 407.522C427.305 407.319 423.538 408.993 419.625 410.413C417.864 411.022 416.152 411.782 414.343 412.29C413.071 412.645 411.799 412.949 410.625 412.036C410.576 410.717 409.598 411.022 408.864 410.971C407.984 410.92 407.103 410.92 406.174 410.869C407.495 406.253 407.739 401.485 408.571 396.768C409.451 391.848 410.087 386.826 411.016 381.906C411.652 378.558 413.902 377.239 417.082 377.746C423.391 378.862 429.701 379.877 436.011 380.891C436.451 380.942 436.794 380.84 437.087 380.485C438.017 380.485 438.555 381.449 439.435 381.5C443.544 382.109 447.652 382.768 451.712 383.377C453.913 382.311 456.016 383.58 458.12 383.782C459.636 383.935 461.201 384.239 462.571 384.949C462.913 385.152 463.256 385.406 463.549 385.659C464.038 386.116 464.527 386.623 464.87 387.181C465.652 388.551 465.701 390.022 465.555 391.543C465.065 395.956 464.087 400.319 463.5 404.732C463.598 406 463.451 407.268 462.522 408.282Z" fill="#202B6D"/>
<path d="M455.625 454.239C454.94 455.862 454.891 457.638 454.598 459.362C453.962 463.37 451.516 464.993 447.603 464.333C433.761 462 419.919 459.717 406.027 457.486C404.315 457.181 402.75 456.623 401.381 455.507C400.647 455.203 400.109 454.594 400.011 453.833C399.522 450.384 399.571 446.986 401.332 443.841C406.027 443.587 406.027 443.587 406.859 438.667C406.957 438.007 407.103 437.348 407.25 436.688C408.424 435.623 409.842 435.877 411.212 435.877C422.511 435.877 433.761 435.826 445.06 435.877C449.413 435.877 453.668 435.623 457.679 433.848C459.489 434.152 458.853 435.623 458.707 436.638C458.071 441.203 457.288 445.768 456.652 450.384C456.408 451.754 456.457 453.123 455.625 454.239Z" fill="#202B6D"/>
<path d="M458.266 434C455.723 436.181 452.69 436.587 449.56 436.587C435.473 436.638 421.386 436.688 407.299 436.739C408.424 428.471 409.549 420.203 410.723 411.935C414.587 412.087 418.011 410.312 421.435 408.841C428.723 405.645 435.62 406.152 442.419 410.312C441.538 411.326 440.315 411.123 439.239 411.123C436.304 411.174 433.321 411.072 430.386 411.377C435.62 411.935 440.853 411.326 446.087 411.884C449.804 412.138 453.424 413.152 456.995 414.116C458.804 414.572 459.881 416.196 461.006 417.565C461.69 418.275 462.18 418.985 461.299 419.899C458.609 420.761 455.821 420.203 453.033 420.304C450.881 420.406 448.679 420.254 446.478 420.558C450.391 420.862 454.256 420.761 458.169 420.812C459.391 420.812 460.614 420.659 461.69 421.522C462.424 422.891 462.375 424.21 461.739 425.58C460.712 426.543 459.489 426.341 458.266 426.341C454.402 426.391 450.489 426.29 446.625 426.543C451.419 427.152 456.261 426.391 461.055 427.101C462.131 427.609 462.082 428.522 461.788 429.435C461.103 431.362 460.272 433.188 458.266 434Z" fill="#FD9993"/>
<path d="M306.049 568.167C298.761 566.087 291.424 564.007 284.136 561.978C275.772 556.246 267.359 550.515 258.995 544.783C258.505 544.478 258.065 544.123 257.625 543.768C258.31 542.044 259.777 542.551 260.951 542.551C274.598 542.5 288.245 542.5 301.891 542.5C304.826 542.5 307.761 542.449 310.647 542.5C311.576 542.5 312.652 542.348 313.337 543.312C313.386 545.899 312.163 548.181 311.478 550.565C309.717 556.5 307.859 562.333 306.049 568.167Z" fill="#FEFEFE"/>
<path d="M337.304 465.043C332.755 465.043 328.255 465.043 323.707 464.993C323.707 456.978 323.707 449.014 323.707 440.543C329.478 444.196 335.543 444.703 341.804 444.297C343.565 444.196 343.321 445.21 342.978 446.428C341.071 452.667 339.212 458.855 337.304 465.043Z" fill="#FEFEFE"/>
<path d="M255.62 542.348C255.131 542.094 254.593 541.891 254.201 541.485C253.076 540.42 252.685 541.283 252.294 542.246C233.218 542.246 214.141 542.246 195.065 542.297C193.011 542.297 192.179 541.79 192.718 539.659C232.533 539.659 272.348 539.659 312.163 539.659C314.902 539.659 314.902 539.659 313.924 542.297C312.897 542.957 311.723 542.703 310.598 542.703C293.185 542.703 275.772 542.703 258.31 542.754C257.381 542.754 256.5 542.652 255.62 542.348Z" fill="#FCFDFD"/>
<path d="M322.288 439.783C322.288 448.964 322.19 458.196 322.288 467.377C322.288 469.355 321.946 470.167 319.793 470.116C314.022 469.964 314.022 470.116 314.022 464.181C314.022 453.022 314.022 441.913 314.022 430.754C316.614 433.949 319.011 437.297 322.288 439.783Z" fill="#FDFDFE"/>
<path d="M401.331 443.891C401.038 445.768 400.695 447.645 400.451 449.522C400.157 451.601 400.108 453.681 401.331 455.507C397.907 456.268 394.386 455.812 390.913 455.913C388.223 456.014 385.581 455.964 382.891 455.964C383.331 452.464 383.772 448.964 384.114 445.464C384.212 444.094 384.799 443.841 385.973 443.841C391.109 443.942 396.244 443.891 401.331 443.891Z" fill="black"/>
<path d="M312.897 428.116C312.897 439.732 312.848 451.348 312.897 462.913C312.897 464.435 312.701 465.399 310.94 465.043C310.892 453.225 310.892 441.406 310.794 429.587C310.843 427.862 311.772 427.913 312.897 428.116Z" fill="#F6F8FA"/>
<path d="M255.619 542.348C268.63 542.297 281.592 542.297 294.603 542.246C301.011 542.246 307.418 542.246 313.875 542.297C313.826 542.754 313.679 543.109 313.288 543.362C295.581 543.362 277.826 543.362 260.119 543.362C259.239 543.362 258.31 543.058 257.527 543.717C256.793 543.514 256.206 542.956 255.619 542.348Z" fill="#5881AE"/>
<path d="M335.837 470.065C332.266 470.065 328.696 470.014 325.125 470.116C323.462 470.167 323.364 469.254 323.315 467.935C323.266 466.413 323.853 466.109 325.174 466.109C329.087 466.21 332.951 466.159 336.864 466.159C336.864 467.58 336.13 468.746 335.837 470.065Z" fill="#FBFCFD"/>
<path d="M562.647 612.196C555.603 616.406 548.56 620.565 541.565 624.877C540.049 625.79 539.266 625.79 538.337 624.217C537.31 622.493 535.744 621.275 533.984 620.261C525.228 615.087 516.571 609.812 507.864 604.587C508.5 602.964 509.918 603.471 510.994 603.471C521.217 603.42 531.489 603.42 541.712 603.42C542.446 603.42 543.179 603.42 543.913 603.42C545.429 603.42 545.87 602.761 545.576 601.188C544.451 594.797 539.315 590.232 532.81 590.181C522.978 590.08 513.147 590.181 503.266 590.13C502.092 590.13 500.821 590.485 499.793 589.42C500.576 574.152 501.359 558.833 502.141 543.565C502.875 542.5 503.951 542.601 505.027 542.601C524.103 542.551 543.228 542.601 562.304 542.601C563.283 542.601 564.31 542.5 564.995 543.464C564.652 554.268 564.31 565.072 563.919 575.877C563.576 587.898 563.087 600.072 562.647 612.196Z" fill="#FEFEFE"/>
<path d="M455.625 454.239C455.478 452.92 455.576 451.602 456.114 450.384C456.603 449.674 457.19 449.167 457.875 448.71C467.413 442.42 476.853 435.928 486.293 429.486C488.348 428.065 490.402 427.355 492.897 427.355C512.071 427.406 531.294 427.406 550.467 427.406C551.788 427.406 553.304 426.949 554.283 428.37C554.674 429.232 554.625 430.196 554.625 431.109C554.625 441.304 554.625 451.5 554.625 461.696C554.625 465.348 554.234 465.754 550.712 465.754C537.065 465.754 523.418 465.754 509.772 465.754C508.647 465.754 507.473 465.957 506.544 464.993C502.973 456.268 496.712 452.312 487.565 452.819C476.902 453.529 466.239 453.833 455.625 454.239Z" fill="#FEFEFE"/>
<path d="M566.511 504.203C566.168 515.565 565.924 526.877 565.141 538.239C564.261 539 563.185 538.899 562.109 538.899C543.277 538.899 524.397 538.899 505.565 538.899C504.538 538.899 503.413 539.051 502.533 538.189C502.924 526.826 503.609 515.515 504.538 504.203C505.37 503.29 506.495 503.442 507.522 503.442C526.158 503.442 544.794 503.442 563.478 503.442C564.554 503.493 565.679 503.341 566.511 504.203Z" fill="#FEFEFE"/>
<path d="M567 490C566.853 494.362 566.658 498.725 566.511 503.138C565.679 503.899 564.652 503.645 563.723 503.645C544.94 503.645 526.158 503.645 507.424 503.645C506.495 503.645 505.468 503.899 504.636 503.087C504.978 497.913 505.125 492.688 505.957 487.514C506.69 486.652 507.718 486.703 508.647 486.703C523.712 486.703 538.826 486.652 553.892 486.754C555.848 486.956 556.973 488.478 558.294 489.746C558.783 490.304 559.37 490.254 560.006 490.051C560.788 489.899 561.522 490.051 562.207 490.507C562.843 491.065 563.527 491.065 564.212 490.609C565.141 490.406 565.973 489.594 567 490Z" fill="#FEFEFE"/>
<path d="M506.005 486.449C506.152 481.326 506.69 476.254 507.375 471.232C508.206 470.522 509.185 470.522 510.163 470.522C524.641 470.522 539.071 470.522 553.549 470.522C554.185 470.522 554.87 470.522 555.457 470.826C556.533 471.536 556.141 472.652 555.994 473.565C555.408 477.623 554.185 481.58 554.674 485.79C554.723 486.196 554.478 486.601 554.087 486.804C553.549 487.007 552.962 487.007 552.375 487.007C537.701 487.007 522.978 487.007 508.304 487.007C507.522 486.906 506.69 487.058 506.005 486.449Z" fill="#FEFEFE"/>
<path d="M462.473 538.239C457.924 538.239 453.375 538.188 448.826 538.188C447.799 538.188 446.918 538.239 446.869 536.717C446.233 525.862 445.549 515.058 444.913 504.254C445.695 503.442 446.674 503.493 447.652 503.493C452.983 503.493 458.315 503.493 463.598 503.493C464.576 503.493 465.554 503.391 466.288 504.254C465.114 515.362 463.94 526.471 462.766 537.529C462.766 537.783 462.57 537.985 462.473 538.239Z" fill="#FEFEFE"/>
<path d="M505.908 603.116C503.511 602 501.261 600.63 499.109 599.058C499.353 596.268 499.549 593.478 499.794 590.638C500.381 589.674 501.359 589.877 502.239 589.877C512.169 589.877 522.098 589.775 531.978 589.877C538.533 589.928 543.033 593.123 545.136 598.754C545.381 599.464 545.527 600.225 545.674 600.935C546.065 602.71 545.283 603.471 543.669 603.522C541.81 603.522 539.951 603.522 538.044 603.522C528.457 603.522 518.87 603.522 509.283 603.522C508.109 603.623 506.984 603.573 505.908 603.116Z" fill="#FEFEFE"/>
<path d="M450.734 589.42C449.902 586.123 450.147 582.725 449.853 579.377C448.924 568.014 448.239 556.601 447.457 545.188C447.408 544.478 447.359 543.819 447.848 543.311C447.946 543.21 448.044 542.956 448.19 542.956C452.593 542.196 456.995 542.297 461.446 542.855C461.69 542.906 461.837 543.159 461.984 543.311C461.348 550.261 460.712 557.159 460.027 564.109C459.196 572.478 458.267 580.797 457.386 589.167C455.185 590.587 452.984 590.384 450.734 589.42Z" fill="#FEFEFE"/>
<path d="M555.75 471.232C539.608 471.232 523.516 471.232 507.375 471.181C507.326 470.826 507.277 470.522 507.228 470.167C508.402 469.051 509.82 469.355 511.19 469.355C523.81 469.304 536.429 469.355 549 469.355C549.978 469.355 550.956 469.406 551.935 469.152C552.424 469 552.815 468.696 552.815 468.087C552.815 467.478 552.424 467.225 551.886 467.072C550.907 466.819 549.929 466.92 548.951 466.92C536.185 466.92 523.418 466.92 510.652 466.92C509.331 466.92 508.06 467.022 506.788 466.464C506.69 466.007 506.592 465.5 506.494 465.043C521.462 465.043 536.429 464.993 551.348 465.043C553.353 465.043 553.94 464.587 553.94 462.406C553.793 450.942 553.842 439.478 553.842 428.014C553.011 427.609 552.081 427.812 551.201 427.812C531.929 427.812 512.706 427.812 493.435 427.761C492.603 427.761 491.674 428.116 490.891 427.355C491.478 426.087 492.75 426.493 493.63 426.138C494.511 425.783 494.511 424.819 494.951 424.159C495.391 423.652 495.88 423.601 496.418 424.058C497.054 425.326 498.13 425.732 499.451 425.732C516.473 425.732 533.494 425.732 550.467 425.732C552.277 425.732 553.157 425.072 553.108 423.094C553.06 418.529 553.304 413.964 553.011 409.398C552.619 402.956 549.88 397.63 545.185 393.319C543.962 392.203 542.445 391.442 541.614 389.92C541.907 389.261 542.201 388.601 542.494 387.993C550.125 392.659 554.527 399.507 555.603 408.739C556.19 413.812 555.994 418.833 555.994 423.906C556.043 436.536 556.043 449.217 555.994 461.848C555.994 464.536 555.505 467.225 556.141 469.913C556.239 470.471 556.141 470.927 555.75 471.232Z" fill="#5C85B0"/>
<path d="M444.864 503.138C443.983 500.145 444.473 497 443.935 493.956C450.195 493.246 456.456 493.652 462.668 493.449C467.462 493.297 467.511 493.399 466.924 498.37C466.728 499.942 466.532 501.565 466.337 503.138C465.799 503.645 465.163 503.645 464.527 503.645C458.608 503.645 452.641 503.645 446.723 503.645C446.038 503.645 445.402 503.645 444.864 503.138Z" fill="#FEFEFE"/>
<path d="M506.788 466.515C507.424 465.957 508.206 466.16 508.891 466.16C523.125 466.16 537.358 466.16 551.641 466.16C552.864 466.16 554.038 465.855 553.989 467.986C553.94 469.913 553.206 470.116 551.641 470.116C537.799 470.065 523.956 470.065 510.114 470.116C509.136 470.116 508.157 470.217 507.179 470.268C507.081 468.949 506.935 467.732 506.788 466.515Z" fill="#FCFDFD"/>
<path d="M505.908 603.116C516.913 603.065 527.869 603.015 538.875 602.964C540.098 602.964 541.321 602.964 542.543 602.964C545.723 602.964 545.918 602.71 544.793 599.515C542.886 593.884 538.924 590.739 533.25 590.638C522.098 590.435 510.946 590.638 499.793 590.638C499.842 590.181 499.891 589.775 499.891 589.319C510.897 589.319 521.853 589.319 532.859 589.37C539.755 589.42 545.136 594.188 546.456 601.188C546.848 603.268 546.31 604.08 544.158 604.08C532.908 604.029 521.707 604.029 510.457 604.08C509.625 604.08 508.647 603.674 507.913 604.486C507.228 604.08 506.543 603.623 505.908 603.116Z" fill="#5A83AF"/>
<path d="M502.582 538.239C523.419 538.239 544.304 538.239 565.141 538.239C565.141 538.696 565.141 539.102 565.141 539.558C564.261 540.573 563.087 540.522 561.962 540.522C543.131 540.522 524.299 540.522 505.467 540.522C504.587 540.522 503.658 540.522 502.875 540.015C502.777 539.913 502.631 539.761 502.533 539.66C502.533 539.152 502.582 538.696 502.582 538.239Z" fill="#5881AE"/>
<path d="M455.576 603.015C454.304 603.015 453.033 603.015 451.761 603.015C451.027 598.906 450.929 594.746 450.832 590.536C452.935 589.522 455.038 589.522 457.141 590.536C456.897 593.326 456.701 596.167 456.457 598.957C455.723 600.225 455.87 601.696 455.576 603.015Z" fill="#FCFDFD"/>
<path d="M565.043 543.362C544.842 543.362 524.592 543.362 504.391 543.362C503.657 543.362 502.924 543.464 502.19 543.514C502.19 542.196 501.897 540.928 502.484 539.659L502.533 539.71C503.609 541.485 505.369 541.435 507.081 541.435C524.984 541.435 542.886 541.435 560.837 541.435C562.255 541.435 563.82 541.13 565.043 542.297C565.043 542.652 565.043 543.007 565.043 543.362Z" fill="#5881AE"/>
<path d="M504.636 503.087C525.277 503.087 545.918 503.087 566.56 503.087C566.56 503.442 566.56 503.797 566.56 504.152C545.918 504.152 525.277 504.152 504.636 504.152C504.587 503.848 504.636 503.493 504.636 503.087Z" fill="#5881AE"/>
<path d="M506.005 486.449C522.147 486.449 538.239 486.449 554.381 486.449C554.87 486.652 555.163 486.956 554.967 487.514C538.63 487.514 522.293 487.565 506.005 487.565C505.957 487.159 505.957 486.804 506.005 486.449Z" fill="#5881AE"/>
<path d="M447.31 542.246C446.821 540.116 447.701 539.507 449.755 539.609C453.962 539.761 458.168 539.659 462.375 539.609C462.522 540.522 462.473 541.384 462.179 542.246C459.489 543.261 456.75 542.652 454.011 542.652C451.81 542.703 449.511 543.21 447.31 542.246Z" fill="#F6F8FA"/>
<path d="M444.864 503.138C452.006 503.138 459.196 503.138 466.337 503.138C466.337 503.493 466.288 503.848 466.288 504.254C459.147 504.254 452.006 504.254 444.913 504.203C444.815 503.848 444.375 503.493 444.864 503.138Z" fill="#5881AE"/>
<path d="M447.31 542.246C452.25 542.246 457.239 542.246 462.179 542.246C462.082 542.601 462.033 543.007 461.984 543.362C457.288 543.362 452.592 543.362 447.848 543.312C447.457 543.058 447.359 542.703 447.31 542.246Z" fill="#5882AE"/>
<path d="M462.424 539.152C457.435 539.152 452.446 539.152 447.408 539.152C447.408 539 447.408 538.848 447.408 538.645C452.397 538.645 457.435 538.645 462.424 538.645C462.424 538.848 462.424 539 462.424 539.152Z" fill="#5882AF"/>
<path d="M457.044 590.536C454.94 590.536 452.837 590.536 450.734 590.536C450.734 590.181 450.685 589.775 450.685 589.42C452.886 589.369 455.087 589.268 457.288 589.217C457.239 589.674 457.142 590.13 457.044 590.536Z" fill="#6289B3"/>
<path d="M624.326 504.203C642.326 504.203 660.277 504.203 678.277 504.152C680.038 504.152 680.674 504.507 680.625 506.485C680.527 516.275 680.527 526.065 680.625 535.855C680.625 537.783 680.087 538.239 678.277 538.239C660.962 538.188 643.647 538.188 626.283 538.188C625.647 526.877 625.011 515.565 624.326 504.203Z" fill="#FEFEFE"/>
<path d="M626.821 487.514C643.842 487.514 660.815 487.565 677.837 487.514C680.087 487.514 680.821 488.123 680.674 490.456C680.478 493.804 680.478 497.203 680.674 500.601C680.772 502.783 679.989 503.239 678.033 503.188C660.13 503.087 642.228 503.138 624.326 503.138C624.13 499.942 623.886 496.746 623.69 493.551C623.446 492.993 623.299 492.384 623.739 491.927C624.962 490.609 625.549 488.783 626.821 487.514Z" fill="#FEFEFE"/>
<path d="M602.755 612.246C598.696 613.92 595.272 616.913 591.163 618.942C590.918 616.609 590.723 614.478 590.527 612.348C590.576 602.913 590.527 593.478 590.772 584.043C591.065 570.5 590.918 556.906 591.652 543.362C594.245 542.043 596.788 541.942 599.331 543.514C600.408 566.442 601.581 589.319 602.755 612.246Z" fill="#FEFEFE"/>
<path d="M626.821 487.514C626.723 490.051 624.228 491.217 623.69 493.5C622.663 492.08 621.245 494.261 620.168 493.145C619.386 491.927 619.924 490.71 620.071 489.493C620.315 487.261 620.853 485.08 620.902 482.797C620.022 484.826 620.022 487.007 619.533 489.138C619.239 490.507 619.386 492.029 618.31 493.094C617.527 493.5 616.745 492.993 615.962 492.993C615.179 492.232 615.522 491.268 615.62 490.406C616.06 487.667 616.402 484.927 616.647 482.188C615.766 484.471 615.668 486.906 615.179 489.29C614.935 490.406 615.033 491.674 613.908 492.435C611.804 491.167 610.875 489.239 611.022 486.753C611.119 484.826 610.581 482.898 611.022 480.971C611.266 477.065 612.293 473.261 612.44 469.355C611.266 471.536 612.098 474.326 610.435 476.355C608.136 472.956 608.821 469.406 610.141 465.956C610.924 463.877 612.098 461.949 613.076 459.92C618.75 460.985 624.424 462.051 630.098 463.116C630.685 463.775 630.685 464.384 630.049 464.993C629.951 465.348 629.853 465.754 629.707 466.109C630.489 467.529 630.098 468.797 629.217 470.014C629.217 470.42 629.168 470.775 629.168 471.181C629.658 471.84 629.511 472.601 629.462 473.362C629.12 477.065 628.533 480.717 627.995 484.369C627.897 485.13 627.701 485.84 627.163 486.398C627.016 486.804 626.918 487.159 626.821 487.514Z" fill="#FD9993"/>
<path d="M554.918 487.514C554.723 487.159 554.527 486.804 554.332 486.449C553.451 483.761 553.842 481.123 554.381 478.485C554.87 476.101 555.261 473.667 555.701 471.283C555.75 470.877 555.75 470.522 555.799 470.116C555.457 469.254 555.75 468.493 556.337 467.884C560.103 468.645 563.87 469.355 567.636 470.116C567.538 474.935 567.489 479.754 567.342 484.572C567.294 486.399 567.147 488.225 567 490.051C566.071 490.406 565.288 491.116 564.212 491.065C563.332 490.203 563.821 489.188 563.967 488.225C564.408 485.587 565.043 483.051 565.19 480.362C564.408 482.899 563.967 485.536 563.429 488.174C563.185 489.239 563.234 490.406 562.109 491.014C561.326 490.862 560.592 490.71 559.81 490.507C559.076 488.985 559.81 487.565 560.054 486.094C560.397 483.913 560.984 481.732 561.033 479.5C560.005 482.239 559.712 485.181 559.027 487.971C558.832 488.833 559.076 489.899 558.049 490.355C557.022 489.391 555.995 488.427 554.918 487.514Z" fill="#FD9993"/>
<path d="M597.277 504.254C597.815 515.565 598.353 526.928 598.891 538.239C596.446 539.304 594.049 539.304 591.603 538.239C591.799 526.928 591.995 515.565 592.19 504.254C593.902 503.138 595.565 503.138 597.277 504.254Z" fill="#FEFEFE"/>
<path d="M565.092 542.246C544.989 542.246 524.837 542.196 504.734 542.297C502.63 542.297 502.19 541.536 502.581 539.66C503.364 539.609 504.196 539.507 504.978 539.507C525.033 539.507 545.087 539.507 565.141 539.507C565.141 540.471 565.092 541.333 565.092 542.246Z" fill="#F4F7F9"/>
<path d="M626.381 539.609C643.745 539.609 661.06 539.558 678.424 539.558C679.402 539.558 680.674 539.152 680.576 541.029C680.527 542.754 679.305 542.246 678.424 542.246C661.158 542.297 643.892 542.297 626.625 542.297C626.332 541.435 626.332 540.522 626.381 539.609Z" fill="#FEFEFE"/>
<path d="M592.19 502.986C592.288 497.862 592.386 492.739 592.484 487.565C593.756 486.449 595.027 486.399 596.348 487.565C596.642 492.739 596.935 497.913 597.228 503.087C595.517 503.949 593.853 504.102 592.19 502.986Z" fill="#FCFCFB"/>
<path d="M595.467 471.181C596.103 476.254 596.152 481.326 596.348 486.399C595.076 487.159 593.804 487.109 592.484 486.399C592.288 481.326 592.288 476.254 592.484 471.13C593.462 470.42 594.489 470.42 595.467 471.181Z" fill="#FDFDFC"/>
<path d="M618.31 493.094C618.848 489.493 619.386 485.942 619.924 482.341C620.022 481.681 620.168 480.87 621 480.92C622.076 480.971 621.929 481.935 621.782 482.645C621.244 486.145 620.706 489.645 620.168 493.094C619.728 493.5 619.924 494.514 619.043 494.362C618.31 494.312 618.407 493.652 618.31 493.094Z" fill="#080504"/>
<path d="M613.957 492.435C614.543 488.935 615.082 485.486 615.717 481.986C615.815 481.326 615.669 480.21 616.794 480.312C618.114 480.413 617.625 481.478 617.527 482.29C617.038 485.891 616.5 489.442 616.011 493.044C614.984 493.906 614.25 493.906 613.957 492.435Z" fill="#060404"/>
<path d="M610.435 476.355C610.826 473.768 611.168 471.232 611.56 468.645C611.658 467.985 611.951 467.478 612.636 467.58C613.369 467.63 613.516 468.188 613.418 468.848C612.783 472.703 612.147 476.609 611.462 480.464C611.413 480.667 611.12 480.819 610.973 480.971C609.897 480.869 609.701 480.261 609.946 479.246C610.239 478.283 610.288 477.319 610.435 476.355Z" fill="#080505"/>
<path d="M599.136 540.268C599.136 540.928 599.136 541.587 599.185 542.246C596.641 543.007 594.098 543.007 591.603 542.246C591.603 541.333 591.603 540.471 591.603 539.558C594.196 538.899 596.788 537.986 599.136 540.268Z" fill="#F4F5F7"/>
<path d="M599.136 540.268C597.717 538.797 596.005 539.812 594.44 539.609C593.511 539.456 592.533 539.609 591.603 539.609C591.603 539.152 591.603 538.696 591.603 538.29C594.049 538.29 596.446 538.29 598.891 538.29C598.94 538.898 599.038 539.558 599.136 540.268Z" fill="#5881AE"/>
<path d="M591.555 542.246C594.098 542.246 596.642 542.246 599.136 542.246C599.185 542.703 599.185 543.109 599.234 543.565C596.691 543.514 594.098 543.464 591.555 543.413C591.555 543.007 591.555 542.601 591.555 542.246Z" fill="#6389B2"/>
<path d="M592.19 502.986C593.853 503.036 595.565 503.087 597.228 503.138C597.228 503.493 597.277 503.899 597.277 504.254C595.566 504.254 593.902 504.254 592.19 504.254C592.19 503.797 592.19 503.391 592.19 502.986Z" fill="#5A7FA8"/>
<path d="M592.484 486.449C593.755 486.449 595.076 486.449 596.348 486.449C596.348 486.855 596.348 487.21 596.348 487.616C595.076 487.616 593.804 487.616 592.484 487.616C592.484 487.21 592.484 486.804 592.484 486.449Z" fill="#6289B3"/>
<path d="M595.467 471.181C594.489 471.181 593.462 471.181 592.484 471.181C592.484 470.826 592.484 470.522 592.484 470.167C593.462 469.812 594.44 469.812 595.418 470.167C595.418 470.522 595.467 470.877 595.467 471.181Z" fill="#5881AE"/>
<path d="M595.418 470.217C594.44 470.217 593.462 470.217 592.484 470.217C593.462 469.456 594.44 469.254 595.418 470.217Z" fill="#BFCEDF"/>
<path d="M630.049 464.993C630.049 464.384 630.098 463.725 630.098 463.116C631.076 460.326 630.929 457.333 631.32 454.442C632.445 445.667 633.522 436.891 634.598 428.065C635.478 428.014 636.359 427.862 637.288 427.862C659.299 427.862 681.261 427.913 703.272 427.812C705.571 427.812 706.06 428.572 706.06 430.804C705.962 441.456 705.962 452.109 706.06 462.761C706.06 464.485 705.668 465.094 703.908 465.043C679.206 465.043 654.652 465.043 630.049 464.993Z" fill="#FEFEFE"/>
<path d="M556.337 467.833C556.141 468.594 555.995 469.355 555.799 470.065C554.723 469.355 555.212 468.239 555.212 467.275C555.163 449.268 555.163 431.312 555.212 413.304C555.212 406.913 553.94 400.928 550.027 395.754C548.364 393.522 546.408 391.645 544.158 390.072C543.473 389.565 542.495 389.261 542.544 388.094C542.592 385.406 542.69 382.667 542.739 379.978C548.853 382.007 553.451 386.217 557.12 391.493C561.179 397.326 563.283 403.92 563.234 411.174C563.234 414.471 563.234 417.768 563.234 421.065C561.669 431.413 560.054 441.812 558.538 452.159C557.804 457.384 556.631 462.507 556.337 467.833Z" fill="#FEFEFE"/>
<path d="M614.543 422.08C613.907 430.551 613.272 439.072 612.587 447.543C612.538 448.304 612.88 449.522 611.657 449.471C610.288 449.42 610.728 448.203 610.777 447.341C611.364 439.681 611.902 432.022 612.538 424.413C612.978 418.783 611.755 413.355 611.364 407.826C611.315 407.42 611.217 407.014 611.168 406.558C611.07 405.797 610.875 404.884 611.902 404.732C612.88 404.58 612.978 405.493 613.076 406.304C613.369 408.841 613.712 411.326 613.907 413.862C614.054 416.551 614.739 419.29 614.543 422.08Z" fill="#FBFBFC"/>
<path d="M289.957 465.043C284.429 465.043 278.902 464.993 273.326 465.043C271.81 465.043 270.538 464.688 269.266 463.775C247.451 448.862 226.761 432.225 205.582 416.399C194.576 408.181 183.669 399.761 172.614 391.543C170.804 390.174 170.853 389.514 172.272 387.841C183.228 374.703 194.136 361.464 204.995 348.225C206.169 346.804 206.853 346.956 208.125 347.971C241.239 373.942 274.353 399.913 307.468 425.783C308.984 426.949 309.62 428.116 309.62 430.145C309.522 440.898 309.522 451.601 309.62 462.355C309.62 464.384 309.228 465.145 307.125 465.094C301.353 464.942 295.679 465.043 289.957 465.043Z" fill="#FEFEFE"/>
<path d="M257.87 210.051C286.19 210.051 314.56 210.101 342.881 210C345.082 210 345.571 210.609 345.571 212.841C345.424 221.717 345.473 230.594 345.571 239.471C345.571 241.348 345.082 241.906 343.223 241.906C315.685 241.855 288.147 241.855 260.658 241.906C258.897 241.906 258.359 241.297 258.506 239.572C258.603 238.558 258.603 237.543 258.506 236.529C258.31 234.348 258.603 232.928 261.049 232.065C263.935 231.051 265.158 227.449 264.424 224.203C263.788 221.312 260.951 218.978 258.016 218.877C254.984 218.775 252 221.159 251.315 224.101C250.533 227.399 251.707 230.899 254.641 231.964C257.332 232.928 257.283 234.703 257.283 236.935C257.185 241.855 257.234 241.855 252.538 241.855C226.076 241.855 199.614 241.804 173.152 241.906C170.951 241.906 170.218 241.399 170.266 238.964C170.413 230.188 170.413 221.362 170.266 212.587C170.218 210.406 170.951 210 172.908 210C201.179 210.051 229.549 210.051 257.87 210.051Z" fill="#FEFEFE"/>
<path d="M152.462 419.746C152.462 432.935 152.413 446.073 152.511 459.261C152.56 461.797 151.777 462.406 149.478 462.254C145.516 462.051 141.506 462.152 137.495 462.203C136.027 462.254 135.489 461.797 135.489 460.225C135.538 433.036 135.538 405.848 135.489 378.659C135.489 377.087 136.027 376.63 137.495 376.681C141.652 376.783 145.81 376.783 149.968 376.681C151.875 376.63 152.462 377.188 152.462 379.217C152.413 392.71 152.462 406.203 152.462 419.746Z" fill="#FEFEFE"/>
<path d="M162.049 576.587C162.049 579.732 162.098 582.826 162.049 585.971C162 587.645 162.391 588.406 164.201 588.355C168.408 588.203 172.663 588.254 176.87 588.355C178.63 588.406 179.071 587.746 179.022 586.022C178.924 581.964 179.071 577.906 178.973 573.848C178.924 572.123 179.462 571.717 181.027 571.717C185.821 571.717 186.31 572.022 187.679 576.739C190.467 586.377 185.723 596.674 176.723 600.428C167.87 604.13 157.598 600.174 153.147 591.297C148.745 582.522 151.533 571.514 159.652 566.138C160.288 565.681 161.022 564.768 161.755 565.326C162.147 565.63 162.049 566.746 162.049 567.457C162.049 570.5 162.049 573.543 162.049 576.587Z" fill="#FEFEFE"/>
<path d="M178.973 512.775C178.973 505.167 179.071 497.609 178.924 490C178.875 487.92 179.511 487.413 181.419 487.514C184.109 487.667 186.799 487.616 189.489 487.514C190.761 487.464 191.397 487.819 191.397 489.34C191.348 505.014 191.348 520.739 191.397 536.413C191.397 537.935 190.81 538.239 189.489 538.239C186.652 538.188 183.815 538.138 180.929 538.239C179.217 538.34 178.924 537.63 178.924 536.058C179.022 528.297 178.973 520.536 178.973 512.775Z" fill="#FEFEFE"/>
<path d="M291.033 470.065C284.772 470.065 278.511 470.014 272.201 470.116C270.636 470.116 269.413 469.659 268.142 468.797C236.201 446.478 204.261 424.21 172.321 401.942C171.294 401.232 170.315 400.775 171.44 399.101C172.614 397.326 173.397 398.391 174.326 399.051C200.69 417.413 227.055 435.775 253.321 454.188C258.017 457.486 262.566 461.087 267.114 464.638C268.533 465.754 270 466.261 271.81 466.261C284.772 466.21 297.685 466.21 310.647 466.21C311.968 466.21 312.946 466.109 312.897 468.087C312.848 469.862 312.261 470.167 310.745 470.167C304.239 470.014 297.636 470.065 291.033 470.065Z" fill="#FEFEFE"/>
<path d="M177.408 558.58C181.223 558.58 185.038 558.681 188.853 558.529C190.663 558.478 191.543 558.884 191.397 561.014C191.201 563.449 191.25 565.935 191.397 568.37C191.495 570.094 191.005 570.754 189.245 570.652C186.163 570.5 183.081 570.703 180 570.601C178.337 570.551 177.897 571.159 177.946 572.783C178.043 576.841 177.897 580.899 177.995 584.956C178.043 586.63 177.554 587.138 175.94 587.087C172.272 586.985 168.603 587.036 164.984 587.087C163.761 587.087 163.272 586.681 163.272 585.362C163.321 576.993 163.321 568.674 163.272 560.304C163.272 558.935 163.81 558.58 165.033 558.58C169.092 558.63 173.25 558.58 177.408 558.58Z" fill="#FEFEFE"/>
<path d="M152.462 474.935C152.462 478.13 152.413 481.326 152.462 484.572C152.511 485.942 152.168 486.551 150.701 486.5C146.25 486.398 141.75 486.449 137.299 486.5C136.076 486.5 135.538 486.196 135.538 484.826C135.587 478.333 135.587 471.841 135.538 465.348C135.538 463.826 136.125 463.471 137.397 463.522C141.799 463.572 146.201 463.623 150.554 463.522C152.168 463.471 152.462 464.181 152.413 465.652C152.413 468.696 152.462 471.79 152.462 474.935Z" fill="#FEFEFE"/>
<path d="M178.973 549.855C179.119 548.08 178.043 545.239 179.364 543.87C180.782 542.399 183.522 543.413 185.723 543.413C191.348 543.362 191.348 543.413 191.348 549.145C191.348 551.326 191.299 553.558 191.348 555.739C191.397 557.007 191.005 557.565 189.685 557.515C186.652 557.464 183.668 557.413 180.636 557.515C179.168 557.565 178.875 556.906 178.924 555.587C179.071 553.761 178.973 551.986 178.973 549.855Z" fill="#FEFEFE"/>
<path d="M257.869 225.268C256.744 226.942 257.38 228.667 257.282 230.29C257.234 231.659 256.842 231.862 255.668 231.355C253.272 230.341 251.853 227.601 252.293 224.761C252.734 222.123 255.13 220.094 257.918 220.094C260.657 220.094 262.956 222.022 263.494 224.812C263.984 227.551 262.467 230.391 260.071 231.406C258.848 231.913 258.603 231.507 258.505 230.239C258.407 228.667 259.092 226.942 257.869 225.268Z" fill="#FDFEFE"/>
<path d="M159.114 542.246C153.342 542.246 147.571 542.246 141.799 542.246C140.967 542.246 139.94 542.551 139.891 541.029C139.842 539.406 140.821 539.558 141.799 539.558C153.196 539.558 164.543 539.558 175.94 539.558C176.869 539.558 177.946 539.254 177.946 540.928C177.946 542.652 176.772 542.246 175.891 542.246C170.315 542.246 164.739 542.246 159.114 542.246Z" fill="#FEFEFE"/>
<path d="M185.087 542.246C183.473 542.246 181.859 542.196 180.245 542.246C179.266 542.246 178.973 541.841 179.022 540.877C179.022 539.913 179.413 539.507 180.294 539.558C183.522 539.558 186.75 539.609 189.978 539.558C191.054 539.558 191.397 540.014 191.348 541.08C191.348 542.145 190.712 542.246 189.929 542.246C188.315 542.246 186.701 542.246 185.087 542.246Z" fill="#FDFDFD"/>
<path d="M219.522 429.13C219.766 429.13 220.011 429.08 220.207 429.08C221.429 429.536 222.408 430.348 223.777 431.92C221.821 431.007 220.647 430.145 219.522 429.13Z" fill="#B6C8DB"/>
<path d="M228.13 435.014C227.152 435.014 226.761 434.406 226.125 433.797C227.201 433.645 227.641 434.152 228.13 435.014Z" fill="#7799BD"/>
<path d="M439.533 381.449C437.967 383.022 437.821 381.145 437.185 380.435C432.342 367.703 427.451 354.971 422.609 342.239C421.484 339.246 420.31 336.304 419.234 333.312C418.94 332.5 417.766 331.333 419.185 330.725C420.554 330.116 420.603 331.739 420.897 332.551C425.788 345.283 430.679 358.014 435.522 370.746C436.549 373.485 437.576 376.225 438.603 378.964C438.946 379.775 439.239 380.638 439.533 381.449Z" fill="#FBFBFB"/>
<path d="M399.522 302.826C400.451 303.486 401.331 304.5 402.359 304.703C405.049 305.312 405.44 307.036 405.293 309.522C405 314.544 405.636 319.616 404.951 324.638C403.19 318.449 401.478 312.261 399.717 306.073C399.424 305.007 399.228 303.942 399.522 302.826Z" fill="#FDFCFC"/>
<path d="M424.369 328.138C424.369 324.993 424.369 321.797 424.369 318.652C424.369 317.638 424.516 316.928 425.641 317.841C426.081 319.362 426.57 320.884 426.864 322.457C427.353 324.942 426.522 326.87 424.369 328.138Z" fill="#FCFAFA"/>
<path d="M429.652 290.094C429.554 291.159 429.114 291.717 428.136 291.768C427.256 291.819 426.717 291.362 426.669 290.449C426.62 289.486 426.962 288.775 427.989 288.674C428.967 288.572 429.359 289.333 429.652 290.094Z" fill="#0E0808"/>
<path d="M627.163 486.449C627.848 481.377 628.533 476.304 629.218 471.232C660.082 471.232 690.946 471.283 721.81 471.181C723.913 471.181 724.647 471.688 724.5 473.971C724.304 477.268 724.304 480.565 724.5 483.862C724.598 485.942 724.06 486.601 721.957 486.551C710.071 486.449 698.185 486.5 686.299 486.5C666.538 486.449 646.826 486.449 627.163 486.449Z" fill="#FEFEFE"/>
<path d="M725.478 419.493C725.478 406.051 725.527 392.609 725.429 379.217C725.429 377.239 725.869 376.58 727.826 376.681C731.886 376.833 735.945 376.783 740.054 376.681C741.57 376.63 742.206 377.036 742.206 378.761C742.157 405.899 742.157 432.985 742.206 460.123C742.206 461.797 741.766 462.304 740.152 462.254C735.994 462.152 731.837 462.101 727.679 462.254C725.723 462.355 725.429 461.594 725.429 459.768C725.478 446.377 725.478 432.935 725.478 419.493Z" fill="#FEFEFE"/>
<path d="M711.196 564.971C718.679 568.268 723.082 576.739 721.957 585.058C720.832 593.478 714.082 600.58 706.304 601.544C698.723 602.457 692.413 599.971 688.06 593.377C683.902 587.087 683.658 580.341 686.837 573.442C687.522 572.022 692.658 570.957 693.783 571.971C694.37 572.478 694.125 573.239 694.125 573.899C694.174 578.058 694.174 582.167 694.125 586.326C694.076 587.899 694.614 588.406 696.082 588.355C700.386 588.254 704.69 588.254 708.995 588.355C710.755 588.406 711.245 587.696 711.196 585.971C711.098 579.884 711.147 573.797 711.147 567.71C711.196 566.899 711.196 566.087 711.196 564.971Z" fill="#FEFEFE"/>
<path d="M694.174 512.927C694.174 520.536 694.076 528.094 694.223 535.703C694.272 537.884 693.587 538.442 691.631 538.29C689.038 538.138 686.446 538.188 683.804 538.29C682.435 538.34 681.799 538.036 681.799 536.362C681.848 520.739 681.848 505.167 681.799 489.543C681.799 487.92 682.386 487.514 683.804 487.565C686.544 487.667 689.332 487.717 692.12 487.565C693.929 487.464 694.223 488.225 694.223 489.898C694.125 497.558 694.174 505.217 694.174 512.927Z" fill="#FEFEFE"/>
<path d="M695.886 558.58C699.945 558.58 704.005 558.631 708.065 558.58C709.386 558.58 709.924 558.935 709.924 560.457C709.875 568.725 709.875 576.993 709.924 585.261C709.924 586.478 709.679 587.138 708.31 587.087C704.494 587.036 700.679 587.036 696.864 587.087C695.299 587.138 695.201 586.275 695.201 585.007C695.25 580.899 695.152 576.739 695.25 572.631C695.299 571.058 694.81 570.551 693.293 570.602C690.114 570.703 686.935 570.551 683.804 570.652C682.386 570.703 681.75 570.348 681.799 568.725C681.945 566.036 681.945 563.297 681.799 560.609C681.701 558.783 682.483 558.529 683.951 558.529C687.913 558.631 691.924 558.58 695.886 558.58Z" fill="#FEFEFE"/>
<path d="M742.158 474.935C742.158 478.13 742.109 481.377 742.207 484.572C742.256 485.942 741.913 486.5 740.446 486.5C735.995 486.399 731.495 486.449 727.044 486.5C725.919 486.5 725.478 486.145 725.478 484.928C725.527 478.333 725.527 471.739 725.478 465.196C725.478 463.826 726.016 463.522 727.19 463.522C731.592 463.572 735.995 463.572 740.348 463.522C741.717 463.522 742.207 463.928 742.158 465.399C742.109 468.543 742.158 471.739 742.158 474.935Z" fill="#FEFEFE"/>
<path d="M629.218 470.065C629.364 468.746 629.56 467.478 629.707 466.159C658.859 466.159 688.06 466.159 717.212 466.159C718.875 466.159 720.098 466.21 719.804 468.493C719.658 469.659 719.315 470.217 718.19 470.116C718.044 470.116 717.848 470.116 717.701 470.116C688.207 470.065 658.712 470.065 629.218 470.065Z" fill="#FCFDFD"/>
<path d="M694.174 550.514C694.174 552.188 694.076 553.913 694.223 555.587C694.37 557.21 693.685 557.565 692.266 557.514C689.429 557.413 686.544 557.413 683.707 557.514C682.141 557.565 681.799 556.956 681.848 555.435C681.946 552.036 681.946 548.688 681.848 545.29C681.799 543.667 682.435 543.261 683.853 543.312C686.69 543.413 689.576 543.413 692.413 543.312C693.734 543.261 694.37 543.667 694.272 545.138C694.076 546.913 694.174 548.739 694.174 550.514Z" fill="#FEFEFE"/>
<path d="M718.679 542.247C711.587 542.247 704.495 542.247 697.402 542.247C696.473 542.247 695.152 542.754 695.201 540.826C695.25 539.102 696.473 539.558 697.304 539.558C711.538 539.558 725.821 539.558 740.054 539.558C740.935 539.558 742.06 539.203 742.109 540.877C742.158 542.602 741.033 542.247 740.103 542.247C733.011 542.247 725.821 542.247 718.679 542.247Z" fill="#FEFEFE"/>
<path d="M688.109 542.246C686.495 542.246 684.881 542.246 683.266 542.246C682.484 542.246 681.848 542.145 681.848 541.08C681.848 540.014 682.19 539.558 683.217 539.558C686.446 539.609 689.674 539.609 692.902 539.558C693.832 539.558 694.174 539.964 694.174 540.877C694.174 541.79 693.88 542.246 692.951 542.246C691.337 542.196 689.723 542.246 688.109 542.246Z" fill="#FEFEFE"/>
<path d="M587.739 330.928C587.739 331.993 587.299 332.551 586.468 332.652C585.636 332.703 585.098 332.196 585.049 331.333C585 330.471 585.44 329.862 586.272 329.812C587.201 329.66 587.593 330.268 587.739 330.928Z" fill="#0F0909"/>
<path d="M462.521 408.283C462.717 407.116 462.864 405.949 463.059 404.732C465.309 402.246 468.391 401.029 471.081 399.152C473.918 397.225 476.804 395.348 479.837 393.725C482.527 392.254 484.679 390.478 484.826 387.029C486.636 386.674 485.462 389.007 486.636 389.21C488.054 388.551 489.424 387.891 490.5 386.674C482.723 386.623 474.945 386.674 467.168 386.674C465.848 386.674 464.576 386.674 463.402 385.964C463.255 385.812 463.108 385.71 463.011 385.558C463.94 384.341 465.212 384.696 466.386 384.696C474.261 384.645 482.136 384.594 490.011 384.696C492.652 384.746 494.951 384.188 497.152 382.616C498.815 381.449 500.576 380.333 502.386 379.37C504.636 378.152 505.271 378.507 505.614 381.297C507.864 386.471 510.163 391.696 512.413 396.87C503.217 403.109 493.092 406.659 482.282 408.181C475.63 409.196 469.076 409.196 462.521 408.283Z" fill="#6DB5DE"/>
<path d="M505.565 381.398C504.831 379.014 503.56 379.116 501.945 380.485C496.761 384.898 490.842 386.116 484.19 385.659C477.147 385.203 470.005 385.609 462.913 385.609C459.342 384.138 455.478 384.188 451.761 383.326C451.174 377.29 451.174 377.29 456.945 377.29C475.19 377.341 493.435 377.341 511.63 377.391C509.918 379.167 507.668 380.13 505.565 381.398Z" fill="#FEFEFE"/>
<path d="M441.489 200.109C441.538 199.5 441.587 198.942 441.587 198.333C441.587 165.21 441.587 132.036 441.587 98.9132C441.587 98.3045 441.538 97.7465 441.489 97.1378C441.978 96.2247 442.81 96.6813 443.446 96.6813C475.581 96.6305 507.766 96.6813 539.902 96.6813C540.489 96.6813 541.027 96.6305 541.614 96.8334C542.397 97.7972 542.005 98.9132 542.005 99.9784C542.005 132.391 542.005 164.754 542.005 197.167C542.005 198.181 542.054 199.196 542.054 200.21C541.418 201.073 540.538 200.616 539.804 200.616C507.766 200.616 475.679 200.616 443.641 200.616C442.956 200.616 442.027 201.073 441.489 200.109Z" fill="#FEFEFE"/>
<path d="M494.707 208.935C495.343 209.747 495.049 210.71 495.049 211.623C495.049 265.544 495.049 319.413 495.049 373.333C495.049 374.247 495.294 375.21 494.658 376.022C491.919 376.073 489.18 376.377 486.44 375.87C486 375.007 486.196 374.044 486.196 373.131C486.196 319.312 486.196 265.544 486.196 211.725C486.196 210.812 486 209.848 486.392 208.986C489.18 208.58 491.919 208.681 494.707 208.935Z" fill="#FEFEFE"/>
<path d="M542.103 202.087C541.761 203.913 542.543 205.841 541.614 207.616C540.734 207.92 539.853 207.768 538.924 207.768C507.326 207.768 475.777 207.768 444.179 207.768C443.299 207.768 442.272 208.225 441.489 207.312C441.587 205.384 441.685 203.457 441.782 201.529C442.712 201.884 443.739 201.732 444.668 201.732C476.315 201.732 507.962 201.732 539.56 201.783C540.44 201.681 541.369 201.225 542.103 202.087Z" fill="#FEFEFE"/>
<path d="M486.391 208.986C486.391 264.631 486.391 320.225 486.391 375.87C485.609 375.109 485.902 374.145 485.902 373.232C485.902 319.362 485.902 265.493 485.902 211.623C485.951 210.761 485.658 209.746 486.391 208.986Z" fill="#6D91B8"/>
<path d="M441.489 200.109C442.321 200.565 443.25 200.413 444.13 200.413C475.924 200.413 507.668 200.413 539.462 200.413C540.342 200.413 541.223 200.261 542.103 200.21C541.614 201.225 540.734 200.92 539.951 200.92C507.815 200.92 475.679 200.92 443.592 200.92C442.859 200.87 441.929 201.225 441.489 200.109Z" fill="#6D91B8"/>
<path d="M542.103 202.087C541.076 201.631 540 201.783 538.973 201.783C507.62 201.783 476.266 201.783 444.913 201.783C443.886 201.783 442.81 202.036 441.783 201.478C458.315 201.478 474.848 201.428 491.332 201.428C507.375 201.428 523.419 201.428 539.462 201.428C540.343 201.428 541.468 200.92 542.103 202.087Z" fill="#639CC7"/>
<path d="M441.489 207.261C442.516 207.768 443.592 207.565 444.619 207.565C476.951 207.565 509.282 207.565 541.614 207.616C540.929 208.275 540.049 208.022 539.266 208.022C507.522 208.022 475.826 208.022 444.081 208.022C443.201 207.971 442.076 208.478 441.489 207.261Z" fill="#639CC7"/>
<path d="M541.614 96.8334C509.282 96.8334 476.951 96.8334 444.619 96.8841C443.592 96.8841 442.516 96.6812 441.489 97.1884C441.929 96.1232 442.859 96.4783 443.592 96.4783C475.63 96.4783 507.717 96.4783 539.755 96.4783C540.391 96.4276 541.076 96.2754 541.614 96.8334Z" fill="#639CC7"/>
<path d="M494.707 208.935C491.967 208.935 489.179 208.986 486.44 208.986C489.179 208.174 491.919 208.275 494.707 208.935Z" fill="#639CC7"/>
<path d="M486.44 375.87C489.179 375.92 491.918 375.971 494.658 376.022C491.918 376.529 489.179 376.732 486.44 375.87Z" fill="#639CC7"/>
<path d="M612.147 326.16C611.462 323.015 610.484 320.022 608.625 317.333C606.473 314.188 603.342 312.717 599.918 311.754C596.788 308.406 596.25 303.942 595.369 299.681C595.076 298.21 594.733 296.739 594.782 295.167C594.831 293.391 595.614 292.529 597.326 292.478C599.429 292.428 601.581 292.478 603.685 292.428C601.777 292.275 599.869 292.377 597.913 292.326C595.174 292.225 594.489 291.515 594.831 288.522C595.418 282.739 596.935 277.261 599.723 272.188C606.815 259.406 617.527 252.355 631.516 250.478C634.402 250.073 635.136 250.833 635.185 253.928C635.234 255.855 635.185 257.833 635.233 259.761C635.38 257.58 635.234 255.348 635.331 253.167C635.478 250.935 636.114 250.225 638.217 250.428C646.679 251.341 654.358 254.232 660.913 260.015C669.619 267.674 674.413 277.362 675.587 289.08C675.831 291.362 675.244 292.123 672.897 292.275C670.793 292.377 668.641 292.275 666.538 292.377C668.69 292.529 670.842 292.377 673.043 292.478C675.195 292.58 675.782 293.341 675.587 295.522C673.973 314.594 660.815 329.862 642.668 333.667C641.886 333.819 641.054 333.819 640.223 333.971C635.478 334.631 635.282 334.478 635.233 329.406C635.233 327.884 635.282 326.362 635.136 324.486C635.038 327.174 635.136 329.457 635.087 331.739C635.038 333.515 634.157 334.478 632.494 334.275C625.598 333.616 619.092 331.688 613.272 327.631C612.782 327.377 612.391 326.768 612.147 326.16Z" fill="#FEFEFE"/>
<path d="M593.902 310.486C587.593 293.087 589.696 276.957 601.044 262.449C616.06 243.225 645.017 240.435 663.31 256.362C683.609 274.015 685.614 303.688 667.908 324.13C655.337 338.638 633.228 343.101 616.353 334.529C615.131 333.92 613.859 333.261 612.636 332.652C612.587 331.13 612.538 329.659 612.489 328.138C613.37 327.478 614.054 328.239 614.69 328.594C630.049 337.167 645.065 336.457 659.25 326.007C668.25 319.362 673.533 309.978 675.098 298.565C677.006 284.87 673.19 273 664.093 263.058C657.929 256.362 650.25 252.254 641.299 250.986C627.555 249.058 615.669 253.065 606.082 263.413C598.745 271.326 594.93 280.812 594.93 291.971C594.93 297.804 595.859 303.333 597.962 308.71C598.305 309.623 598.647 310.435 597.864 311.297C596.544 311.094 595.223 310.79 593.902 310.486Z" fill="#FEFEFE"/>
<path d="M597.864 311.399C598.158 310.435 597.668 309.573 597.375 308.71C587.25 282.181 603.245 253.826 630.44 250.174C651.864 247.283 672.652 263.667 675.685 285.833C678.962 310.08 663.701 331.333 640.369 334.631C631.761 335.848 623.494 334.225 615.815 329.913C614.739 329.304 613.81 328.442 612.587 328.188C612.489 327.529 612.342 326.87 612.244 326.159C618.31 330.623 625.06 333.007 632.397 333.768C634.207 333.971 634.842 333.464 634.744 331.486C634.598 328.594 634.696 325.703 634.696 322.558C636.114 323.065 635.918 323.928 635.918 324.587C635.967 326.87 636.065 329.152 635.918 331.435C635.772 333.312 636.31 333.92 638.217 333.768C657.636 332.5 673.973 315.406 675.147 295.116C675.244 293.645 674.951 292.935 673.337 293.036C670.891 293.138 668.446 293.087 666 293.036C665.462 293.036 664.581 293.239 664.581 292.478C664.532 291.464 665.511 291.768 666.098 291.768C668.543 291.717 670.989 291.667 673.435 291.768C674.804 291.819 675.245 291.362 675.196 289.891C674.511 271.022 659.201 253.775 641.054 251.493C635.967 250.833 636.016 250.833 635.967 256.261C635.967 258.239 636.261 260.217 635.38 262.145C634.402 260.37 634.793 258.442 634.793 256.616C634.744 250.732 634.793 250.732 629.071 251.544C611.56 254.13 596.935 270.413 595.614 288.674C595.418 291.109 595.956 291.971 598.451 291.768C601.043 291.515 603.685 291.717 606.277 292.225C604.174 293.29 602.022 292.986 599.918 292.986C595.174 293.036 595.272 292.986 595.956 298.058C596.592 302.877 598.109 307.391 600.114 311.754C599.234 311.652 598.549 311.5 597.864 311.399Z" fill="#5983AF"/>
<path d="M541.712 390.022C549.196 394.232 553.207 400.877 553.843 409.5C554.234 414.522 553.843 419.645 553.94 424.717C553.989 426.391 553.353 426.645 551.935 426.645C534.033 426.594 516.082 426.594 498.179 426.696C495.929 426.696 496.174 425.428 496.125 424.058C496.027 422.638 497.25 422.333 498.033 421.725C503.364 417.87 508.891 414.319 514.37 410.667C516.082 409.551 517.011 408.435 516.473 406.304C519.946 402.399 524.299 399.609 528.457 396.616C530.609 395.043 532.614 393.065 535.305 392.507C537.848 392.812 540.049 392.101 541.712 390.022Z" fill="#FEFEFE"/>
<path d="M516.62 406.406C517.647 408.333 517.256 409.5 515.299 410.768C509.429 414.522 503.707 418.529 497.984 422.485C497.299 422.942 496.516 423.246 496.125 424.058C495.685 424.058 495.343 424.261 495.147 424.667C494.805 425.326 493.288 425.681 494.756 426.696C493.728 427.558 492.359 426.696 490.794 427.609C492.212 427.609 493.093 427.609 493.973 427.609C513 427.609 532.076 427.609 551.103 427.609C552.033 427.609 553.06 427.203 553.892 428.065C533.055 428.065 512.169 428.065 491.332 428.014C490.011 428.014 488.984 428.522 487.957 429.232C478.908 435.37 469.859 441.558 460.81 447.696C459.294 448.71 457.679 449.522 456.114 450.384C456.848 445.312 457.582 440.29 458.315 435.217C458.364 434.812 458.315 434.406 458.315 434C459.881 432.174 461.299 430.348 461.544 427.812C461.641 427.101 461.641 426.341 461.641 425.63C461.641 424.261 461.641 422.891 461.641 421.572C461.641 420.862 461.69 420.101 461.495 419.391C461.348 418.783 461.152 418.174 461.006 417.565C461.69 415.181 461.446 412.594 462.522 410.312C480.669 412.543 497.544 408.739 513.245 398.949C515.201 400.978 516.033 403.667 516.62 406.406Z" fill="#6DB5DE"/>
<path d="M516.62 406.406C515.495 403.92 514.321 401.435 513.196 398.899C519.554 394.536 525.424 389.616 530.756 383.681C530.315 387.841 531.587 390.935 535.353 392.558C528.897 396.87 522.685 401.486 516.62 406.406Z" fill="#FD9993"/>
<path d="M532.908 385.964C532.908 383.123 532.908 380.232 532.859 377.391C535.794 376.225 538.337 377.087 540.734 378.862C540.978 381.906 541.174 384.949 540.538 387.942C537.848 388.043 535.353 387.08 532.908 385.964Z" fill="#FEFEFE"/>
<path d="M532.957 376.275C532.614 374.5 532.663 372.775 534.033 371.406C536.429 369.072 539.756 370.239 540.783 373.891C540.832 374.043 540.881 374.196 540.881 374.398C541.027 378.051 540.929 378.203 537.554 377.391C536.038 376.985 534.326 377.29 532.957 376.275Z" fill="#FDFDFD"/>
<path d="M539.756 389.109C536.967 391.797 533.935 390.884 532.908 387.08C535.158 386.37 538.484 387.384 539.756 389.109Z" fill="#F6F7F8"/>
<path d="M532.957 376.275C534.864 376.174 536.723 376.428 538.484 377.036C540.538 377.797 540.929 376.986 540.734 375.109C540.685 374.703 540.783 374.297 540.832 373.841C541.516 375.514 541.223 377.188 540.783 378.862C538.19 378.152 535.647 377.341 532.908 377.391C532.908 377.036 532.908 376.63 532.957 376.275Z" fill="#678DB5"/>
<path d="M539.756 389.109C537.652 387.79 535.304 387.435 532.908 387.08C532.908 386.724 532.908 386.319 532.908 385.964C535.598 386.014 538.093 386.978 540.538 387.993C540.44 388.449 540.245 388.855 539.756 389.109Z" fill="#648AB3"/>
<path d="M484.973 387.08C485.609 390.072 484.337 391.797 481.842 393.268C475.484 396.92 469.321 400.927 463.06 404.782C463.598 401.08 464.185 397.377 464.723 393.725C465.065 391.493 465.457 389.261 464.429 387.08C464.919 386.522 465.603 386.572 466.239 386.572C471.864 386.572 477.538 386.572 483.163 386.572C483.848 386.522 484.484 386.471 484.973 387.08Z" fill="#FEFEFE"/>
<path d="M445.989 411.833C445.647 412.493 445.06 412.391 444.473 412.391C439.63 412.391 434.739 412.391 429.897 412.391C429.212 412.391 428.234 412.594 428.185 411.529C428.136 410.312 429.114 410.413 429.946 410.413C434.054 410.362 438.212 410.362 442.321 410.312C443.103 410.362 443.886 410.362 444.669 410.413C445.647 410.362 446.283 410.667 445.989 411.833Z" fill="#040303"/>
<path d="M484.973 387.08C478.125 387.08 471.277 387.08 464.429 387.029C464.087 386.674 463.745 386.369 463.353 386.014C472.94 386.014 482.576 386.014 492.212 386.014C492.261 386.877 491.527 386.775 491.136 387.08C489.424 387.79 486.978 387.283 486.44 390.022C485.755 390.732 485.56 390.275 485.462 389.565C485.315 388.754 485.755 387.79 484.973 387.08Z" fill="#7598BC"/>
<path d="M461.446 419.341C463.011 419.949 462.717 420.71 461.592 421.522C456.652 421.522 451.712 421.471 446.772 421.42C445.891 421.42 444.473 421.775 444.473 420.355C444.522 418.884 445.989 419.442 446.821 419.442C451.712 419.391 456.555 419.391 461.446 419.341Z" fill="#0A0606"/>
<path d="M461.592 425.58C462.668 426.34 462.962 427.101 461.494 427.761C456.554 427.71 451.565 427.71 446.625 427.659C445.842 427.659 444.473 428.116 444.473 426.797C444.424 425.275 445.842 425.732 446.723 425.681C451.663 425.63 456.652 425.63 461.592 425.58Z" fill="#0E0908"/>
<path d="M558.098 490.355C558.783 486.602 559.467 482.899 560.152 479.145C560.299 478.384 560.348 477.471 561.375 477.674C562.402 477.877 562.109 478.79 561.962 479.5C561.277 483.152 560.544 486.754 559.859 490.406C559.223 491.319 558.636 491.268 558.098 490.355Z" fill="#0A0606"/>
<path d="M562.157 490.964C562.842 487.413 563.527 483.913 564.261 480.362C564.407 479.601 564.407 478.384 565.532 478.536C566.657 478.739 566.266 479.855 566.119 480.616C565.533 484.065 564.848 487.514 564.212 491.014C563.527 492.232 562.793 492.384 562.157 490.964Z" fill="#070404"/>
<path d="M494.706 426.696C494.021 426.645 493.288 426.594 492.358 426.544C493.239 425.529 493.973 424.819 495.146 424.667C495.098 425.326 495.391 426.087 494.706 426.696Z" fill="#E6EEF5"/>
<path d="M486.44 390.022C486.342 386.775 486.342 386.775 491.136 387.08C489.668 388.246 488.152 389.261 486.44 390.022Z" fill="#F9FCFD"/>
<path d="M488.641 113.572C499.06 113.572 509.478 113.623 519.946 113.522C521.56 113.522 522.196 113.877 522.196 115.754C522.147 130.971 522.147 146.188 522.196 161.406C522.196 163.08 521.707 163.536 520.092 163.536C499.158 163.485 478.223 163.485 457.288 163.536C455.381 163.536 454.989 162.877 455.038 161.051C455.087 145.985 455.087 130.971 455.038 115.906C455.038 113.928 455.625 113.522 457.386 113.522C467.756 113.623 478.223 113.572 488.641 113.572Z" fill="#5983AF"/>
<path d="M533.054 161.355C530.071 161.304 527.87 158.87 527.967 155.826C528.065 152.935 530.413 150.652 533.201 150.703C536.087 150.754 538.386 153.239 538.288 156.283C538.19 159.174 535.891 161.406 533.054 161.355Z" fill="#5D85B1"/>
<path d="M533.152 126.406C531.538 126.304 530.56 125.391 530.511 123.768C530.462 122.094 531.489 121.08 533.054 121.029C534.669 121.029 535.696 121.942 535.745 123.667C535.745 125.341 534.766 126.254 533.152 126.406Z" fill="#678DB6"/>
<path d="M533.641 141.167C531.538 141.217 530.56 140.254 530.511 138.63C530.462 137.007 531.342 135.942 533.005 135.891C534.619 135.841 535.647 136.804 535.695 138.428C535.793 140.101 534.815 141.015 533.641 141.167Z" fill="#658CB5"/>
<path d="M637.19 288.268C641.739 281.775 647.022 276.348 653.869 272.594C654.359 273.964 653.576 274.623 653.136 275.384C649.859 280.811 645.75 285.427 640.761 289.181C639.831 289.891 639.391 290.5 639.685 291.869C640.174 294.152 638.804 296.13 636.603 296.942C634.451 297.703 632.739 296.942 631.467 295.167C630.147 293.29 630.244 290.551 632.054 289.181C633.717 287.913 633.668 286.645 633.326 284.869C632.348 279.797 632.739 274.775 634.158 269.855C634.353 269.145 634.304 267.826 635.331 267.927C636.261 267.978 636.212 269.246 636.408 270.007C637.973 275.536 637.973 281.167 636.897 286.797C636.848 287.101 636.848 287.456 636.799 287.761C636.799 287.811 636.897 287.862 637.19 288.268Z" fill="#5A83AF"/>
<path d="M488.201 162.37C481.451 162.37 474.701 162.319 467.951 162.42C466.141 162.42 465.408 162.116 465.457 159.986C465.554 145.63 465.554 131.275 465.457 116.92C465.457 115.145 465.946 114.638 467.658 114.638C481.598 114.688 495.489 114.688 509.429 114.638C511.19 114.638 511.582 115.246 511.533 116.971C511.484 131.326 511.484 145.681 511.533 160.036C511.533 161.913 511.092 162.471 509.234 162.42C502.19 162.319 495.196 162.37 488.201 162.37Z" fill="#FEFEFE"/>
<path d="M456.114 138.275C456.114 131.174 456.163 124.072 456.065 116.971C456.065 115.297 456.31 114.638 458.169 114.638C464.478 114.638 464.478 114.587 464.478 121.181C464.478 134.116 464.429 147.051 464.527 159.935C464.527 162.015 463.94 162.42 462.082 162.42C456.163 162.319 456.163 162.42 456.163 156.232C456.114 150.246 456.114 144.261 456.114 138.275Z" fill="#FEFEFE"/>
<path d="M512.706 138.225C512.706 131.225 512.755 124.225 512.657 117.225C512.657 115.348 512.951 114.587 515.005 114.638C521.022 114.739 521.07 114.638 521.07 120.978C521.07 133.913 521.022 146.797 521.119 159.732C521.119 161.71 520.826 162.522 518.625 162.471C512.706 162.319 512.706 162.471 512.706 156.232C512.706 150.246 512.706 144.21 512.706 138.225Z" fill="#FEFEFE"/>
<path d="M537.212 155.978C537.261 158.159 535.304 160.239 533.201 160.29C531.098 160.341 529.141 158.362 529.092 156.13C529.044 153.949 531 151.87 533.103 151.819C535.158 151.768 537.163 153.797 537.212 155.978Z" fill="#FCFDFD"/>
<path d="M534.522 123.616C534.424 124.427 534.082 125.087 533.25 125.188C532.223 125.29 531.734 124.58 531.685 123.667C531.636 122.804 532.174 122.297 533.055 122.246C533.935 122.246 534.375 122.804 534.522 123.616Z" fill="#FAFBFC"/>
<path d="M534.619 138.529C534.424 139.391 534.032 140.101 533.005 140C532.174 139.898 531.636 139.391 531.734 138.529C531.783 137.616 532.321 136.956 533.299 137.058C534.081 137.109 534.473 137.717 534.619 138.529Z" fill="#F8FAFB"/>
<path d="M651.033 276.145C647.902 281.42 643.745 285.681 638.707 289.282C639.391 286.036 645.848 279.036 651.033 276.145Z" fill="#F8FAFB"/>
<path d="M635.332 288.42C633.473 283.196 633.522 274.877 635.332 270.616C637.093 276.601 636.799 282.435 635.332 288.42Z" fill="#FAFBFC"/>
<path d="M633.815 289.232C634.94 292.833 634.94 292.833 638.315 291.312C638.853 293.442 638.266 295.015 636.261 295.725C634.402 296.384 632.886 295.674 632.054 293.797C631.174 291.768 632.054 290.297 633.815 289.232Z" fill="#FBFCFD"/>
</svg>
