<svg width="900" height="700" viewBox="0 0 900 700" fill="none" xmlns="http://www.w3.org/2000/svg">
<path d="M450 699.949C300.766 699.949 151.484 699.949 2.24999 700C0.440205 700 0 699.594 0 697.667C0.048913 465.906 0.048913 234.094 0 2.33334C0 0.456525 0.391292 0 2.24999 0C300.766 0.0507246 599.234 0.0507246 897.75 0C899.56 0 900 0.4058 900 2.33334C899.951 234.094 899.951 465.906 900 697.667C900 699.543 899.609 700 897.75 700C748.516 699.949 599.234 699.949 450 699.949Z" fill="#FCFCFC"/>
<path d="M243.978 288.116C244.027 287.203 244.076 286.29 244.076 285.326C244.076 243.275 244.076 201.225 244.076 159.174C244.076 154.609 245.446 150.957 249.359 148.573C250.777 147.71 252.293 147.355 253.859 147C254.837 146.696 255.815 146.848 256.793 146.848C316.516 146.848 376.239 146.848 435.962 146.848C436.598 146.696 437.136 146.341 437.821 146.391C444.375 146.239 450.93 146.239 457.484 146.391C458.071 146.391 458.707 146.442 459.294 146.391C464.332 146.341 469.37 146.341 474.408 146.391C480.864 146.442 485.267 150.449 486.44 156.993C486.93 159.681 486.881 162.37 486.881 165.058C486.881 171.399 486.93 177.688 486.832 184.029C486.783 184.486 486.734 184.942 486.685 185.399C486.636 185.703 486.587 186.007 486.489 186.261C486.196 191.486 486.294 196.761 486.489 201.986C486.294 203.406 486.343 204.826 486.343 206.297C486.343 232.877 486.343 259.457 486.343 285.986C486.343 287.355 486.881 289.181 485.56 289.993C484.19 290.804 483.016 289.333 481.891 288.623C479.055 286.949 476.413 284.971 473.332 283.804C472.647 283.551 472.011 283.094 471.669 282.435C471.033 280.913 471.228 279.29 471.228 277.667C471.228 241.246 471.228 204.826 471.228 168.406C471.228 163.688 471.229 163.688 466.68 163.688C399.033 163.688 331.386 163.688 263.739 163.688C259.141 163.688 259.141 163.688 259.141 168.406C259.141 278.529 259.141 388.652 259.141 498.775C259.141 503.341 259.141 503.341 263.592 503.341C331.337 503.341 399.033 503.341 466.777 503.341C471.277 503.341 471.277 503.341 471.277 498.522C471.277 438.007 471.277 377.493 471.277 316.978C471.277 315.304 470.935 313.58 471.913 312.058C472.989 311.449 473.821 312.21 474.652 312.667C477.93 314.544 481.158 316.573 484.386 318.5C485.511 319.159 486.098 320.022 486.098 321.544C486 383.225 486.049 444.855 486.049 506.536C486.049 507.551 486.147 508.565 485.951 509.58C484.875 516.225 479.544 519.978 473.723 519.826C465.506 519.623 457.288 519.775 449.071 519.775C448.288 519.775 447.457 519.877 446.674 519.978C446.478 520.13 446.234 520.283 445.989 520.435C445.598 520.587 445.207 520.638 444.815 520.638C442.957 520.688 441.098 520.688 439.239 520.638C438.848 520.638 438.457 520.587 438.065 520.435C437.821 520.333 437.625 520.13 437.381 519.978C431.462 519.928 425.495 519.826 419.576 519.826C412.826 519.775 406.027 519.877 399.277 519.775C397.321 519.725 397.125 520.232 397.565 522.21C400.843 537.123 403.924 552.036 407.103 567C409.598 578.92 412.141 590.841 414.636 602.761C416.152 610.065 417.718 617.319 419.234 624.674C419.381 625.384 419.967 626.601 418.647 626.957C417.082 627.413 417.571 625.891 417.424 625.232C416.397 620.87 415.516 616.457 414.538 612.094C412.582 602.913 410.674 593.681 408.669 584.5C406.81 575.877 405.098 567.203 403.239 558.58C401.136 548.739 399.375 538.899 396.929 529.159C396.342 526.775 395.609 524.341 395.511 521.855C395.413 520.08 394.484 519.877 393.114 519.877C384.457 519.928 375.848 519.877 367.19 519.877C357.065 519.877 346.989 519.877 336.864 519.877C335.543 519.877 334.859 519.978 334.467 521.754C332.022 533.674 329.38 545.544 326.837 557.464C322.924 575.877 319.06 594.239 315.147 612.652C314.266 616.862 313.435 621.123 312.652 625.384C312.505 626.246 312.457 627.109 311.283 627.109C310.647 627.109 310.158 627.261 310.402 626.044C312.114 617.522 313.924 609 315.685 600.478C317.152 593.326 318.717 586.174 320.185 578.971C322.239 569.029 324.538 559.138 326.397 549.145C327.864 541.333 329.772 533.623 331.679 525.913C333.147 519.978 333.245 519.978 327.228 519.978C302.723 519.978 278.168 520.029 253.663 519.928C249.261 519.928 244.565 515.515 244.369 510.696C244.027 501.159 244.174 491.623 244.125 482.087C244.125 478.029 244.076 473.971 244.076 469.913C243.636 469.355 243.489 468.746 243.44 468.036C243.196 465.196 243.342 462.304 243.342 459.464C243.391 439.428 243.244 419.341 243.391 399.304C243.391 398.645 243.342 398.036 243.391 397.377C243.342 394.536 243.342 391.696 243.391 388.906C243.391 388.399 243.391 387.942 243.391 387.435C243.244 372.775 243.244 358.065 243.391 343.406C243.391 342.899 243.391 342.442 243.391 341.935C243.293 330.42 243.244 318.957 243.391 307.442C243.391 306.986 243.391 306.478 243.391 306.022C243.293 300.848 243.342 295.674 243.391 290.5C243.44 290.044 243.489 289.587 243.587 289.13C243.685 288.623 243.831 288.37 243.978 288.116Z" fill="black"/>
<path d="M529.288 405.797C529.435 405.087 529.141 404.326 529.728 403.717C530.217 402.246 530.217 400.674 530.755 399.203C531.88 393.877 532.956 388.5 534.179 383.174C535.402 377.797 536.821 372.471 538.092 367.094C539.315 361.92 540.44 356.696 541.614 351.522C542.592 351.015 543.668 351.217 544.744 351.217C558.195 351.167 571.647 351.877 585.147 351.826C589.06 351.826 593.07 351.826 596.983 352.638C598.157 353.652 597.913 355.022 597.766 356.391C597.032 358.42 595.418 359.79 594.049 361.312C588.179 367.957 582.358 374.652 576.44 381.246C573.212 384.848 570.081 388.5 566.951 392.101C564.945 394.435 564.945 397.073 567.195 399.304C571.353 403.464 575.706 407.37 579.962 411.428C584.706 415.891 589.451 420.406 594.195 424.87C595.956 426.544 597.815 427.964 599.478 429.739C600.31 430.652 601.19 431.565 601.288 432.935C602.07 439.58 602.07 446.225 602.364 452.87C602.755 460.884 603.342 468.848 603.391 476.862C603.391 477.674 603.587 478.536 603.147 479.348C602.168 480.159 600.994 480.007 599.918 480.058C596.837 480.109 593.755 479.957 590.723 480.362C580.206 479.804 569.641 480.261 559.125 480.109C557.168 480.058 555.212 480.159 553.304 480.058C547.63 480.007 542.005 479.5 536.331 479.297C531.244 479.094 526.157 478.587 521.022 478.587C519.407 478.587 517.793 478.486 516.179 478.232C514.467 477.978 513.489 477.167 513.831 475.239C515.103 466.261 517.5 457.486 519.505 448.659C522.587 434.964 525.57 421.268 528.897 407.674C529.092 407.065 528.75 406.355 529.288 405.797Z" fill="#8F3600"/>
<path d="M597.229 357C597.229 355.681 597.18 354.312 597.18 352.993C596.544 352.181 596.788 351.217 596.837 350.304C597.913 336.254 599.087 322.203 600.212 308.152C601.093 297.044 601.973 285.935 602.854 274.826C603.587 265.493 604.272 256.159 605.25 246.826C605.348 245.964 605.348 245.152 605.935 244.442C607.843 243.326 609.799 243.478 611.756 244.239C612.294 244.746 612.196 245.457 612.196 246.116C612.098 255.906 612.147 265.696 612.196 275.536C612.196 277.971 611.56 279.442 609.114 280.152C606.718 280.812 605.446 282.79 605.348 285.478C605.348 285.833 605.348 285.377 605.348 285.732C604.761 294.507 608.625 294.913 615.326 294.254C616.158 294.152 616.843 293.645 617.478 293.087C621.196 289.739 620.071 281.928 615.473 280.102C613.468 279.341 612.685 278.174 612.685 275.993C612.734 266.355 612.685 256.717 612.685 247.08C612.685 246.217 612.685 245.406 613.076 244.594C613.468 243.986 614.103 243.783 614.788 243.783C620.853 243.884 626.968 243.022 632.984 244.696C640.614 246.826 646.484 251.138 649.712 258.848C650.152 259.964 650.544 261.029 650.446 262.246C650.152 266.609 649.908 270.971 649.663 275.333C648.636 292.681 647.609 310.029 646.582 327.326C645.946 338.435 645.261 349.544 644.576 360.652C644.283 364.913 644.283 364.913 639.978 364.406C634.745 363.746 629.462 363.239 624.18 362.529C622.321 362.275 621.489 362.681 621.294 364.761C621.098 367.094 620.805 369.478 619.337 371.457C618.359 372.319 617.674 371.558 617.038 370.949C613.468 367.754 609.995 364.457 606.522 361.109C605.69 360.297 604.81 359.536 604.027 358.674C602.071 356.797 599.674 356.797 597.229 357Z" fill="#6DB5DE"/>
<path d="M514.076 474.732C513.782 476.609 514.32 477.471 516.424 477.572C524.886 477.877 533.348 478.384 541.81 478.841C545.527 479.043 549.293 479.246 553.011 479.449C554.429 480.565 554.576 482.341 555.163 483.913C560.201 497.558 565.19 511.203 570.277 524.797C572.429 530.783 574.483 536.768 576.978 542.652C577.32 543.717 577.663 544.833 578.054 545.899C581.918 556.449 585.88 566.899 589.695 577.449C589.891 577.906 590.038 578.362 590.233 578.819C591.114 581.609 592.19 584.297 593.168 586.986C593.364 587.797 593.804 588.558 593.608 589.42C593.608 589.623 593.608 589.775 593.608 589.978C592.728 590.79 591.652 590.739 590.625 590.739C579.228 590.79 567.831 590.739 556.435 590.739C555.31 590.739 554.136 590.891 553.255 589.877C549.489 579.833 545.723 569.841 541.956 559.797C536.625 545.746 531.244 531.746 525.864 517.696C522.587 509.174 519.358 500.601 516.13 492.08C515.005 489.138 514.223 486.043 514.027 482.848C513.587 481.884 514.174 480.768 513.636 479.804C513.636 478.181 513.636 476.507 513.636 474.884C513.734 474.529 513.88 474.478 514.076 474.732Z" fill="#FD9993"/>
<path d="M605.984 244.493C605.299 253.775 604.614 263.007 603.881 272.239C602.805 285.529 601.729 298.819 600.652 312.109C599.527 325.754 598.354 339.348 597.229 352.993C585.44 352.79 573.603 352.79 561.815 352.384C555.897 352.181 549.929 352.181 544.011 352.029C543.179 352.029 542.397 352.029 541.663 351.522C541.418 351.014 541.565 350.659 542.005 350.355C544.696 339.601 549.147 329.558 553.353 319.413C561.766 299.174 571.109 279.341 578.886 258.797C580.402 254.79 581.723 250.681 583.239 246.674C583.631 245.659 583.826 244.544 584.902 243.986C586.614 243.478 588.326 243.732 590.087 243.681C594.489 243.58 598.941 243.63 603.343 243.63C604.125 243.63 604.957 243.63 605.691 244.087C605.788 244.29 605.886 244.391 605.984 244.493Z" fill="black"/>
<path d="M584.511 244.645C576.44 269.297 565.337 292.58 555.31 316.319C550.859 326.819 546.603 337.37 542.935 348.174C542.69 348.935 542.69 349.848 541.956 350.406C542.397 346.5 542.837 342.544 543.375 337.978C540.44 341.326 537.75 344.319 533.641 344.978C532.027 345.232 530.413 345.232 528.799 344.978C527.087 344.826 525.57 344.217 524.054 343.406C516.228 339.145 508.353 334.935 500.527 330.674C498.815 329.761 497.201 328.645 495.44 327.833C494.266 327.275 493.728 326.565 494.119 325.246C498.032 317.79 501.945 310.384 505.907 302.978C507.766 299.986 508.157 299.833 511.141 301.558C514.467 303.536 517.891 305.312 521.119 307.391C522.831 308.507 523.81 308.203 524.886 306.478C531.489 295.928 537.946 285.275 544.549 274.725C546.946 270.87 549.244 267.015 551.69 263.21C553.109 260.928 554.283 258.544 555.408 256.109C558.783 248.399 564.946 244.645 572.919 243.884C576.147 243.58 579.424 243.783 582.701 243.833C583.288 243.884 584.071 243.833 584.511 244.645Z" fill="#6DB5DE"/>
<path d="M590.967 479.754C594.929 479.094 598.891 479.855 602.853 479.348C604.027 480.007 603.831 481.225 603.831 482.239C604.076 494.565 604.956 506.841 605.445 519.116C605.641 523.884 605.592 528.703 606.179 533.522C606.424 535.754 607.304 536.362 609.261 536.312C614.543 536.261 619.826 536.261 625.157 536.312C626.38 536.312 627.603 536.16 628.679 537.022C629.266 537.833 629.266 538.746 629.266 539.66C629.266 552.189 629.364 564.717 629.217 577.246C629.217 577.703 629.168 578.21 629.217 578.667C629.266 581.457 629.315 584.196 629.168 586.986C629.119 587.594 629.021 588.203 628.483 588.66C628.434 589.065 628.434 589.42 628.385 589.826C627.554 590.689 626.478 590.638 625.402 590.638C616.304 590.689 607.255 590.689 598.157 590.638C597.179 590.638 596.201 590.689 595.369 589.928C595.125 589.42 594.636 589.319 594.147 589.217C593.657 588.609 593.56 587.848 593.511 587.138C593.56 584.297 592.728 581.558 592.973 578.718C592.973 578.261 592.973 577.804 592.973 577.297C592.826 569.181 592.532 561.116 592.288 553C591.994 544.428 591.994 535.804 591.456 527.181C591.407 526.42 591.456 525.66 591.505 524.899C591.505 517.493 591.114 510.087 590.82 502.681C590.576 495.884 590.82 489.036 590.234 482.239C590.234 481.428 590.234 480.515 590.967 479.754Z" fill="#FD9993"/>
<path d="M553.255 589.826C566.706 589.877 580.206 589.877 593.657 589.928C591.114 601.493 588.571 613.109 586.027 624.674C585.88 625.333 585.978 625.993 585.929 626.703C585.44 627.565 584.608 627.16 583.973 627.16C562.206 627.21 540.44 627.21 518.674 627.16C517.989 627.16 517.207 627.515 516.62 626.754L516.717 626.652L516.62 626.551C517.109 625.739 516.62 624.775 517.011 623.913C517.989 617.826 521.217 613.312 526.011 609.862C532.614 605.094 539.168 600.275 545.723 595.457C548.168 593.58 550.712 591.703 553.255 589.826Z" fill="black"/>
<path d="M611.755 244.594C609.848 244.543 607.94 244.543 605.984 244.493L606.033 244.543C605.348 243.783 605.25 242.87 605.348 241.957C606.179 232.522 603.391 224 599.625 215.63C597.473 210.812 595.467 205.891 593.706 200.92C592.728 198.181 591.065 196.964 588.424 197.065C584.266 197.217 580.158 196.355 576 196.457C574.484 196.507 572.821 196.406 572.282 194.377C572.576 189.457 575.217 185.906 580.304 184.942C588.57 183.319 596.837 182.609 605.201 184.841C613.37 187.022 618.065 191.942 618.897 200.717C618.946 201.326 618.799 201.884 618.408 202.341C618.652 207.058 618.408 211.775 617.478 216.442C617.331 217.152 616.793 218.014 618.31 218.217C628.973 219.739 632.299 223.594 632.641 234.703C632.641 234.855 632.69 235.007 632.739 235.159C644.674 232.623 650.886 234.399 654.359 241.551C657.196 247.384 656.707 257.529 650.543 262.297C649.37 260.826 649.321 258.899 648.44 257.275C643.891 249.362 636.946 245.355 628.337 244.645C623.446 244.239 618.456 244.594 613.516 244.645C612.783 245 612.244 245.051 611.755 244.594Z" fill="black"/>
<path d="M595.468 590.029C606.473 589.978 617.43 589.978 628.435 589.927C633.18 601.746 637.973 613.565 642.718 625.384C642.864 625.739 643.109 626.094 643.354 626.449C643.158 627.464 642.375 627.159 641.788 627.159C624.033 627.159 606.277 627.159 588.522 627.159C588.131 627.159 587.69 627.21 587.544 626.703C589.256 618.79 590.968 610.877 592.729 602.964C593.609 598.652 594.538 594.341 595.468 590.029Z" fill="black"/>
<path d="M506.201 303.283C502.581 310.181 499.01 317.08 495.391 323.978C495.097 324.536 494.853 325.246 494.021 325.297C491.527 323.928 489.081 322.609 486.195 321.036C486.195 322.203 486.195 323.167 486.195 324.13C486.195 384.899 486.195 445.616 486.195 506.384C486.195 507.449 486.538 508.565 485.853 509.58C485.853 447.543 485.853 385.558 485.902 323.522C485.902 321.239 485.413 319.87 483.358 318.804C479.543 316.775 475.875 314.391 472.158 312.159C469.761 312.21 468.098 310.536 466.288 309.37C457.435 303.587 449.364 296.739 441.979 289.029C438.408 285.275 438.799 277.514 442.516 274.167C443.446 273.913 444.082 274.42 444.718 274.978C447.114 277.159 449.707 279.138 452.103 281.826C450.685 278.478 451.712 276.399 455.038 275.08C455.87 274.877 456.652 275.029 457.386 275.384C461.69 277.312 465.995 279.239 470.348 281.116C471.033 281.42 471.619 281.877 471.962 282.536C474.407 283.449 476.804 284.362 479.005 285.884C481.06 287.355 483.261 288.623 485.413 289.993C486.049 288.978 485.804 288.014 485.804 287.152C485.804 259.761 485.804 232.42 485.804 205.029C485.804 204.014 485.902 203 485.951 201.985C486.098 202.087 486.195 202.138 486.342 202.239C487.125 203.558 486.88 205.029 486.88 206.449C486.88 232.725 486.978 258.949 486.831 285.225C486.831 288.826 487.858 291.007 490.891 292.681C495.391 295.217 499.695 298.159 503.999 301C504.929 301.609 505.907 302.065 506.201 303.283Z" fill="#FD9993"/>
<path d="M244.027 288.572C244.027 288.928 244.027 289.333 244.027 289.688C242.413 290.906 240.555 290.348 238.843 290.399C237.228 290.449 236.446 291.058 236.495 292.783C236.593 295.978 236.397 299.174 236.641 302.37C236.788 304.297 237.62 305.21 239.576 305.159C241.093 305.109 242.658 304.754 244.027 305.87C244.027 306.225 244.027 306.63 243.978 306.986C242.707 308 241.141 307.696 239.723 307.645C237.766 307.594 236.886 308.406 236.739 310.384C236.641 311.449 236.495 312.565 236.495 313.63C236.495 321.696 236.495 329.812 236.495 337.877C236.495 340.87 236.69 340.971 239.527 341.072C241.044 341.123 242.658 340.717 243.978 341.833C243.978 342.188 243.978 342.594 243.929 342.949C242.364 344.065 240.603 343.558 238.94 343.609C237.179 343.659 236.446 344.37 236.446 346.196C236.446 357 236.348 367.754 236.495 378.558C236.544 382.362 238.402 385.101 242.071 386.268C242.805 386.522 243.44 386.775 243.929 387.384C243.929 387.739 243.93 388.145 243.978 388.5C242.658 389.667 241.044 389.312 239.527 389.312C211.989 389.312 184.5 389.312 156.962 389.312C156.326 389.312 155.641 389.312 155.005 389.312C151.141 389.312 150.016 390.884 151.043 394.841C151.288 395.703 151.777 396.109 152.559 396.21C153.636 396.362 154.663 396.312 155.739 396.312C183.668 396.312 211.598 396.312 239.527 396.312C241.044 396.312 242.658 395.957 243.978 397.123C243.978 397.63 243.978 398.138 243.978 398.645C242.805 399.761 241.386 399.507 240.016 399.507C224.853 399.507 209.69 399.507 194.527 399.507C193.696 399.507 192.913 399.558 192.081 399.558C190.614 399.558 190.027 400.319 190.027 401.739C190.027 402.399 190.027 403.109 190.027 403.768C190.027 423.551 190.027 443.333 190.027 463.116C190.027 467.377 190.027 467.377 194.038 467.377C209.299 467.377 224.511 467.377 239.772 467.377C241.19 467.377 242.756 467.072 243.978 468.239C243.978 468.746 243.978 469.254 243.978 469.71C225.881 469.71 207.831 469.761 189.734 469.761C189.244 470.725 189.489 471.739 189.489 472.754C189.489 522.971 189.489 573.239 189.44 623.457C189.44 624.42 189.734 625.485 189.196 626.449L189.244 626.399C186.505 626.957 183.717 626.703 180.978 626.5C180.342 625.485 180.636 624.37 180.636 623.304C180.636 549.551 180.636 475.797 180.636 402.043C180.636 398.138 181.027 398.594 177.212 398.544C168.505 398.544 159.799 398.442 151.043 398.594C149.038 398.645 148.597 397.935 148.695 396.058C148.842 393.268 148.744 390.478 148.744 387.688C149.527 386.928 150.456 387.333 151.288 387.333C169.826 387.283 188.315 387.333 206.853 387.283C207.636 387.283 208.81 388.044 209.348 386.623C206.804 384.594 205.973 381.906 206.022 378.558C206.119 357.304 206.071 336.051 206.071 314.746C206.071 313.275 206.119 312.058 204.31 311.551C202.158 310.942 203.625 308.71 202.891 307.442C197.56 306.884 192.277 307.341 186.945 307.138C186.114 307.087 185.185 307.544 184.451 306.783C184.842 305.413 185.918 305.971 186.701 305.971C191.494 305.92 196.288 305.92 201.081 305.971C202.353 305.971 203.38 305.92 203.136 304.145C203.038 303.333 203.38 302.319 204.065 302.268C206.755 301.964 205.973 299.986 206.071 298.362C206.266 295.116 205.581 291.819 206.462 288.623C212.136 288.42 217.859 288.217 223.533 288.725L223.484 288.674C224.12 291.819 223.582 294.964 223.777 298.109C223.875 299.326 223.484 300.594 224.022 301.812C225.587 302.015 226.663 302.725 226.467 304.601C226.37 305.768 226.957 306.022 227.935 305.971C229.842 305.87 232.435 306.833 231.995 303.13C231.946 302.623 232.435 302.319 232.777 302.319C235.321 302.217 234.783 300.29 234.783 298.717C234.783 295.42 234.783 292.123 234.783 288.826C237.864 288.065 240.946 288.37 244.027 288.572Z" fill="#5983AF"/>
<path d="M618.652 371.812C620.021 369.326 620.608 366.638 620.559 363.848C620.511 361.768 621.391 361.464 623.054 361.717C628.826 362.428 634.646 363.087 640.418 363.797C643.891 364.203 643.891 364.254 644.478 360.754C644.184 367.855 643.94 374.957 643.646 382.058C643.597 383.073 643.646 384.087 643.646 385.051C644.037 385.507 644.233 386.065 644.233 386.725C644.38 389.515 643.548 392.304 643.793 395.094C643.842 399.254 643.304 403.362 643.157 407.471C643.01 412.087 641.396 416.094 637.043 418.225C634.353 419.544 633.423 418.986 633.081 415.942C633.081 411.631 632.934 407.37 633.423 403.058C632.836 406.862 632.445 410.667 632.543 414.573C632.592 415.993 632.837 417.464 631.858 418.681C630.44 419.391 628.972 419.391 627.554 418.732C626.184 416.855 626.722 414.674 626.967 412.645C627.358 409.297 627.114 405.949 627.016 402.602C626.527 407.674 627.163 412.848 625.744 417.819C623.641 418.833 622.418 417.362 621.293 415.942C620.364 414.775 619.875 413.304 619.581 411.783C618.994 408.536 618.212 405.341 618.212 402.044C618.75 400.522 618.994 398.949 618.945 397.326C618.75 393.37 619.239 389.413 619.19 385.457C619.092 388.399 618.407 391.29 618.407 394.232C618.407 395.5 618.603 396.768 617.967 397.935C616.695 398.645 616.598 397.377 616.353 396.768C613.761 390.986 612.782 385 615.326 378.913C616.402 376.58 616.647 373.739 618.652 371.812Z" fill="#FD9993"/>
<path d="M643.696 386.37C643.696 385.913 643.696 385.457 643.696 385.051C678.522 385.051 713.299 385.051 748.125 385.102C751.696 385.102 751.256 384.746 751.256 388.348C751.256 391.797 751.256 395.297 751.256 398.746C749.055 399.254 746.854 398.848 744.604 399C743.772 399.051 742.843 398.746 742.06 399.254C742.011 400.319 741.864 401.435 741.864 402.5C741.864 463.42 741.864 524.29 741.864 585.21C741.864 588.812 741.864 588.812 738.44 588.812C736.826 588.812 735.163 588.913 733.549 588.761C731.69 588.609 731.055 589.217 731.055 591.246C731.152 601.949 731.103 612.703 731.103 623.406C731.103 624.42 731.201 625.435 730.712 626.348C725.185 626.906 719.658 626.652 714.131 626.5C713.544 625.688 713.788 624.725 713.788 623.812C713.788 613.109 713.69 602.355 713.837 591.652C713.837 589.37 713.299 588.71 711.049 588.71C683.56 588.812 656.022 588.761 628.532 588.761C628.532 588.304 628.532 587.899 628.532 587.442C629.853 586.174 631.467 586.529 632.984 586.529C664.386 586.529 695.739 586.529 727.142 586.529C730.468 586.529 733.843 586.478 737.169 586.529C739.027 586.529 739.908 585.768 739.761 583.841C739.712 583.08 739.761 582.319 739.761 581.558C739.761 522.565 739.761 463.573 739.761 404.58C739.761 399.507 739.761 399.507 734.772 399.507C706.794 399.507 678.864 399.507 650.886 399.507C649.908 399.507 648.929 399.406 647.951 399.457C646.826 399.152 645.554 399.051 646.484 397.275C647.853 396.616 649.37 396.819 650.837 396.819C681.946 396.819 713.054 396.819 744.163 396.819C744.995 396.819 745.777 396.819 746.609 396.819C749.299 396.768 749.544 396.515 749.544 393.725C749.544 386.522 750.18 387.333 743.43 387.333C711.685 387.333 679.891 387.333 648.147 387.283C646.581 387.333 644.967 387.739 643.696 386.37Z" fill="#5D86B1"/>
<path d="M618.309 202.391C618.309 201.884 618.26 201.377 618.26 200.87C619.532 199.754 621.048 200.058 622.467 200.058C639.733 200.058 657 200.058 674.315 200.058C674.706 200.058 675.146 200.058 675.538 200.058C679.548 200.058 679.548 200.058 679.548 195.797C679.548 157.246 679.548 118.746 679.548 80.1956C679.548 79.4348 679.548 78.6739 679.499 77.913C679.451 76.6956 678.864 76.0869 677.69 76.0362C676.858 75.9855 676.076 75.9855 675.244 75.9855C597.766 75.9855 520.239 75.9855 442.76 75.9855C442.516 75.9855 442.271 75.9855 442.027 75.9855C438.75 76.0362 438.603 76.1377 438.603 79.5869C438.603 100.638 438.603 121.688 438.603 142.688C438.603 144.159 438.945 145.783 437.869 147.051C437.38 147.051 436.891 147.051 436.402 147.051C436.206 146.949 436.157 146.899 436.206 146.797C436.255 146.696 436.304 146.645 436.353 146.645C436.402 145.63 436.548 144.616 436.548 143.652C436.548 121.283 436.597 98.8623 436.5 76.4927C436.5 74.3116 436.94 73.7029 439.141 73.7029C519.065 73.7536 598.989 73.7536 678.913 73.7536C679.793 73.7536 680.722 73.5 681.505 74.1594C681.798 74.971 681.652 75.8333 681.652 76.6449C681.652 117.58 681.652 158.514 681.652 199.449C681.652 200.261 681.847 201.123 681.407 201.935C680.576 202.391 679.646 202.138 678.766 202.138C659.641 202.138 640.565 202.138 621.44 202.138C620.559 202.138 619.63 201.884 618.798 202.391H618.603H618.309Z" fill="#6289B3"/>
<path d="M436.256 146.645C436.304 146.797 436.304 146.949 436.304 147.051C434.739 147.051 433.223 147.102 431.658 147.102C373.206 147.102 314.755 147.102 256.304 147.102C255.473 147.102 254.69 147.051 253.858 147.051C254.739 146.29 255.717 146.645 256.695 146.645C316.565 146.594 376.435 146.645 436.256 146.645Z" fill="#FCFCFC"/>
<path d="M189.293 626.399C189.293 625.283 189.342 624.217 189.342 623.101C189.342 572.935 189.342 522.717 189.391 472.551C189.391 471.638 188.951 470.522 189.832 469.71C189.832 520.891 189.832 572.072 189.832 623.254C189.783 624.319 190.223 625.536 189.293 626.399Z" fill="#FCFCFC"/>
<path d="M681.358 201.884C681.358 164.297 681.358 126.659 681.407 89.0724C681.407 84.1014 681.407 79.0797 681.407 74.1086C682.142 74.9202 681.799 75.884 681.799 76.7463C681.799 117.58 681.799 158.413 681.799 199.246C681.799 200.159 682.141 201.174 681.358 201.884Z" fill="#FCFCFC"/>
<path d="M514.076 474.732C513.929 474.783 513.734 474.783 513.587 474.833C513.831 472.754 513.88 470.623 514.321 468.645C518.185 451.855 522.147 435.116 526.06 418.326C527.038 414.116 527.674 409.804 529.239 405.797C528.261 412.544 526.451 419.087 524.984 425.732C521.462 442.065 517.745 458.399 514.076 474.732Z" fill="#FCFCFC"/>
<path d="M446.136 519.928C446.283 519.826 446.43 519.826 446.576 519.928C446.576 554.471 446.576 589.015 446.576 623.558C446.576 624.522 446.919 625.587 446.136 626.449C446.038 626.348 445.891 626.196 445.794 626.094C445.256 625.08 445.403 623.964 445.403 622.848C445.403 589.725 445.403 556.602 445.403 523.529C445.403 522.312 445.158 520.942 446.136 519.928Z" fill="#FCFCFC"/>
<path d="M437.283 519.928C437.429 519.826 437.576 519.826 437.723 519.928C438.554 520.79 438.456 521.957 438.456 523.022C438.456 556.449 438.456 589.877 438.456 623.355C438.456 624.268 438.554 625.232 438.114 626.094C438.016 626.196 437.869 626.348 437.772 626.449C436.94 625.587 437.332 624.522 437.332 623.558C437.283 589.015 437.283 554.471 437.283 519.928Z" fill="#FCFCFC"/>
<path d="M516.571 626.754C517.353 626.855 518.185 627.007 518.967 627.007C540.489 627.007 561.962 627.007 583.484 627.007C584.315 627.007 585.098 627.159 585.88 626.703C585.44 627.768 584.511 627.413 583.777 627.413C562.109 627.413 540.391 627.413 518.723 627.413C517.989 627.413 517.06 627.768 516.571 626.754Z" fill="#FCFCFC"/>
<path d="M618.75 202.391C619.533 201.681 620.462 202.036 621.343 202.036C640.272 202.036 659.25 202.036 678.179 202.036C679.255 202.036 680.282 201.935 681.358 201.935C680.625 202.746 679.695 202.442 678.815 202.442C658.761 202.442 638.755 202.391 618.75 202.391Z" fill="#FCFCFC"/>
<path d="M209.348 386.573C209.837 386.928 209.837 387.283 209.25 387.333C208.516 387.435 207.783 387.384 207.049 387.384C188.658 387.384 170.266 387.384 151.924 387.384C150.897 387.384 149.821 387.536 148.793 387.638C149.478 386.573 150.554 387.029 151.484 387.029C169.826 386.978 188.217 387.029 206.56 386.978C207.489 386.978 208.467 387.333 209.348 386.573Z" fill="#FCFCFC"/>
<path d="M587.495 626.703C588.326 627.21 589.256 627.007 590.136 627.007C607.06 627.007 623.984 627.007 640.908 627.007C641.69 627.007 642.718 627.565 643.305 626.449C643.598 628.072 642.375 627.413 641.837 627.413C637.141 627.464 632.397 627.464 627.701 627.464C615.18 627.464 602.658 627.464 590.136 627.464C589.207 627.413 588.082 627.92 587.495 626.703Z" fill="#FCFCFC"/>
<path d="M368.706 128.283C368.804 130.312 367.386 130.565 366.652 131.326C364.549 133.406 362.348 135.384 360.098 137.362C359.804 137.616 359.315 138.174 358.826 137.717C358.484 137.413 358.581 136.804 358.875 136.601C362.201 134.014 364.793 130.565 368.706 128.283Z" fill="#668CB5"/>
<path d="M701.608 316.978C701.902 317.232 702.146 317.384 702.342 317.638C704.69 320.428 707.038 323.217 709.336 326.058C709.679 326.464 710.315 326.92 709.532 327.478C708.945 327.884 708.603 327.377 708.358 327.022C706.304 324.232 704.054 321.645 701.706 319.109C701.315 318.703 700.924 318.196 701.07 317.536C701.119 317.333 701.364 317.181 701.608 316.978Z" fill="#658BB5"/>
<path d="M222.065 247.942C225.049 244.696 228.032 241.956 231.212 239.471C231.603 239.167 231.848 238.71 232.386 239.268C232.679 239.572 232.679 239.877 232.386 240.13C229.255 242.717 226.614 245.913 223.141 248.094C222.897 248.145 222.603 247.993 222.065 247.942Z" fill="#668CB5"/>
<path d="M223.631 142.841C222.065 143.246 221.821 142.333 221.332 141.877C218.837 139.543 216.783 136.754 214.68 134.065C214.337 133.609 214.19 133.152 214.582 132.797C214.68 132.696 215.218 132.848 215.413 133.051C218.103 136.196 220.745 139.391 223.631 142.841Z" fill="#648BB4"/>
<path d="M184.451 306.732C189.734 307.341 195.065 306.833 200.397 307.036C201.228 307.087 202.158 306.681 202.94 307.391C197.609 307.391 192.228 307.391 186.897 307.391C186.065 307.391 185.038 307.797 184.451 306.732Z" fill="#FCFCFC"/>
<path d="M223.533 288.674C217.859 288.623 212.136 288.623 206.462 288.572C207.881 287.659 209.446 288.217 210.913 288.167C214.386 288.065 217.81 288.116 221.283 288.167C222.065 288.116 222.946 287.862 223.533 288.674Z" fill="#FCFCFC"/>
<path d="M714.13 626.5C719.658 626.449 725.185 626.399 730.712 626.348C730.321 626.906 729.734 626.906 729.196 626.906C724.647 626.906 720.049 626.906 715.5 626.906C715.011 626.906 714.521 626.906 714.13 626.5Z" fill="#FCFCFC"/>
<path d="M224.021 301.761C223.044 300.087 223.679 298.21 223.581 296.435C223.435 293.848 223.484 291.21 223.484 288.623C224.51 289.79 223.924 291.159 223.972 292.478C224.119 295.572 224.021 298.667 224.021 301.761Z" fill="#FCFCFC"/>
<path d="M742.06 399.203C745.092 398.239 748.223 399.203 751.255 398.696C748.272 399.812 745.141 398.899 742.06 399.203Z" fill="#FCFCFC"/>
<path d="M244.027 288.573C240.946 288.623 237.913 288.674 234.831 288.775C236.396 287.457 238.206 288.37 239.918 288.167C241.288 288.015 242.658 288.116 244.027 288.116C244.076 288.268 244.076 288.42 244.027 288.573Z" fill="#FCFCFC"/>
<path d="M181.027 626.5C183.766 626.449 186.554 626.398 189.293 626.398C186.554 627.362 183.815 627.109 181.027 626.5Z" fill="#FCFCFC"/>
<path d="M446.136 626.449C443.348 627.159 440.56 627.21 437.771 626.449L437.82 626.399C440.56 625.333 443.348 625.283 446.136 626.449Z" fill="#FCFCFC"/>
<path d="M530.756 399.203C530.756 400.775 530.511 402.297 529.728 403.717C529.68 402.094 529.826 400.522 530.756 399.203Z" fill="#FCFCFC"/>
<path d="M594.146 587.341C594.195 588 594.195 588.659 594.244 589.319C594.048 589.369 593.853 589.42 593.657 589.42C593.168 588.862 592.875 588.203 592.826 587.391C593.266 586.935 593.706 586.935 594.146 587.341Z" fill="#8D9AB7"/>
<path d="M528.75 345.029C530.364 345.029 531.978 345.029 533.592 345.029C531.978 345.688 530.364 345.688 528.75 345.029Z" fill="#FCFCFC"/>
<path d="M513.587 479.804C514.222 480.768 513.978 481.833 513.978 482.848C513.245 481.935 513.733 480.819 513.587 479.804Z" fill="#FCFCFC"/>
<path d="M516.913 623.862C516.766 624.725 516.669 625.638 516.522 626.5C516.571 625.638 516.229 624.674 516.913 623.862Z" fill="#FCFCFC"/>
<path d="M442.761 274.268C438.995 279.138 439.141 285.428 443.446 289.638C452.152 298.261 461.446 306.174 472.158 312.109C472.109 313.225 472.06 314.29 472.06 315.406C472.06 377.29 472.06 439.174 472.109 501.007C472.109 503.391 471.766 504.203 469.174 504.203C399.815 504.102 330.457 504.102 261.098 504.203C258.652 504.203 258.065 503.645 258.065 501.058C258.114 389.312 258.114 277.565 258.114 165.819C258.114 162.116 257.674 162.573 261.196 162.573C330.457 162.573 399.766 162.573 469.027 162.471C471.669 162.471 472.109 163.283 472.109 165.768C472.011 204.674 472.06 243.529 472.06 282.435C467.169 280.254 462.277 278.073 457.386 275.891C456.554 275.486 455.674 275.384 454.794 275.486C452.495 274.775 451.125 272.797 449.315 271.377C445.549 268.283 441.929 264.986 438.261 261.79C435.669 259.507 435.62 259 436.696 255.703C437.625 252.862 437.332 252.406 434.544 252.304C433.419 252.254 432.147 252 431.169 252.406C428.723 253.42 427.158 252.152 425.495 250.681C422.315 247.891 419.185 245.051 415.957 242.362C415.467 241.957 414.978 241.5 414.343 241.196C413.12 240.688 412.092 240.942 411.261 241.957C410.381 243.022 410.478 244.138 411.31 245.203C412.141 246.268 413.071 247.181 414.098 248.044C417.522 250.935 420.848 253.877 424.223 256.819C426.326 258.696 426.424 259.558 424.419 261.536C417.962 267.928 408.131 271.073 398.592 267.167C388.908 263.21 383.087 254.232 382.794 243.986C382.451 232.217 390.62 218.623 406.908 218.116C416.25 217.812 424.957 222.833 429.457 233.029C429.554 233.283 429.652 233.486 429.75 233.739C431.511 238.254 432 238.507 436.598 238.203C438.212 238.102 438.554 237.442 438.163 235.92C436.989 231.355 435.179 227.196 432.44 223.391C421.777 208.58 399.815 205.435 385.728 219.08C376.092 228.413 372.913 240.232 376.973 253.319C381.033 266.406 390.13 274.167 403.239 275.993C413.804 277.464 423 273.862 430.435 265.797C431.462 264.681 432.538 263.971 433.81 265.138C436.5 267.573 439.435 269.754 441.978 272.391C442.37 273 442.81 273.507 442.761 274.268Z" fill="#ECE9E9"/>
<path d="M437.82 147C437.771 146.239 437.722 145.478 437.722 144.717C437.722 122.348 437.722 99.9276 437.673 77.558C437.673 75.6812 438.016 74.9711 440.021 74.9711C519.309 75.0218 598.597 75.0218 677.886 74.9711C679.793 74.9711 680.331 75.529 680.331 77.5073C680.282 117.833 680.282 158.109 680.331 198.435C680.331 200.109 680.185 200.971 678.179 200.971C658.223 200.87 638.266 200.92 618.31 200.87C616.206 189.254 612.195 186.92 600.505 184.688C594 183.42 587.494 184.435 581.087 185.5C575.755 186.413 573.652 188.899 572.674 194.478C572.82 196.862 573.407 199.297 571.451 201.275C570.424 201.681 569.347 201.58 568.32 201.58C542.25 201.58 516.179 201.58 490.108 201.58C489.619 201.58 489.13 201.529 488.641 201.58C486.733 201.681 485.853 200.92 485.951 198.739C486.195 194.377 485.755 189.964 486.195 185.601C487.173 184.79 488.347 184.942 489.472 184.942C497.152 184.942 504.782 184.942 512.461 184.942C515.25 184.942 515.396 184.841 515.396 181.949C515.396 152.63 515.396 123.312 515.396 93.9928C515.396 91.1522 515.25 91.0508 512.461 91.0508C495.489 91.0508 478.565 91.0508 461.592 91.0508C458.706 91.0508 458.608 91.1522 458.608 94.2464C458.608 110.58 458.608 126.862 458.608 143.196C458.608 144.515 458.951 145.935 457.923 147.051C451.124 147 444.472 147 437.82 147Z" fill="#FEFEFE"/>
<path d="M486.196 184.638C485.707 181.188 486.049 177.739 486 174.341C485.951 169.268 486.049 164.246 485.951 159.174C485.805 151.768 481.256 147.152 474.115 147.101C469.174 147.101 464.234 147.101 459.245 147.051C458.267 146.493 458.316 145.529 458.316 144.616C458.316 127.572 458.316 110.478 458.267 93.4348C458.267 91.4565 459.001 90.7971 460.859 90.7971C478.223 90.8478 495.538 90.8478 512.902 90.7971C514.956 90.7971 515.543 91.6087 515.543 93.6377C515.494 123.21 515.494 152.732 515.543 182.304C515.543 184.283 515.005 185.196 512.902 185.196C504.783 185.094 496.614 185.145 488.495 185.145C487.712 185.145 486.832 185.246 486.196 184.638Z" fill="#FEFEFE"/>
<path d="M244.077 468.188C238.794 468.239 233.511 468.29 228.229 468.341C216.098 468.341 203.968 468.29 191.837 468.391C189.93 468.391 189.391 467.884 189.391 465.855C189.44 444.246 189.44 422.587 189.44 400.978C189.44 399.507 189.343 398.442 191.397 398.442C208.761 398.543 226.076 398.493 243.441 398.493C243.685 398.493 243.93 398.594 244.174 398.594C244.076 421.826 244.077 445.007 244.077 468.188Z" fill="#FEFEFE"/>
<path d="M244.027 397.174C213.408 397.174 182.739 397.174 152.119 397.225C150.603 397.225 150.016 396.87 150.016 395.145C149.918 388.5 149.869 388.5 156.277 388.5C185.527 388.5 214.777 388.551 244.027 388.551C244.027 391.442 244.027 394.283 244.027 397.174Z" fill="#FEFEFE"/>
<path d="M438.75 519.928C440.853 519.674 443.005 519.725 445.109 519.928C445.745 520.841 445.549 521.855 445.549 522.87C445.549 556.145 445.549 589.42 445.549 622.696C445.549 625.891 445.451 625.942 442.369 625.942C441.88 625.942 441.391 625.891 440.902 625.942C438.896 626.196 438.163 625.283 438.163 623.203C438.212 589.573 438.212 555.993 438.212 522.362C438.26 521.5 438.163 520.638 438.75 519.928Z" fill="#FEFEFE"/>
<path d="M243.978 387.435C238.011 386.42 235.907 383.884 235.907 377.594C235.907 367.145 235.907 356.696 235.907 346.246C235.907 343.051 235.907 343.051 239.136 343.051C240.75 343.051 242.364 343.051 244.027 343C243.978 357.812 243.978 372.623 243.978 387.435Z" fill="#FEFEFE"/>
<path d="M244.027 341.884C241.826 341.884 239.625 341.884 237.424 341.935C236.25 341.986 235.859 341.529 235.859 340.312C236.005 329.761 235.614 319.21 236.103 308.659C236.152 307.29 236.69 306.935 237.864 306.986C239.919 307.036 241.924 306.986 243.978 306.986C244.027 318.602 244.027 330.217 244.027 341.884Z" fill="#FEFEFE"/>
<path d="M486.195 184.638C495 184.587 503.804 184.486 512.608 184.587C514.712 184.587 515.152 183.928 515.152 181.899C515.103 152.58 515.103 123.261 515.152 93.9421C515.152 91.8624 514.712 91.2537 512.608 91.3044C495.587 91.4059 478.565 91.4059 461.543 91.3044C459.587 91.3044 458.902 91.7102 458.902 93.8914C459 110.783 458.951 127.674 458.951 144.565C458.951 145.428 458.853 146.239 459.293 147.051C458.804 147.051 458.315 147.051 457.826 147C457.826 129.196 457.875 111.391 457.875 93.5363C457.875 89.8334 457.435 90.2392 461.201 90.2392C478.712 90.2392 496.223 90.2392 513.734 90.1885C515.592 90.1885 516.228 90.5943 516.228 92.674C516.179 122.804 516.179 152.986 516.228 183.116C516.228 185.044 515.788 185.754 513.782 185.703C504.587 185.601 495.391 185.652 486.195 185.602C486.147 185.297 486.147 184.942 486.195 184.638Z" fill="#5882AF"/>
<path d="M438.749 519.927C438.749 554.065 438.75 588.203 438.798 622.341C438.798 623.304 438.162 624.927 439.434 625.232C441.146 625.587 443.005 625.485 444.717 625.13C445.5 624.978 445.109 623.609 445.109 622.797C445.109 611.638 445.109 600.478 445.109 589.319C445.109 566.188 445.109 543.007 445.109 519.877C445.451 519.877 445.794 519.927 446.136 519.927C446.136 537.022 446.185 554.065 446.185 571.159C446.185 588.558 446.185 606.007 446.185 623.406C446.185 624.42 446.136 625.435 446.087 626.449C443.299 626.449 440.559 626.399 437.771 626.399C437.722 625.993 437.673 625.536 437.673 625.13C437.673 590.08 437.673 554.978 437.673 519.927C438.065 519.927 438.407 519.927 438.749 519.927Z" fill="#5A83AF"/>
<path d="M244.027 305.87C242.658 305.87 241.288 305.92 239.87 305.92C236.006 305.92 235.957 305.92 235.908 301.862C235.859 298.413 235.957 294.964 235.859 291.515C235.81 290.044 236.299 289.587 237.669 289.638C239.772 289.739 241.875 289.689 243.978 289.689C244.027 295.065 244.027 300.442 244.027 305.87Z" fill="#FEFEFE"/>
<path d="M486.146 185.652C486.146 189.812 486.293 193.92 486.146 198.08C486.048 200.312 486.587 201.022 488.886 201.022C508.255 200.92 527.625 200.971 546.994 200.971C555.212 200.971 563.429 201.022 571.646 201.022C572.233 201.935 571.549 202.188 570.962 202.493C569.788 202.899 568.516 202.797 567.342 202.797C541.027 202.797 514.712 202.797 488.347 202.848C487.614 202.848 486.88 202.797 486.146 202.645C486.097 202.442 486 202.29 485.951 202.087C485.657 196.558 485.364 191.08 486.146 185.652Z" fill="#5881AE"/>
<path d="M628.435 537.174C621.587 537.123 614.788 537.022 607.94 537.123C606.033 537.174 605.544 536.565 605.446 534.587C604.859 520.181 604.174 505.826 603.489 491.42C603.294 487.362 603.049 483.355 602.854 479.297C602.169 463.572 601.435 447.848 600.75 432.174C603.049 432.681 604.37 434.558 605.935 436.029C609.457 439.377 612.93 442.826 616.598 446.022C619.19 448.254 621.587 448.051 623.837 445.413C628.875 439.478 634.06 433.645 639.294 427.862C639.93 427.152 640.419 425.732 641.788 426.848C643.011 430.348 643.207 434.101 643.696 437.754C645.799 453.428 648.147 469.101 650.25 484.826C650.446 486.348 650.788 487.819 652.011 488.833C652.011 489.188 652.011 489.391 652.5 489.391C675.978 489.036 699.506 489.341 722.984 489.239C723.962 489.239 724.94 489.087 725.772 489.848C725.772 491.116 724.794 491.014 724.06 491.167C723.033 491.37 721.957 491.268 720.881 491.268C699.31 491.268 677.69 491.268 656.12 491.268C655.728 491.268 655.288 491.268 654.897 491.268C651.375 491.319 651.277 491.42 651.766 495.022C652.109 497.71 652.549 500.348 652.843 503.036C653.087 505.116 654.065 506.029 656.071 505.877C656.902 505.826 657.685 505.877 658.516 505.877C679.794 505.877 701.022 505.877 722.299 505.928C723.668 505.928 725.478 505.167 726.212 507.297C725.087 507.804 723.962 507.449 722.837 507.449C700.533 507.5 678.228 507.449 655.924 507.449C655.141 507.449 654.359 507.601 653.283 507.196C654.359 507.601 655.141 507.449 655.875 507.449C678.179 507.449 700.484 507.449 722.788 507.5C723.62 507.5 724.745 506.841 725.38 508.159C724.207 509.428 722.641 509.022 721.223 509.022C700.484 509.072 679.794 509.022 659.054 509.022C658.321 509.022 657.587 509.022 656.853 509.022C654.065 509.072 654.016 509.174 654.065 512.015C654.065 512.471 654.065 512.928 654.114 513.333C654.457 514.703 654.506 516.123 654.897 517.493C654.995 517.949 655.044 518.406 655.093 518.812C655.777 523.935 656.609 529.007 657.196 534.13C657.538 537.123 657 537.783 654.114 537.833C646.435 537.884 638.805 537.884 631.125 537.833C630.196 537.935 629.218 537.833 628.435 537.174Z" fill="#6DB5DE"/>
<path d="M641.25 426.594C635.772 432.833 630.245 439.022 624.766 445.261C621.538 448.964 619.19 449.268 615.62 446.022C610.63 441.457 605.641 436.79 600.701 432.225C595.956 427.101 590.723 422.587 585.685 417.819C579.375 411.783 572.918 405.797 566.657 399.71C564.261 397.428 564.261 394.333 566.413 391.848C576.147 380.739 585.88 369.681 595.663 358.572C596.152 358.014 596.69 357.507 597.228 357C599.772 355.529 601.973 356.087 604.076 358.065C608.918 362.681 613.761 367.196 618.652 371.761C617.429 375.312 615.913 378.761 614.984 382.362C613.565 387.942 615.277 393.065 617.674 398.036C618.848 399.152 618.212 400.775 618.701 402.145C619.19 405.29 619.679 408.435 620.217 411.58C620.755 414.775 622.321 417.159 625.549 417.971C626.185 418.225 626.869 418.478 627.554 418.377C628.973 418.377 630.391 418.377 631.761 418.377C632.543 418.529 632.641 418.022 632.788 417.413C632.935 416.855 632.739 416.044 633.668 416.044C633.473 418.326 634.353 418.732 636.31 417.819C639.636 416.196 641.837 413.659 642.228 409.804C642.717 404.986 642.913 400.116 643.206 395.246C644.918 395.094 645.505 396.362 646.043 397.681C646.484 398.239 646.875 398.848 647.56 399.101C650.788 400.572 653.087 403.312 654.946 406.203C656.168 408.13 655.777 410.667 654.163 412.544C652.598 414.37 651.228 416.399 649.516 418.022C648.929 418.58 648.342 419.138 647.804 419.797C645.848 422.283 643.989 424.87 641.25 426.594Z" fill="#202B6D"/>
<path d="M590.967 479.754C591.407 493.804 591.848 507.804 592.288 521.855C592.337 522.87 592.288 523.884 592.288 524.899C591.554 525.71 590.576 525.761 589.598 525.761C585.734 525.761 581.869 525.862 578.005 525.71C577.565 525.71 577.076 525.71 576.636 525.71C574.386 525.558 572.038 526.37 569.935 524.949C566.657 516.225 563.38 507.551 560.152 498.826C557.755 492.384 555.456 485.891 553.157 479.449C565.239 479.449 577.32 479.449 589.353 479.5C589.842 479.5 590.38 479.652 590.967 479.754Z" fill="#6DB5DE"/>
<path d="M611.755 244.594C612.293 244.188 612.782 244.442 613.32 244.645C613.32 255.196 613.369 265.746 613.32 276.297C613.32 277.971 613.418 279.087 615.472 279.341C617.869 279.645 619.337 281.37 619.875 283.804C620.364 286.036 620.413 288.37 619.875 290.551C619.239 293.391 617.038 295.065 614.201 295.167C614.103 295.167 614.054 295.167 613.956 295.167C606.179 295.725 604.076 293.29 604.467 285.428C604.663 281.978 606.277 279.543 609.603 279.087C611.413 278.833 611.413 277.971 611.413 276.601C611.364 266.862 611.413 257.174 611.413 247.435C611.413 246.572 611.315 245.558 611.755 244.594Z" fill="#FDFDFE"/>
<path d="M622.565 327.326C622.565 329.609 622.565 331.891 622.565 334.225C622.467 334.225 622.418 334.225 622.321 334.225C622.321 331.942 622.321 329.609 622.321 327.326C622.369 327.275 622.467 327.275 622.565 327.326Z" fill="#81B1D3"/>
<path d="M577.614 525C582.505 525 587.348 524.949 592.239 524.949C592.435 530.427 592.63 535.906 592.777 541.384C593.119 553.507 593.413 565.63 593.706 577.804C592.239 578.819 590.82 578.667 589.353 577.855C585.147 567.254 581.234 556.551 577.516 545.746C576.44 539.507 577.125 533.167 576.978 526.927C576.978 526.167 577.174 525.507 577.614 525Z" fill="#FEFEFE"/>
<path d="M569.837 524.949C572.087 524.949 574.288 525 576.538 525C577.222 525.558 577.125 526.319 577.125 527.08C577.125 531.645 577.125 536.21 577.125 540.725C577.125 541.435 577.271 542.297 576.44 542.703C573.994 536.92 571.842 530.935 569.837 524.949Z" fill="#FBFBFC"/>
<path d="M594.147 587.341C593.706 587.341 593.266 587.391 592.826 587.391C591.701 584.652 590.478 581.913 589.842 578.971C591.114 577.855 592.434 577.957 593.755 578.92C593.902 581.71 594 584.5 594.147 587.341Z" fill="#FBFBFC"/>
<path d="M576.44 542.754C576.489 536.819 576.489 530.935 576.538 525C576.88 525 577.272 525 577.614 525C577.565 531.899 577.566 538.797 577.517 545.696C577.174 544.681 576.783 543.717 576.44 542.754Z" fill="#5881AE"/>
<path d="M593.756 578.87C592.435 578.87 591.163 578.92 589.843 578.92C589.696 578.515 589.549 578.159 589.354 577.754C590.821 577.754 592.239 577.754 593.707 577.703C593.756 578.109 593.756 578.515 593.756 578.87Z" fill="#648AB3"/>
<path d="M486.196 202.543C486.734 201.783 487.516 202.036 488.25 202.036C515.69 202.036 543.179 202.036 570.62 202.036C570.864 202.036 571.109 202.087 571.353 202.087C572.087 202.899 571.94 203.913 571.843 204.877C571.647 205.79 571.5 206.754 571.5 207.717C571.647 210 571.011 212.232 571.011 214.514C571.011 224.203 575.022 229.58 584.071 231.964C585.489 232.319 586.957 232.522 588.375 232.928C589.353 233.232 590.381 233.638 590.43 234.804C590.576 238.051 591.212 241.348 590.038 244.493C588.228 244.543 586.419 244.594 584.609 244.645C579.913 244.645 575.169 244.138 570.473 244.949C563.038 246.268 558.049 250.681 555.261 257.935C553.598 262.297 550.712 265.899 548.315 269.754C540.538 282.435 532.663 294.964 524.886 307.645C523.859 309.319 523.125 309.319 521.658 308.406C518.136 306.275 514.516 304.399 511.043 302.167C508.94 300.797 507.375 300.391 506.25 303.181C500.234 299.326 494.266 295.42 488.152 291.667C486.685 290.754 486.196 289.79 486.196 288.065C486.244 259.609 486.196 231.101 486.196 202.543Z" fill="#FEFEFE"/>
<path d="M589.94 244.493C589.94 241.703 589.793 238.913 589.989 236.174C590.136 234.044 589.06 233.638 587.495 233.384C583.288 232.674 579.277 231.507 575.804 228.768C571.94 225.725 570.619 221.413 570.326 216.645C570.13 213.5 570.619 210.457 570.913 207.362C571.5 207.058 572.527 207.515 572.723 206.602C572.967 205.536 571.647 205.587 571.255 204.928C571.255 203.964 571.255 203.051 571.255 202.087C571.353 201.732 571.5 201.326 571.598 200.971C571.94 198.841 572.234 196.659 572.576 194.529C572.821 196.051 574.092 195.594 574.924 195.645C580.109 196 585.293 196.355 590.527 196.558C592.141 196.609 592.924 197.217 593.511 198.79C597.082 207.87 600.848 216.949 604.468 226.029C605.69 229.123 605.739 232.471 605.984 235.717C606.179 238.659 605.984 241.602 605.984 244.544C600.701 244.544 595.321 244.493 589.94 244.493Z" fill="#FD9993"/>
<path d="M648.929 417.971C650.446 416.196 651.913 414.42 653.429 412.696C655.777 409.957 655.728 407.015 653.185 404.478C651.375 402.703 649.516 400.928 647.658 399.152C648.44 398.493 649.369 398.848 650.25 398.848C679.402 398.848 708.603 398.848 737.755 398.746C740.201 398.746 740.641 399.457 740.641 401.841C740.592 462.659 740.592 523.478 740.641 584.348C740.641 587.036 739.859 587.442 737.511 587.442C701.168 587.391 664.826 587.391 628.484 587.391C628.484 584.551 628.484 581.71 628.484 578.87C629.56 577.601 631.076 578.007 632.397 578.007C654.31 577.956 676.223 578.007 698.185 578.007C706.353 578.007 714.473 578.007 722.641 578.007C725.527 578.007 725.625 577.906 725.625 574.812C725.625 553.761 725.625 532.71 725.625 511.659C725.625 510.138 725.478 508.616 726.163 507.196C725.38 506.232 724.353 506.739 723.424 506.739C700.679 506.688 677.984 506.688 655.239 506.739C653.234 506.739 652.402 506.333 652.255 504.101C651.913 500.145 651.228 496.239 650.543 492.384C650.201 490.355 651.326 490.457 652.647 490.457C669.179 490.457 685.712 490.457 702.244 490.457C709.239 490.457 716.234 490.457 723.277 490.457C724.157 490.457 725.087 490.761 725.869 490.101C725.527 488.935 725.625 487.768 725.625 486.601C725.625 465.5 725.625 444.399 725.625 423.297C725.625 422.435 725.625 421.623 725.625 420.761C725.625 419.442 725.136 418.681 723.717 418.783C722.984 418.833 722.25 418.783 721.516 418.783C698.576 418.783 675.587 418.783 652.647 418.783C651.375 418.681 650.005 419.036 648.929 417.971Z" fill="#FEFEFE"/>
<path d="M628.435 537.174C637.043 537.123 645.701 537.072 654.31 537.123C656.168 537.123 657.049 537.072 656.609 534.536C655.63 529.261 655.19 523.884 654.505 518.558C655.239 517.493 656.364 517.696 657.391 517.696C661.451 517.645 665.511 517.645 669.571 517.696C670.989 517.696 671.87 517.391 671.87 515.616C671.87 513.841 670.989 513.536 669.522 513.536C665.12 513.536 660.766 513.587 656.364 513.536C655.337 513.536 654.212 513.739 653.478 512.674C652.842 508.21 652.842 508.21 657.293 508.21C678.864 508.21 700.484 508.21 722.054 508.21C723.13 508.21 724.158 508.362 725.234 508.413C726.065 509.123 725.821 510.138 725.821 511C725.821 532.456 725.821 553.913 725.821 575.42C725.821 578.109 725.625 578.261 723.033 578.312C692.315 578.312 661.598 578.312 630.88 578.312C630.049 578.312 629.217 578.413 628.532 577.855C628.484 564.21 628.435 550.717 628.435 537.174Z" fill="#FEFEFE"/>
<path d="M628.484 577.754C659.739 577.754 691.044 577.703 722.299 577.804C724.647 577.804 725.234 577.196 725.234 574.761C725.136 552.645 725.185 530.478 725.185 508.362C724.5 507.196 723.424 507.754 722.544 507.754C700.386 507.703 678.228 507.754 656.022 507.703C655.141 507.703 654.261 507.906 652.842 507.196C677.641 507.196 701.902 507.196 726.163 507.196C726.212 508.058 726.31 508.869 726.31 509.732C726.31 531.797 726.261 553.862 726.359 575.877C726.359 578.362 725.625 578.92 723.326 578.92C691.729 578.87 660.082 578.87 628.484 578.87C628.533 578.514 628.484 578.109 628.484 577.754Z" fill="#5F87B2"/>
<path d="M608.038 222.732C608.038 217.558 608.038 212.485 608.038 207.464C612.832 207.971 616.354 210.862 616.696 214.464C617.038 218.167 614.055 221.109 608.038 222.732Z" fill="#FC9993"/>
<path d="M442.761 274.268C439.63 271.427 436.451 268.688 433.418 265.797C432.147 264.58 431.608 265.594 430.924 266.355C425.935 271.884 419.82 275.283 412.581 276.652C395.315 279.949 377.804 267.116 375.163 249.058C373.109 234.906 379.321 221.261 390.913 214.413C402.946 207.362 417.179 208.58 427.891 217.659C433.907 222.783 437.478 229.427 439.092 237.29C439.386 238.659 439.043 239.167 437.674 238.913C437.576 238.913 437.527 238.913 437.429 238.913C433.076 239.37 430.435 238.304 428.625 233.181C424.712 222.377 412.679 216.645 401.918 219.333C390.179 222.275 382.842 232.623 383.429 245.304C383.967 256.565 392.772 266.304 403.777 267.877C411.75 268.993 418.5 266.456 424.272 260.725C425.397 259.609 425.69 258.898 424.223 257.681C419.967 254.181 415.859 250.427 411.701 246.775C409.598 244.949 409.255 242.971 410.723 241.348C412.19 239.623 414.049 239.674 416.103 241.5C419.967 244.898 423.782 248.297 427.647 251.645C428.185 252.152 428.527 252.659 429.848 252C432.244 250.833 435.277 251.797 438.016 252.101C438.554 252.152 438.407 252.761 438.31 253.167C438.212 253.674 438.016 254.13 437.869 254.587C436.304 259.355 436.353 259.304 440.119 262.601C445.011 266.913 449.902 271.225 454.793 275.536C451.712 277.312 451.271 278.783 452.641 282.485C449.315 279.746 446.038 277.007 442.761 274.268Z" fill="black"/>
<path d="M455.429 284.007C462.081 287.254 468.783 290.5 475.435 293.848C477.734 294.964 478.369 297.094 477.196 299.022C476.022 300.949 473.967 301.203 471.962 299.58C470.201 298.109 468.391 296.638 466.728 295.015C465.652 293.949 465.065 293.949 464.478 295.42C464.087 296.333 463.598 297.196 463.109 298.109C462.766 298.667 462.326 299.022 461.69 298.616C461.201 298.312 461.201 297.804 461.446 297.297C461.494 297.145 461.592 296.993 461.69 296.841C463.647 292.428 463.647 292.428 460.076 289.181C458.364 287.609 456.652 286.087 454.94 284.565C454.793 284.058 454.891 283.804 455.429 284.007Z" fill="#010101"/>
<path d="M455.429 284.007C455.234 284.159 455.087 284.362 454.891 284.515C454.255 284.312 453.815 283.855 453.375 283.145C454.304 283.094 454.891 283.449 455.429 284.007Z" fill="#36211F"/>
<path d="M181.957 512.065C181.957 475.239 181.957 438.362 182.006 401.536C182.006 400.572 181.272 399 182.69 398.696C184.402 398.341 186.261 398.29 187.973 398.848C188.168 398.898 188.266 399.609 188.266 399.964C188.315 400.572 188.266 401.13 188.266 401.739C188.266 475.239 188.266 548.79 188.217 622.29C188.217 623.304 188.853 624.877 187.63 625.181C185.918 625.536 184.06 625.435 182.299 625.13C181.565 625.029 181.908 623.812 181.908 623.051C181.908 616.558 181.908 610.014 181.908 603.522C181.957 573.036 181.957 542.551 181.957 512.065Z" fill="#FEFEFE"/>
<path d="M207.293 352.841C207.293 344.167 207.342 335.442 207.244 326.768C207.195 324.587 207.88 324.08 209.886 324.13C213.456 324.283 217.076 324.232 220.647 324.13C222.163 324.08 222.554 324.638 222.554 326.159C222.505 343.812 222.554 361.464 222.505 379.116C222.505 383.783 219.179 387.283 214.924 387.333C210.668 387.384 207.391 383.884 207.342 379.167C207.244 370.391 207.293 361.616 207.293 352.841Z" fill="#FEFEFE"/>
<path d="M219.375 387.283C223.435 384.239 223.631 380.333 223.631 376.123C223.533 355.529 223.582 334.884 223.582 314.29C223.582 312.87 223.288 311.449 225.44 311.297C226.614 311.196 226.565 309.775 226.468 308.761C226.223 306.63 227.642 306.833 228.815 307.036C229.989 307.188 232.044 305.971 231.897 308.761C231.799 310.283 232.142 311.449 233.951 311.5C235.125 311.551 234.832 312.514 234.832 313.225C234.881 315.659 234.832 318.145 234.832 320.58C234.832 338.993 234.881 357.406 234.783 375.819C234.783 380.08 234.881 384.087 239.038 387.232C232.288 387.283 226.223 387.283 219.375 387.283Z" fill="#FEFEFE"/>
<path d="M207.293 297.5C207.293 295.471 207.391 293.442 207.244 291.413C207.147 289.942 207.734 289.536 209.054 289.587C212.967 289.638 216.832 289.638 220.745 289.587C221.723 289.587 222.506 289.638 222.457 291.007C222.359 295.319 222.31 299.58 222.31 303.891C222.31 305.312 221.87 305.971 220.353 305.92C216.636 305.819 212.87 305.819 209.152 305.92C207.783 305.971 207.293 305.514 207.342 304.094C207.44 301.913 207.391 299.732 207.391 297.551C207.342 297.5 207.342 297.5 207.293 297.5Z" fill="#FEFEFE"/>
<path d="M207.391 314.949C207.391 313.073 207.489 311.246 207.342 309.37C207.195 307.544 207.733 306.833 209.592 306.935C213.065 307.087 216.587 307.036 220.06 306.935C221.478 306.884 222.163 307.138 222.31 308.964C222.603 313.073 222.31 317.232 222.505 321.341C222.554 322.71 222.065 323.065 220.793 323.065C216.88 323.015 213.016 322.964 209.103 323.065C207.489 323.116 207.195 322.406 207.244 320.986C207.342 318.957 207.244 316.928 207.244 314.899C207.342 314.949 207.342 314.949 207.391 314.949Z" fill="#FEFEFE"/>
<path d="M223.581 308.812C223.728 308.203 223.19 307.188 224.364 307.087C225.44 306.985 225.489 307.848 225.44 308.659C225.391 309.37 225.684 310.333 224.56 310.435C223.386 310.536 223.63 309.572 223.581 308.812Z" fill="#F7F9FB"/>
<path d="M234.831 308.812C234.733 309.42 235.076 310.333 234.049 310.333C232.826 310.384 232.973 309.37 232.973 308.558C232.924 307.746 233.022 306.935 234.049 307.036C235.222 307.188 234.684 308.203 234.831 308.812Z" fill="#FDFDFE"/>
<path d="M234.832 304.5C234.783 305.159 234.978 305.92 233.951 305.92C233.071 305.92 232.924 305.362 232.924 304.602C232.924 303.891 233.022 303.232 233.853 303.13C234.832 303.029 234.832 303.79 234.832 304.5Z" fill="#F0F3F7"/>
<path d="M204.359 308.609C204.408 307.949 204.212 307.087 205.141 307.087C206.267 307.036 206.071 308.051 206.022 308.71C206.022 309.37 206.316 310.435 205.141 310.333C204.114 310.283 204.456 309.268 204.359 308.609Z" fill="#F6F8FA"/>
<path d="M224.413 303.13C225.342 303.232 225.489 303.841 225.44 304.551C225.44 305.261 225.391 305.87 224.462 305.87C223.483 305.87 223.532 305.159 223.532 304.5C223.581 303.841 223.532 303.181 224.413 303.13Z" fill="#EFF3F7"/>
<path d="M205.239 303.232C206.022 303.333 206.022 303.942 206.022 304.551C206.022 305.261 206.022 305.971 205.043 305.87C204.211 305.768 204.358 305.058 204.358 304.5C204.358 303.891 204.456 303.283 205.239 303.232Z" fill="#FEFEFE"/>
<path d="M646.092 397.732C645.163 396.92 644.185 396.109 643.255 395.297C643.011 392.304 643.598 389.362 643.695 386.37C678.081 386.37 712.467 386.369 746.853 386.42C750.864 386.42 750.277 385.862 750.277 390.072C750.277 392.507 751.304 395.703 749.886 397.174C748.369 398.797 745.239 397.681 742.842 397.681C710.608 397.732 678.375 397.732 646.092 397.732Z" fill="#FEFEFE"/>
<path d="M627.603 418.428C626.625 419.848 626.038 419.29 625.598 418.022C625.794 413.457 625.989 408.942 626.185 404.377C626.234 403.616 626.185 402.855 626.283 402.094C626.332 401.435 626.332 400.623 627.212 400.573C628.337 400.573 628.141 401.536 628.141 402.246C627.995 406.812 627.799 411.326 627.652 415.891C627.554 416.754 627.603 417.565 627.603 418.428Z" fill="#050303"/>
<path d="M618.701 402.196C616.94 401.232 618.065 399.457 617.674 398.087C617.87 393.826 618.016 389.515 618.212 385.254C618.261 384.493 617.967 383.326 619.19 383.377C620.364 383.428 620.119 384.544 620.119 385.355C619.973 390.225 619.777 395.094 619.581 399.964C619.581 400.826 619.386 401.638 618.701 402.196Z" fill="#060404"/>
<path d="M633.717 416.094C633.228 416.754 633.522 417.565 633.424 418.275C633.375 418.783 633.375 419.341 632.739 419.391C632.103 419.442 631.957 418.884 631.81 418.428C632.005 413.304 632.152 408.181 632.397 403.007C632.446 402.196 632.006 400.826 633.326 400.826C634.647 400.826 634.304 402.094 634.255 402.956C634.109 407.37 633.913 411.732 633.717 416.094Z" fill="#070404"/>
<path d="M715.011 607.022C715.011 601.696 715.06 596.37 714.962 591.094C714.913 589.42 715.304 588.71 717.114 588.761C720.685 588.913 724.255 588.862 727.875 588.761C729.538 588.71 729.929 589.37 729.88 590.942C729.831 601.747 729.831 612.551 729.88 623.355C729.88 624.826 729.538 625.435 727.973 625.435C724.255 625.333 720.489 625.333 716.723 625.435C715.304 625.486 714.962 624.877 714.962 623.507C715.06 617.978 715.011 612.5 715.011 607.022Z" fill="#FEFEFE"/>
<path d="M296.119 224.761C296.461 225.065 296.608 225.217 296.804 225.42C298.467 227.145 300.668 228.616 301.646 230.696C302.625 232.826 300.375 234.906 299.836 237.087C296.413 250.681 304.288 264.275 317.543 267.623C330.212 270.819 343.321 262.297 346.206 249.007C349.092 235.565 340.826 222.225 327.815 219.384C322.728 218.268 317.739 218.775 313.092 221.159C311.576 221.92 310.597 221.819 309.619 220.449C309.13 219.79 308.494 219.232 307.907 218.623C304.777 215.377 304.728 215.225 308.69 213.399C321.114 207.616 333 208.732 343.467 217.71C354.326 226.993 357.897 239.37 353.886 253.268C349.973 266.862 340.63 275.08 327.032 276.855C313.679 278.63 302.771 273.355 295.532 261.485C288.44 249.819 288.733 237.696 295.385 225.775C295.63 225.42 295.826 225.167 296.119 224.761Z" fill="black"/>
<path d="M413.706 343.761C406.223 341.428 401.331 336.507 399.326 328.899C397.223 320.833 399.13 313.63 404.951 307.797C411.065 301.659 420.261 300.239 427.842 304.043C435.668 307.949 440.217 316.217 439.386 325.094C438.554 334.022 432.734 341.275 424.418 343.71C421.581 344.522 421.679 344.522 421.826 341.478C421.924 339.703 422.119 338.536 424.125 337.826C431.071 335.341 434.837 328.493 433.859 320.833C432.978 313.985 427.402 308.558 420.505 307.797C413.511 307.036 407.005 311.399 404.755 318.297C402.505 325.196 405.049 332.906 411.261 336.457C413.804 337.928 414.538 339.449 413.902 342.138C413.804 342.543 413.804 343.051 413.706 343.761Z" fill="black"/>
<path d="M294.163 311.551C294.31 311.652 294.457 311.703 294.554 311.804C296.707 313.732 298.076 315.355 296.658 319.058C294.163 325.551 297.587 333.261 303.359 336.659C309.619 340.312 317.054 339.246 321.945 333.92C326.592 328.848 327.374 320.985 323.804 314.949C320.184 308.862 312.945 305.92 306.44 308.456C303.994 309.42 302.576 308.964 301.158 307.036C300.766 306.529 300.179 306.225 299.592 305.768C308.005 299.377 320.136 301.304 326.885 309.775C333.782 318.399 332.902 331.029 324.88 338.841C317.25 346.246 304.875 346.348 297.342 338.993C289.614 331.536 288.196 319.007 294.163 311.551Z" fill="black"/>
<path d="M351.832 340.058C352.37 339.551 352.761 339.297 353.055 338.891C354.62 336.862 356.136 336.507 358.729 337.674C366.799 341.275 375.897 336.609 378.538 327.985C381.18 319.413 376.239 310.232 367.826 308.051C359.462 305.92 350.902 311.652 349.386 320.478C348.946 322.913 348.848 325.5 349.875 327.732C350.854 329.812 350.169 330.978 348.652 332.094C348.017 332.601 347.43 333.159 346.794 333.717C341.511 326.565 343.37 313.833 350.56 307.442C359.071 299.833 371.006 300.239 378.832 308.406C386.413 316.319 386.707 329.051 379.614 337.37C372.375 345.638 360.294 346.906 351.832 340.058Z" fill="black"/>
<path d="M305.071 426.442C312.603 426.391 318.864 432.072 319.843 439.833C320.772 447.188 315.978 454.493 309.082 456.42C301.94 458.348 294.261 454.493 291.669 447.493C291.326 446.63 290.25 445.159 291.522 444.703C292.696 444.297 294.505 443.739 295.337 446.022C296.56 449.42 299.054 451.5 302.38 452.464C307.908 454.036 313.728 450.79 315.44 445.21C317.201 439.63 314.56 433.645 309.375 431.362C304.092 429.08 298.027 431.362 295.582 436.841C294.848 438.464 293.967 438.768 292.451 438.768C290.984 438.768 290.886 438.21 291.228 436.942C292.891 430.957 298.761 426.493 305.071 426.442Z" fill="black"/>
<path d="M305.071 399.761C299.054 399.71 293.527 395.754 291.522 389.971C291.277 389.21 290.152 387.891 291.571 387.536C292.696 387.283 294.359 386.572 295.239 388.703C297.049 393.268 300.522 395.652 305.315 395.652C310.647 395.652 315.098 391.543 315.88 385.964C316.614 380.841 313.386 375.514 308.592 373.841C303.652 372.116 298.125 374.449 295.63 379.217C295.239 379.978 295.337 381.246 294.261 381.399C293.234 381.551 291.913 381.703 291.179 381.196C290.446 380.688 291.326 379.471 291.62 378.659C294.212 371.761 301.696 367.906 308.837 369.732C315.929 371.558 320.723 378.812 319.842 386.37C318.913 394.08 312.554 399.812 305.071 399.761Z" fill="black"/>
<path d="M431.266 429.435C429.799 431.515 428.527 432.377 425.983 431.159C421.728 429.13 416.348 431.21 413.706 435.217C410.821 439.58 411.163 445.413 414.587 449.217C417.864 452.92 423.195 453.884 427.5 451.551C431.902 449.167 434.201 444.094 433.027 439.225C432.636 437.652 432.244 436.435 433.809 435.116C435.326 433.848 435.57 434.558 436.059 435.826C438.554 441.913 436.842 449.116 431.804 453.428C426.815 457.688 419.625 458.094 414.293 454.341C408.815 450.486 406.418 443.435 408.424 436.993C410.429 430.601 416.201 426.341 422.706 426.442C425.983 426.493 428.38 427.355 431.266 429.435Z" fill="black"/>
<path d="M382.696 399.761C374.87 399.761 368.755 393.775 368.022 385.457C367.386 378.051 372.717 371.101 380.25 369.529C387.342 368.058 394.63 372.725 396.734 380.08C396.929 380.841 397.81 382.159 396.636 382.362C395.462 382.565 393.652 383.377 392.967 381.145C391.891 377.645 389.592 375.21 386.266 373.993C380.837 372.014 374.967 374.754 372.717 380.232C370.516 385.659 372.815 392.051 377.951 394.638C383.087 397.225 389.201 395.246 392.136 390.022C392.527 389.312 392.527 388.044 393.799 388.196C394.728 388.297 396 387.942 396.538 388.754C397.027 389.464 396.245 390.478 395.853 391.29C393.457 396.515 388.37 399.761 382.696 399.761Z" fill="black"/>
<path d="M331.777 375.565C333.881 376.985 334.223 378.558 333.196 381.196C331.337 386.014 333.538 391.442 337.794 394.13C341.902 396.717 347.43 396.109 350.902 392.609C354.277 389.261 355.158 383.58 353.006 379.319C350.658 374.754 345.62 372.167 340.826 373.79C338.185 374.703 337.402 373.029 336.18 371.558C341.12 367.5 349.924 368.971 354.522 374.601C359.707 380.942 359.12 390.123 353.201 395.804C347.625 401.13 338.674 401.029 333.294 395.551C327.766 389.971 327.082 380.942 331.777 375.565Z" fill="black"/>
<path d="M431.315 372.471C429.848 374.652 428.283 375.058 425.788 373.993C421.239 372.065 415.956 374.348 413.315 378.761C410.82 382.971 411.407 388.652 414.782 392.304C418.206 396.007 423.636 396.819 427.989 394.232C432.245 391.696 434.495 386.522 432.881 381.703C432 379.014 433.859 378.406 434.984 377.087C438.897 382.007 437.723 390.783 432.538 395.754C426.864 401.283 417.815 401.13 412.239 395.398C406.761 389.819 406.418 380.638 411.456 374.5C416.397 368.514 425.201 367.601 431.315 372.471Z" fill="black"/>
<path d="M336.131 428.471C343.223 424.565 351.343 426.544 355.598 433.138C359.756 439.529 358.533 448.254 352.859 453.275C347.185 458.297 338.625 458.043 333.294 452.667C327.815 447.138 327.082 438.717 331.582 432.783C334.223 434.812 334.223 434.812 333.196 437.855C331.533 442.725 333.245 448.101 337.402 450.993C341.413 453.783 346.794 453.428 350.511 450.08C354.131 446.884 355.207 441.152 353.104 436.688C350.951 432.174 345.864 429.384 341.071 430.855C338.43 431.616 337.402 430.5 336.131 428.471Z" fill="black"/>
<path d="M382.744 426.442C389.201 426.442 394.777 430.652 396.684 437.043C396.929 437.804 398.005 439.225 396.538 439.478C395.413 439.681 393.603 440.239 392.918 438.058C391.451 433.696 388.467 431.109 384.016 430.5C378.734 429.79 373.647 433.341 372.277 438.616C370.859 444.145 373.549 449.775 378.587 451.906C383.625 454.087 389.397 452.058 392.136 447.138C392.576 446.326 392.625 445.261 394.043 445.21C396.978 445.109 397.271 445.464 396.049 448.152C392.967 454.848 385.435 458.348 378.636 456.167C371.495 453.884 367.239 446.833 368.364 439.072C369.343 431.819 375.505 426.391 382.744 426.442Z" fill="black"/>
<path d="M603.342 180.63C584.462 180.63 565.532 180.58 546.652 180.681C544.451 180.681 543.962 180.022 543.962 177.841C544.059 155.978 544.059 134.065 543.962 112.203C543.962 110.174 544.402 109.464 546.505 109.464C584.462 109.514 622.467 109.514 660.424 109.464C662.527 109.464 662.967 110.123 662.967 112.152C662.918 134.014 662.869 155.927 662.967 177.79C662.967 180.225 662.185 180.63 660.081 180.63C641.103 180.63 622.223 180.63 603.342 180.63Z" fill="#5983AF"/>
<path d="M603.342 100.587C584.609 100.587 565.826 100.587 547.092 100.587C543.962 100.587 543.962 100.587 543.962 97.2392C543.962 95.616 544.06 93.9928 543.913 92.4204C543.766 90.5435 544.5 90.1885 546.163 90.1885C584.315 90.2392 622.467 90.2392 660.62 90.1885C662.527 90.1885 663.016 90.7972 662.918 92.6233C662.772 94.5508 662.772 96.5291 662.918 98.4566C663.016 100.181 662.38 100.638 660.815 100.587C655.777 100.486 650.69 100.536 645.652 100.536C631.516 100.587 617.429 100.587 603.342 100.587Z" fill="#5882AE"/>
<path d="M641.25 426.594C643.354 424.21 645.457 421.775 647.56 419.391C648.685 418.783 649.859 418.732 651.131 418.732C674.658 418.732 698.234 418.732 721.761 418.732C725.625 418.732 725.821 418.935 725.821 422.841C725.821 443.79 725.821 464.739 725.821 485.688C725.821 489.442 725.821 489.442 722.152 489.442C719.56 489.442 716.919 489.442 714.326 489.442C711.343 489.442 711 489.138 711 485.942C710.951 474.529 710.854 463.116 711.049 451.703C711.147 445.667 708.897 441.254 703.614 438.667C701.805 437.754 701.12 436.435 701.218 434.406C701.267 432.63 701.218 430.855 701.218 429.08C701.218 427.812 700.68 427.304 699.408 427.304C692.756 427.355 693.734 426.746 693.881 432.58C693.979 435.928 693 438.007 690.114 439.732C686.299 442.015 684.441 445.819 684.441 450.486C684.489 461.797 684.441 473.109 684.441 484.471C684.441 485.232 684.441 485.993 684.441 486.754C684.441 488.63 683.707 489.544 681.799 489.493C679.109 489.391 676.419 489.493 673.728 489.442C671.332 489.391 670.941 489.036 670.892 486.399C670.843 480.971 670.892 475.594 670.843 470.167C670.843 467.63 670.794 465.094 670.892 462.558C670.989 460.529 670.353 459.616 668.25 459.667C663.995 459.768 659.788 459.768 655.533 459.667C653.674 459.616 653.136 460.428 653.136 462.254C653.185 470.116 653.185 477.978 653.136 485.841C653.136 487.007 653.576 488.478 651.962 488.986C650.788 489.036 650.152 488.732 649.908 487.21C648.392 475.797 646.728 464.384 645.114 452.971C643.843 444.246 642.571 435.42 641.25 426.594Z" fill="#FEFEFE"/>
<path d="M651.962 489.036C652.696 488.225 652.353 487.261 652.353 486.399C652.402 478.13 652.451 469.862 652.305 461.543C652.256 459.464 652.94 459.007 654.799 459.007C659.592 459.159 664.435 459.159 669.228 459.007C671.136 458.957 671.723 459.514 671.723 461.543C671.625 469.913 671.723 478.283 671.625 486.652C671.625 488.529 672.065 489.188 673.924 489.087C676.419 488.935 678.962 488.935 681.506 489.087C683.315 489.188 683.902 488.681 683.853 486.754C683.707 479.652 683.707 472.551 683.707 465.449C683.707 460.63 683.902 455.812 683.755 450.993C683.56 444.855 686.495 440.746 691.435 438.007C692.756 437.297 693.196 436.587 693.147 435.116C693.049 433.087 693.196 431.058 693.098 429.029C693 427.304 693.489 426.645 695.25 426.645C701.951 426.543 702.098 426.493 701.902 433.391C701.853 435.978 702.489 437.297 704.788 438.616C709.19 441.101 711.636 445.058 711.587 450.587C711.489 462.558 711.587 474.58 711.489 486.601C711.489 488.58 711.929 489.239 713.886 489.138C716.821 488.985 719.756 488.985 722.69 489.138C724.598 489.239 725.185 488.63 725.185 486.601C725.087 476.355 725.136 466.159 725.136 455.913C725.136 444.652 725.087 433.442 725.185 422.181C725.185 420 724.696 419.341 722.495 419.341C697.5 419.442 672.457 419.391 647.462 419.391C647.902 418.935 648.391 418.427 648.832 417.971C649.908 418.022 650.935 418.123 652.011 418.123C675.734 418.123 699.408 418.174 723.131 418.072C725.527 418.072 726.31 418.58 726.261 421.268C726.163 443.232 726.212 465.196 726.163 487.159C726.163 488.123 726.506 489.188 725.772 490.051C716.576 490 707.381 490 698.185 489.949C683.022 489.949 667.908 489.949 652.745 489.949C651.962 489.949 651.18 489.949 649.859 489.949C651.033 489.493 651.473 489.29 651.962 489.036Z" fill="#5A83AF"/>
<path d="M654.457 517.442C653.527 516.428 654.261 515.007 653.527 513.942C654.065 513.283 654.799 513.333 655.533 513.333C660.228 513.333 664.924 513.333 669.619 513.333C671.185 513.333 672.065 513.79 672.065 515.616C672.065 517.391 671.282 517.949 669.668 517.949C665.217 517.899 660.766 517.949 656.315 517.949C655.631 517.848 654.995 517.848 654.457 517.442Z" fill="#FEFEFE"/>
<path d="M654.457 517.442C659.495 517.442 664.484 517.391 669.522 517.442C670.794 517.442 671.625 517.442 671.625 515.667C671.625 513.942 670.892 513.79 669.571 513.841C664.239 513.942 658.859 513.942 653.527 513.993C653.527 513.536 653.527 513.13 653.527 512.674C659.152 512.674 664.778 512.826 670.403 512.674C672.897 512.572 672.652 513.993 672.652 515.667C672.652 517.341 672.848 518.71 670.354 518.659C665.071 518.457 659.739 518.609 654.457 518.659C654.457 518.203 654.457 517.797 654.457 517.442Z" fill="#5E86B1"/>
<path d="M612.098 293.29C607.255 293.29 606.424 292.377 606.424 287.152C606.424 282.08 607.451 281.065 612.44 281.065C617.038 281.065 618.212 282.435 618.212 287.609C618.261 292.275 617.136 293.29 612.098 293.29Z" fill="#6DB5DE"/>
<path d="M539.266 260.268C539.657 261.891 538.728 262.297 538.043 262.956C535.744 265.087 533.397 267.167 531.049 269.297C530.756 269.551 530.413 269.956 530.022 269.601C529.582 269.246 529.875 268.841 530.169 268.536C533.201 265.797 536.233 263.058 539.266 260.268Z" fill="#648BB4"/>
<path d="M571.304 204.928C572.185 204.725 573.065 204.623 573.603 205.638C573.896 206.297 573.799 206.906 573.309 207.464C572.478 208.326 571.745 207.819 570.962 207.362C570.62 206.5 570.718 205.688 571.304 204.928Z" fill="#0F0A09"/>
<path d="M590.087 206.551C589.989 207.464 589.549 208.073 588.571 208.123C587.69 208.123 587.152 207.616 587.055 206.804C586.957 205.841 587.544 205.13 588.424 205.029C589.402 204.928 589.94 205.536 590.087 206.551Z" fill="#0F0909"/>
<path d="M603.489 179.565C584.902 179.565 566.364 179.514 547.777 179.616C545.772 179.616 545.136 179.159 545.185 176.978C545.283 155.674 545.234 134.42 545.185 113.116C545.185 111.138 545.674 110.58 547.63 110.58C584.951 110.63 622.272 110.63 659.544 110.58C661.305 110.58 661.892 110.986 661.892 112.913C661.843 134.268 661.794 155.674 661.892 177.029C661.892 179.261 661.158 179.616 659.25 179.565C640.614 179.514 622.076 179.565 603.489 179.565Z" fill="#FEFEFE"/>
<path d="M603.294 99.471C584.804 99.471 566.315 99.4202 547.826 99.5217C545.625 99.5217 545.087 98.913 545.136 96.7318C545.283 91.355 545.185 91.355 550.419 91.355C586.614 91.355 622.761 91.4058 658.957 91.3043C661.354 91.3043 661.941 91.9637 661.843 94.3985C661.647 99.5217 661.794 99.5217 656.805 99.5217C639 99.471 621.147 99.471 603.294 99.471Z" fill="#FEFEFE"/>
<path d="M697.94 455.812C701.511 455.812 705.13 455.862 708.701 455.812C710.071 455.761 710.56 456.217 710.56 457.688C710.511 463.674 710.511 469.71 710.56 475.696C710.56 477.065 710.022 477.42 708.799 477.42C701.364 477.37 693.978 477.37 686.543 477.42C685.321 477.42 684.783 477.065 684.831 475.696C684.88 469.71 684.88 463.674 684.831 457.688C684.831 456.217 685.32 455.812 686.69 455.812C690.456 455.862 694.223 455.812 697.94 455.812Z" fill="#FEFEFE"/>
<path d="M697.744 454.543C694.516 454.543 691.239 454.543 688.011 454.543C684.929 454.543 685.125 454.543 684.88 451.246C684.342 445.261 688.842 439.377 694.956 437.906C700.63 436.536 706.646 439.58 709.483 445.109C710.853 447.797 710.559 450.688 710.559 453.529C710.559 454.848 709.483 454.543 708.75 454.543C705.032 454.543 701.413 454.543 697.744 454.543Z" fill="#FEFEFE"/>
<path d="M661.793 489.036C659.592 489.036 657.391 488.935 655.19 489.087C653.771 489.138 653.38 488.58 653.429 487.21C653.478 482.645 653.478 478.08 653.429 473.514C653.429 472.246 653.771 471.739 655.092 471.739C659.739 471.79 664.386 471.79 669.033 471.739C670.353 471.739 670.696 472.196 670.696 473.514C670.647 478.08 670.647 482.645 670.696 487.21C670.696 488.63 670.353 489.188 668.935 489.087C666.489 488.935 664.141 489.036 661.793 489.036Z" fill="#FEFEFE"/>
<path d="M697.647 489.036C693.978 489.036 690.31 488.986 686.641 489.087C685.223 489.138 684.783 488.63 684.831 487.21C684.929 485.029 684.929 482.797 684.831 480.616C684.734 478.993 685.467 478.638 686.886 478.638C694.125 478.688 701.413 478.688 708.652 478.638C710.168 478.638 710.657 479.196 710.608 480.717C710.511 482.746 710.511 484.775 710.608 486.804C710.706 488.529 710.217 489.188 708.456 489.138C704.837 488.935 701.266 489.036 697.647 489.036Z" fill="#FEFEFE"/>
<path d="M662.038 460.174C664.337 460.174 666.587 460.225 668.886 460.123C670.304 460.072 670.745 460.63 670.647 462.051C670.549 464.333 670.549 466.616 670.647 468.899C670.696 470.167 670.304 470.674 668.984 470.674C664.337 470.623 659.739 470.623 655.092 470.674C653.772 470.674 653.38 470.217 653.429 468.899C653.527 466.109 652.598 462.609 653.869 460.783C655.141 458.957 658.712 460.428 661.304 460.174C661.549 460.174 661.793 460.174 662.038 460.174Z" fill="#FDFEFE"/>
<path d="M700.924 432.58C700.68 433.696 701.609 435.674 700.435 436.13C698.87 436.739 696.962 436.384 695.152 436.333C694.419 436.333 694.37 435.623 694.37 435.015C694.37 433.899 694.321 432.833 694.37 431.717C694.419 427.457 693.832 427.964 697.989 427.964C701.511 428.015 700.875 427.406 700.924 432.58Z" fill="#FAFBFC"/>
</svg>
