<svg width="34" height="35" viewBox="0 0 34 35" fill="none" xmlns="http://www.w3.org/2000/svg">
<path opacity="0.5" d="M24 34H10C4.75329 34 0.5 29.7467 0.5 24.5V10.5C0.5 5.25329 4.75329 1 10 1H24C29.2467 1 33.5 5.25329 33.5 10.5V24.5C33.5 29.7467 29.2467 34 24 34Z" stroke="#CED3DE"/>
<g clip-path="url(#clip0_518_3106)">
<path d="M12.0613 16.6401C12.0613 16.41 12.1578 16.1799 12.3504 16.0045L18.4137 10.4841C18.7994 10.1329 19.4248 10.1329 19.8103 10.4841C20.1959 10.8351 20.1959 11.4044 19.8103 11.7556L14.4452 16.6401L19.8101 21.5247C20.1957 21.8758 20.1957 22.445 19.8101 22.796C19.4246 23.1474 18.7992 23.1474 18.4135 22.796L12.3502 17.2757C12.1576 17.1002 12.0613 16.8701 12.0613 16.6401V16.6401Z" fill="#222B45"/>
</g>
<defs>
<clipPath id="clip0_518_3106">
<rect width="12.8388" height="8.03819" fill="white" transform="matrix(0 1 -1 0 20.0995 10.2207)"/>
</clipPath>
</defs>
</svg>
