<svg width="34" height="35" viewBox="0 0 34 35" fill="none" xmlns="http://www.w3.org/2000/svg">
<path opacity="0.5" d="M10 1H24C29.2467 1 33.5 5.25329 33.5 10.5V24.5C33.5 29.7467 29.2467 34 24 34H10C4.75329 34 0.5 29.7467 0.5 24.5V10.5C0.5 5.25329 4.75329 1 10 1Z" stroke="#CED3DE"/>
<g clip-path="url(#clip0_518_3113)">
<path d="M21.9394 16.6399C21.9394 16.87 21.8429 17.1001 21.6504 17.2755L15.587 22.7959C15.2013 23.1471 14.576 23.1471 14.1904 22.7959C13.8049 22.4449 13.8049 21.8757 14.1904 21.5245L19.5556 16.6399L14.1906 11.7554C13.805 11.4042 13.805 10.835 14.1906 10.484C14.5761 10.1327 15.2015 10.1327 15.5872 10.484L21.6505 16.0043C21.8432 16.1799 21.9394 16.4099 21.9394 16.6399V16.6399Z" fill="#222B45"/>
</g>
<defs>
<clipPath id="clip0_518_3113">
<rect width="12.8388" height="8.03819" fill="white" transform="matrix(0 -1 1 0 13.9012 23.0593)"/>
</clipPath>
</defs>
</svg>
