<svg width="72" height="72" viewBox="0 0 72 72" fill="none" xmlns="http://www.w3.org/2000/svg">
<g filter="url(#filter0_d_73_200)">
<circle cx="36" cy="32" r="28" fill="#FEC62F"/>
<g clip-path="url(#clip0_73_200)">
<path d="M42 33H37V38C37 38.55 36.55 39 36 39C35.45 39 35 38.55 35 38V33H30C29.45 33 29 32.55 29 32C29 31.45 29.45 31 30 31H35V26C35 25.45 35.45 25 36 25C36.55 25 37 25.45 37 26V31H42C42.55 31 43 31.45 43 32C43 32.55 42.55 33 42 33Z" fill="#432C81"/>
</g>
</g>
<defs>
<filter id="filter0_d_73_200" x="0" y="0" width="72" height="72" filterUnits="userSpaceOnUse" color-interpolation-filters="sRGB">
<feFlood flood-opacity="0" result="BackgroundImageFix"/>
<feColorMatrix in="SourceAlpha" type="matrix" values="0 0 0 0 0 0 0 0 0 0 0 0 0 0 0 0 0 0 127 0" result="hardAlpha"/>
<feOffset dy="4"/>
<feGaussianBlur stdDeviation="4"/>
<feColorMatrix type="matrix" values="0 0 0 0 0 0 0 0 0 0 0 0 0 0 0 0 0 0 0.16 0"/>
<feBlend mode="normal" in2="BackgroundImageFix" result="effect1_dropShadow_73_200"/>
<feBlend mode="normal" in="SourceGraphic" in2="effect1_dropShadow_73_200" result="shape"/>
</filter>
<clipPath id="clip0_73_200">
<rect width="24" height="24" fill="white" transform="translate(24 20)"/>
</clipPath>
</defs>
</svg>
