<svg width="26" height="26" viewBox="0 0 26 26" fill="none" xmlns="http://www.w3.org/2000/svg">
<g clip-path="url(#clip0_576_486)">
<path d="M12.6689 8.32387L4.66671 14.9146V22.0279C4.66671 22.212 4.73987 22.3887 4.8701 22.5189C5.00034 22.6491 5.17697 22.7223 5.36115 22.7223L10.2249 22.7097C10.4084 22.7088 10.5842 22.6352 10.7137 22.5051C10.8432 22.375 10.9158 22.1989 10.9158 22.0153V17.8612C10.9158 17.677 10.989 17.5004 11.1192 17.3701C11.2495 17.2399 11.4261 17.1667 11.6103 17.1667H14.3881C14.5722 17.1667 14.7489 17.2399 14.8791 17.3701C15.0093 17.5004 15.0825 17.677 15.0825 17.8612V22.0122C15.0822 22.1036 15.1 22.1941 15.1347 22.2787C15.1695 22.3632 15.2206 22.44 15.2851 22.5047C15.3496 22.5694 15.4263 22.6207 15.5107 22.6558C15.5951 22.6908 15.6856 22.7088 15.7769 22.7088L20.6389 22.7223C20.8231 22.7223 20.9997 22.6491 21.13 22.5189C21.2602 22.3887 21.3334 22.212 21.3334 22.0279V14.9098L13.3329 8.32387C13.2389 8.24805 13.1217 8.20671 13.0009 8.20671C12.8801 8.20671 12.7629 8.24805 12.6689 8.32387ZM25.3091 12.8035L21.6806 9.81258V3.80086C21.6806 3.66273 21.6257 3.53025 21.528 3.43258C21.4304 3.3349 21.2979 3.28003 21.1598 3.28003H18.7292C18.5911 3.28003 18.4586 3.3349 18.3609 3.43258C18.2632 3.53025 18.2084 3.66273 18.2084 3.80086V6.95234L14.3225 3.75529C13.9496 3.44842 13.4817 3.28064 12.9987 3.28064C12.5158 3.28064 12.0479 3.44842 11.675 3.75529L0.688408 12.8035C0.635668 12.8471 0.592035 12.9006 0.56 12.9611C0.527965 13.0215 0.508157 13.0877 0.501708 13.1558C0.495259 13.2239 0.502295 13.2927 0.522414 13.3581C0.542534 13.4235 0.575342 13.4843 0.618964 13.537L1.72573 14.8825C1.76924 14.9354 1.82275 14.9792 1.8832 15.0113C1.94365 15.0435 2.00986 15.0635 2.07803 15.0701C2.1462 15.0766 2.215 15.0697 2.28049 15.0496C2.34598 15.0296 2.40687 14.9968 2.45968 14.9532L12.6689 6.54435C12.7629 6.46854 12.8801 6.4272 13.0009 6.4272C13.1217 6.4272 13.2389 6.46854 13.3329 6.54435L23.5426 14.9532C23.5953 14.9968 23.6561 15.0296 23.7215 15.0498C23.7869 15.0699 23.8556 15.0769 23.9237 15.0705C23.9918 15.064 24.058 15.0442 24.1185 15.0122C24.1789 14.9801 24.2325 14.9365 24.2761 14.8838L25.3829 13.5383C25.4264 13.4853 25.4591 13.4242 25.479 13.3585C25.4989 13.2928 25.5056 13.2238 25.4987 13.1555C25.4919 13.0872 25.4716 13.021 25.439 12.9606C25.4065 12.9002 25.3623 12.8468 25.3091 12.8035Z" fill="#432C81"/>
</g>
<defs>
<clipPath id="clip0_576_486">
<rect width="25" height="25" fill="white" transform="translate(0.5 0.5)"/>
</clipPath>
</defs>
</svg>
