<svg width="20" height="20" viewBox="0 0 20 20" fill="none" xmlns="http://www.w3.org/2000/svg">
<g clip-path="url(#clip0_585_238)">
<path d="M9.99996 1.66675C5.39996 1.66675 1.66663 5.40008 1.66663 10.0001C1.66663 14.6001 5.39996 18.3334 9.99996 18.3334C14.6 18.3334 18.3333 14.6001 18.3333 10.0001C18.3333 5.40008 14.6 1.66675 9.99996 1.66675ZM9.16663 16.6084C5.87496 16.2001 3.33329 13.4001 3.33329 10.0001C3.33329 9.48342 3.39996 8.99175 3.50829 8.50842L7.49996 12.5001V13.3334C7.49996 14.2501 8.24996 15.0001 9.16663 15.0001V16.6084ZM14.9166 14.4917C14.7 13.8167 14.0833 13.3334 13.3333 13.3334H12.5V10.8334C12.5 10.3751 12.125 10.0001 11.6666 10.0001H6.66663V8.33342H8.33329C8.79163 8.33342 9.16663 7.95842 9.16663 7.50008V5.83341H10.8333C11.75 5.83341 12.5 5.08341 12.5 4.16675V3.82508C14.9416 4.81675 16.6666 7.20842 16.6666 10.0001C16.6666 11.7334 16 13.3084 14.9166 14.4917Z" fill="#A095C1"/>
</g>
<defs>
<clipPath id="clip0_585_238">
<rect width="20" height="20" fill="white"/>
</clipPath>
</defs>
</svg>
