<svg width="27" height="26" viewBox="0 0 27 26" fill="none" xmlns="http://www.w3.org/2000/svg">
<path fill-rule="evenodd" clip-rule="evenodd" d="M13.5499 4.58691C11.2257 4.58691 9.34325 6.4694 9.34325 8.79358C9.34325 11.1178 11.2257 13.0002 13.5499 13.0002C15.8741 13.0002 17.7566 11.1178 17.7566 8.79358C17.7566 6.4694 15.8741 4.58691 13.5499 4.58691ZM15.6533 8.79358C15.6533 7.63675 14.7068 6.69025 13.5499 6.69025C12.3931 6.69025 11.4466 7.63675 11.4466 8.79358C11.4466 9.95042 12.3931 10.8969 13.5499 10.8969C14.7068 10.8969 15.6533 9.95042 15.6533 8.79358ZM19.8599 18.2586C19.6496 17.5119 16.3894 16.1552 13.5499 16.1552C10.7104 16.1552 7.45027 17.5119 7.23994 18.2691V19.3102H19.8599V18.2586ZM5.1366 18.2586C5.1366 15.4611 10.742 14.0519 13.5499 14.0519C16.3579 14.0519 21.9633 15.4611 21.9633 18.2586V21.4136H5.1366V18.2586Z" fill="#432C81"/>
<circle cx="13.5499" cy="8.86241" r="4.34459" fill="white"/>
<g clip-path="url(#clip0_576_489)">
<path d="M13.5499 4.65356C11.2256 4.65356 9.34106 6.53876 9.34106 8.86239C9.34106 11.1874 11.2256 13.0712 13.5499 13.0712C15.8742 13.0712 17.7587 11.1874 17.7587 8.86239C17.7587 6.53876 15.8742 4.65356 13.5499 4.65356ZM13.5499 6.52038C13.9435 6.52038 14.2627 6.8395 14.2627 7.23316C14.2627 7.62683 13.9435 7.94595 13.5499 7.94595C13.1562 7.94595 12.8371 7.62683 12.8371 7.23316C12.8371 6.8395 13.1562 6.52038 13.5499 6.52038ZM14.5003 10.831C14.5003 10.9435 14.4091 11.0347 14.2966 11.0347H12.8032C12.6907 11.0347 12.5995 10.9435 12.5995 10.831V10.4237C12.5995 10.3113 12.6907 10.2201 12.8032 10.2201H13.0068V9.13392H12.8032C12.6907 9.13392 12.5995 9.04274 12.5995 8.93027V8.52297C12.5995 8.4105 12.6907 8.31931 12.8032 8.31931H13.8893C14.0018 8.31931 14.093 8.4105 14.093 8.52297V10.2201H14.2966C14.4091 10.2201 14.5003 10.3113 14.5003 10.4237V10.831Z" fill="#432C81"/>
</g>
<defs>
<clipPath id="clip0_576_489">
<rect width="8.68918" height="8.68918" fill="white" transform="translate(9.20532 4.51782)"/>
</clipPath>
</defs>
</svg>
