<svg width="32" height="32" viewBox="0 0 32 32" fill="none" xmlns="http://www.w3.org/2000/svg">
<path d="M16 29.3332C8.63616 29.3332 2.66663 23.3636 2.66663 15.9998C2.66663 8.63604 8.63616 2.6665 16 2.6665C23.3638 2.6665 29.3333 8.63604 29.3333 15.9998C29.3252 23.3603 23.3604 29.3251 16 29.3332ZM5.33329 16.2292C5.39638 22.0975 10.1881 26.8126 16.0567 26.7812C21.9253 26.7495 26.666 21.9832 26.666 16.1145C26.666 10.2458 21.9253 5.47954 16.0567 5.44783C10.1881 5.41645 5.39638 10.1315 5.33329 15.9998V16.2292ZM13.3333 21.9998V9.99984L21.3333 15.9998L13.3333 21.9998Z" fill="white"/>
</svg>
