<svg width="20" height="20" viewBox="0 0 20 20" fill="none" xmlns="http://www.w3.org/2000/svg">
<path fill-rule="evenodd" clip-rule="evenodd" d="M7.24819 4.08925C8.86497 4.47807 10.0885 5.71999 10.3648 7.25326C10.3966 7.42851 10.5595 7.55273 10.7443 7.55273C10.7655 7.55273 10.7869 7.55116 10.8086 7.54769C11.0186 7.51482 11.1602 7.3297 11.1249 7.13431C10.798 5.32193 9.35194 3.85377 7.44053 3.39435C7.23434 3.34466 7.0243 3.46008 6.9712 3.65221C6.91828 3.8439 7.04218 4.03973 7.24819 4.08925Z" fill="#003566"/>
<path fill-rule="evenodd" clip-rule="evenodd" d="M12.7373 14.7973C12.4619 14.5217 12.31 14.1552 12.31 13.7656C12.31 13.5007 12.3804 13.2465 12.5117 13.0243L11.32 11.8329C10.224 12.8077 8.78121 13.401 7.20223 13.401C3.78237 13.401 1 10.6194 1 7.20051C1 3.7816 3.78237 1 7.20223 1C10.6221 1 13.4045 3.7816 13.4045 7.20051C13.4045 8.77906 12.811 10.2212 11.8359 11.3171L13.0279 12.5085C13.2501 12.377 13.5042 12.3066 13.7692 12.3066C14.1591 12.3066 14.5256 12.4584 14.8011 12.734L18.4494 16.3813C18.7251 16.6569 18.877 17.0232 18.877 17.413C18.877 17.8025 18.7251 18.169 18.4494 18.4446C18.1651 18.7291 17.7914 18.8711 17.4175 18.8711C17.0439 18.8711 16.6702 18.7291 16.3857 18.4446L12.7373 14.7973ZM7.20224 1.7298C4.18478 1.7298 1.72974 4.18411 1.72974 7.20079C1.72974 10.2174 4.18478 12.6718 7.20224 12.6718C10.2198 12.6718 12.6747 10.2174 12.6747 7.20079C12.6747 4.18411 10.2198 1.7298 7.20224 1.7298ZM13.2533 14.2812L16.9016 17.9285C17.1862 18.213 17.6491 18.2127 17.9337 17.9285C18.0713 17.7907 18.1472 17.6075 18.1472 17.4127C18.1472 17.2179 18.0713 17.0347 17.9337 16.8969L14.2853 13.2495C14.1475 13.1117 13.9642 13.0358 13.7694 13.0358C13.5743 13.0358 13.3911 13.1117 13.2533 13.2495C13.1154 13.3873 13.0397 13.5706 13.0397 13.7653C13.0397 13.9601 13.1154 14.1434 13.2533 14.2812Z" fill="#003566"/>
<path d="M12.7373 14.7973L12.3838 15.1509L12.3837 15.1507L12.7373 14.7973ZM12.5117 13.0243L12.8653 12.6707L13.1396 12.9449L12.9421 13.2788L12.5117 13.0243ZM11.32 11.8329L10.9877 11.4593L11.34 11.1459L11.6735 11.4793L11.32 11.8329ZM11.8359 11.3171L11.4824 11.6707L11.1487 11.3372L11.4624 10.9847L11.8359 11.3171ZM13.0279 12.5085L13.2826 12.9388L12.9488 13.1364L12.6745 12.8622L13.0279 12.5085ZM14.8011 12.734L14.4476 13.0876L14.4474 13.0875L14.8011 12.734ZM18.4494 16.3813L18.0959 16.7349H18.0959L18.4494 16.3813ZM18.4494 18.4446L18.0958 18.0911L18.0959 18.091L18.4494 18.4446ZM16.3857 18.4446L16.7392 18.091L16.3857 18.4446ZM13.2533 14.2812L12.8998 14.6348L13.2533 14.2812ZM16.9016 17.9285L16.5481 18.2821L16.9016 17.9285ZM17.9337 17.9285L18.2875 18.2818L18.287 18.2822L17.9337 17.9285ZM17.9337 16.8969L18.2872 16.5433L18.2875 16.5436L17.9337 16.8969ZM14.2853 13.2495L14.6388 12.8959L14.2853 13.2495ZM12.3837 15.1507C12.0146 14.7814 11.81 14.2879 11.81 13.7656H12.81C12.81 14.0225 12.9091 14.2619 13.091 14.4438L12.3837 15.1507ZM11.81 13.7656C11.81 13.4114 11.9043 13.0692 12.0814 12.7698L12.9421 13.2788C12.8564 13.4238 12.81 13.5901 12.81 13.7656H11.81ZM12.1582 13.3779L10.9665 12.1865L11.6735 11.4793L12.8653 12.6707L12.1582 13.3779ZM11.6523 12.2065C10.4686 13.2592 8.90886 13.901 7.20223 13.901V12.901C8.65357 12.901 9.9793 12.3562 10.9877 11.4593L11.6523 12.2065ZM7.20223 13.901C3.50636 13.901 0.5 10.8957 0.5 7.20051H1.5C1.5 10.3431 4.05838 12.901 7.20223 12.901V13.901ZM0.5 7.20051C0.5 3.50533 3.50636 0.5 7.20223 0.5V1.5C4.05838 1.5 1.5 4.05787 1.5 7.20051H0.5ZM7.20223 0.5C10.8981 0.5 13.9045 3.50533 13.9045 7.20051H12.9045C12.9045 4.05787 10.3461 1.5 7.20223 1.5V0.5ZM13.9045 7.20051C13.9045 8.9068 13.2625 10.466 12.2094 11.6495L11.4624 10.9847C12.3596 9.9764 12.9045 8.65132 12.9045 7.20051H13.9045ZM12.1894 10.9634L13.3814 12.1549L12.6745 12.8622L11.4824 11.6707L12.1894 10.9634ZM12.7732 12.0782C13.0727 11.901 13.4147 11.8066 13.7692 11.8066V12.8066C13.5937 12.8066 13.4276 12.853 13.2826 12.9388L12.7732 12.0782ZM13.7692 11.8066C14.2916 11.8066 14.7854 12.0111 15.1547 12.3806L14.4474 13.0875C14.2658 12.9058 14.0265 12.8066 13.7692 12.8066V11.8066ZM15.1546 12.3804L18.8029 16.0277L18.0959 16.7349L14.4476 13.0876L15.1546 12.3804ZM18.8029 16.0277C19.1723 16.397 19.377 16.8904 19.377 17.413H18.377C18.377 17.1559 18.2779 16.9169 18.0959 16.7349L18.8029 16.0277ZM19.377 17.413C19.377 17.9353 19.1723 18.4289 18.8029 18.7982L18.0959 18.091C18.2778 17.9091 18.377 17.6698 18.377 17.413H19.377ZM18.8031 18.798C18.4207 19.1806 17.9179 19.3711 17.4175 19.3711V18.3711C17.6649 18.3711 17.9095 18.2775 18.0958 18.0911L18.8031 18.798ZM17.4175 19.3711C16.9173 19.3711 16.4147 19.1806 16.0321 18.7982L16.7392 18.091C16.9258 18.2776 17.1705 18.3711 17.4175 18.3711V19.3711ZM16.0321 18.7982L12.3838 15.1509L13.0908 14.4437L16.7392 18.091L16.0321 18.7982ZM7.20224 2.2298C4.46079 2.2298 2.22974 4.46038 2.22974 7.20079H1.22974C1.22974 3.90783 3.90878 1.2298 7.20224 1.2298V2.2298ZM2.22974 7.20079C2.22974 9.94114 4.4608 12.1718 7.20224 12.1718V13.1718C3.90877 13.1718 1.22974 10.4937 1.22974 7.20079H2.22974ZM7.20224 12.1718C9.94374 12.1718 12.1747 9.94114 12.1747 7.20079H13.1747C13.1747 10.4937 10.4958 13.1718 7.20224 13.1718V12.1718ZM12.1747 7.20079C12.1747 4.46038 9.94374 2.2298 7.20224 2.2298V1.2298C10.4958 1.2298 13.1747 3.90784 13.1747 7.20079H12.1747ZM13.6068 13.9276L17.2551 17.5749L16.5481 18.2821L12.8998 14.6348L13.6068 13.9276ZM17.2551 17.5749C17.3442 17.664 17.4908 17.6642 17.5803 17.5747L18.287 18.2822C17.8074 18.7613 17.0281 18.762 16.5481 18.2821L17.2551 17.5749ZM17.5799 17.5752C17.624 17.531 17.6472 17.4748 17.6472 17.4127H18.6472C18.6472 17.7401 18.5186 18.0504 18.2875 18.2818L17.5799 17.5752ZM17.6472 17.4127C17.6472 17.3506 17.624 17.2943 17.5799 17.2502L18.2875 16.5436C18.5186 16.775 18.6472 17.0852 18.6472 17.4127H17.6472ZM17.5802 17.2505L13.9318 13.6031L14.6388 12.8959L18.2872 16.5433L17.5802 17.2505ZM13.9318 13.6031C13.8877 13.559 13.8316 13.5358 13.7694 13.5358V12.5358C14.0969 12.5358 14.4073 12.6644 14.6388 12.8959L13.9318 13.6031ZM13.7694 13.5358C13.7069 13.5358 13.6508 13.5591 13.6068 13.6031L12.8998 12.8959C13.1314 12.6644 13.4417 12.5358 13.7694 12.5358V13.5358ZM13.6068 13.6031C13.563 13.6469 13.5397 13.7029 13.5397 13.7653H12.5397C12.5397 13.4382 12.6679 13.1277 12.8998 12.8959L13.6068 13.6031ZM13.5397 13.7653C13.5397 13.8278 13.563 13.8838 13.6068 13.9276L12.8998 14.6348C12.6679 14.403 12.5397 14.0925 12.5397 13.7653H13.5397Z" fill="#003566"/>
</svg>
