<svg width="59" height="60" viewBox="0 0 59 60" fill="none" xmlns="http://www.w3.org/2000/svg">
<path fill-rule="evenodd" clip-rule="evenodd" d="M32.353 31.3358L38.3797 37.3625L36.8126 38.9297L30.7858 32.9029C29.6604 33.7128 28.3036 34.2072 26.8206 34.2072C23.0447 34.2072 19.984 31.1465 19.984 27.3705C19.984 23.5946 23.0447 20.5339 26.8206 20.5339C30.5965 20.5339 33.6572 23.5946 33.6572 27.3705C33.6572 28.8536 33.1629 30.2104 32.353 31.3358ZM26.8206 22.6375C24.2017 22.6375 22.0876 24.7516 22.0876 27.3705C22.0876 29.9895 24.2017 32.1036 26.8206 32.1036C29.4396 32.1036 31.5537 29.9895 31.5537 27.3705C31.5537 24.7516 29.4396 22.6375 26.8206 22.6375Z" fill="#432C81"/>
</svg>
