<svg width="20" height="20" viewBox="0 0 20 20" fill="none" xmlns="http://www.w3.org/2000/svg">
<path d="M2.5 8.3334V11.6667C2.5 12.1251 2.875 12.5001 3.33333 12.5001H5.83333L8.575 15.2417C9.1 15.7667 10 15.3917 10 14.6501V5.34174C10 4.60007 9.1 4.22507 8.575 4.75007L5.83333 7.50007H3.33333C2.875 7.50007 2.5 7.87507 2.5 8.3334ZM13.75 10.0001C13.75 8.52507 12.9 7.2584 11.6667 6.64174V13.3501C12.9 12.7417 13.75 11.4751 13.75 10.0001ZM11.6667 3.7084V3.87507C11.6667 4.19174 11.875 4.46674 12.1667 4.5834C14.3167 5.44174 15.8333 7.55007 15.8333 10.0001C15.8333 12.4501 14.3167 14.5584 12.1667 15.4167C11.8667 15.5334 11.6667 15.8084 11.6667 16.1251V16.2917C11.6667 16.8167 12.1917 17.1834 12.675 17.0001C15.5 15.9251 17.5 13.2001 17.5 10.0001C17.5 6.80007 15.5 4.07507 12.675 3.00007C12.1917 2.8084 11.6667 3.1834 11.6667 3.7084V3.7084Z" fill="#A095C1"/>
</svg>
