<svg width="24" height="24" viewBox="0 0 24 24" fill="none" xmlns="http://www.w3.org/2000/svg">
<rect width="24" height="24" rx="12" fill="black"/>
<path d="M4.7209 18.98L5.74984 15.2437C5.1137 14.147 4.78 12.905 4.78347 11.6353C4.78347 7.65673 8.03713 4.422 12.0312 4.422C13.9709 4.422 15.7924 5.17273 17.1585 6.53582C18.5281 7.8989 19.2824 9.71174 19.2789 11.6387C19.2789 15.6173 16.0253 18.852 12.0277 18.852H12.0242C10.8111 18.852 9.61876 18.5476 8.55855 17.9733L4.7209 18.98ZM8.74278 16.669L8.96178 16.8005C9.88643 17.3471 10.9466 17.6342 12.0277 17.6377H12.0312C15.3509 17.6377 18.0553 14.9496 18.0553 11.6422C18.0553 10.0404 17.4296 8.53547 16.2929 7.40072C15.1562 6.26597 13.6406 5.64324 12.0312 5.64324C8.7115 5.63978 6.00707 8.3279 6.00707 11.6353C6.00707 12.7666 6.3234 13.8702 6.92824 14.825L7.07076 15.0534L6.46244 17.2641L8.74278 16.669Z" fill="white"/>
<path d="M4.97467 18.7275L5.96884 15.1191C5.35357 14.0639 5.03029 12.8635 5.03029 11.6388C5.03376 7.79859 8.17271 4.67456 12.0312 4.67456C13.9048 4.67456 15.6603 5.40108 16.9812 6.71573C18.3021 8.03038 19.0287 9.78094 19.0287 11.6422C19.0287 15.4824 15.8862 18.6064 12.0312 18.6064H12.0277C10.8563 18.6064 9.70568 18.3123 8.6837 17.7588L4.97467 18.7275Z" fill="black"/>
<path d="M4.7209 18.98L5.74984 15.2437C5.1137 14.147 4.78 12.905 4.78347 11.6353C4.78347 7.65673 8.03713 4.422 12.0312 4.422C13.9709 4.422 15.7924 5.17273 17.1585 6.53582C18.5281 7.8989 19.2824 9.71174 19.2789 11.6387C19.2789 15.6173 16.0253 18.852 12.0277 18.852H12.0242C10.8111 18.852 9.61876 18.5476 8.55855 17.9733L4.7209 18.98ZM8.74278 16.669L8.96178 16.8005C9.88643 17.3471 10.9466 17.6342 12.0277 17.6377H12.0312C15.3509 17.6377 18.0553 14.9496 18.0553 11.6422C18.0553 10.0404 17.4296 8.53547 16.2929 7.40072C15.1562 6.26597 13.6406 5.64324 12.0312 5.64324C8.7115 5.63978 6.00707 8.3279 6.00707 11.6353C6.00707 12.7666 6.3234 13.8702 6.92824 14.825L7.07076 15.0534L6.46244 17.2641L8.74278 16.669Z" fill="white"/>
<path fill-rule="evenodd" clip-rule="evenodd" d="M10.2201 8.61851C10.0845 8.31752 9.94199 8.3106 9.81337 8.30714C9.70909 8.30368 9.58742 8.30368 9.46576 8.30368C9.34409 8.30368 9.14943 8.34866 8.98258 8.52856C8.81572 8.70845 8.34992 9.14437 8.34992 10.0335C8.34992 10.9191 8.99996 11.7771 9.09034 11.8982C9.18072 12.0193 10.3452 13.8979 12.1841 14.6209C13.7136 15.2229 14.0264 15.1018 14.3567 15.0707C14.6869 15.0395 15.4273 14.6348 15.5803 14.2127C15.7297 13.7906 15.7297 13.4308 15.6845 13.3547C15.6394 13.2786 15.5177 13.2336 15.3369 13.1437C15.1562 13.0537 14.2663 12.6178 14.0994 12.5555C13.9326 12.4967 13.8109 12.4656 13.6927 12.6455C13.5711 12.8254 13.2235 13.2302 13.1192 13.3513C13.0149 13.4723 12.9071 13.4862 12.7264 13.3962C12.5456 13.3063 11.9616 13.116 11.2699 12.5002C10.7311 12.0228 10.3661 11.4312 10.2618 11.2513C10.1575 11.0714 10.2514 10.9745 10.3417 10.8845C10.4217 10.805 10.5225 10.6735 10.6129 10.5697C10.7033 10.4659 10.7345 10.3898 10.7936 10.2687C10.8527 10.1477 10.8249 10.0439 10.7797 9.95391C10.7345 9.86742 10.38 8.97484 10.2201 8.61851Z" fill="white"/>
</svg>
